G04 MADE WITH FRITZING*
G04 WWW.FRITZING.ORG*
G04 DOUBLE SIDED*
G04 HOLES PLATED*
G04 CONTOUR ON CENTER OF CONTOUR VECTOR*
%ASAXBY*%
%FSLAX23Y23*%
%MOIN*%
%OFA0B0*%
%SFA1.0B1.0*%
%ADD10C,0.075000*%
%ADD11C,0.068000*%
%ADD12C,0.070000*%
%ADD13C,0.077778*%
%ADD14C,0.177165*%
%ADD15R,0.055118X0.059055*%
%ADD16R,0.075000X0.075000*%
%ADD17C,0.016000*%
%ADD18R,0.001000X0.001000*%
%LNCOPPER1*%
G90*
G70*
G54D10*
X1722Y1772D03*
X1822Y1772D03*
G54D11*
X1614Y2999D03*
X2252Y2916D03*
X1940Y533D03*
X1301Y617D03*
X2534Y779D03*
X789Y1008D03*
X1614Y2999D03*
X2252Y2916D03*
X1940Y533D03*
X1301Y617D03*
X2534Y779D03*
X789Y1008D03*
G54D12*
X1590Y2432D03*
X2246Y2258D03*
X1941Y1122D03*
X1285Y1297D03*
X1590Y2432D03*
X2246Y2258D03*
X1941Y1122D03*
X1285Y1297D03*
G54D13*
X2345Y2132D03*
X2345Y2032D03*
X2345Y1932D03*
X2345Y1832D03*
X2345Y1732D03*
X2345Y1632D03*
X2345Y1532D03*
X2345Y1432D03*
X3245Y1432D03*
X3245Y1532D03*
X3245Y1632D03*
X3245Y1732D03*
X3245Y1832D03*
X3245Y1932D03*
X3245Y2032D03*
X3245Y2132D03*
G54D14*
X2970Y2701D03*
X608Y2701D03*
G54D15*
X2143Y1756D03*
X2224Y1756D03*
G54D16*
X1722Y1772D03*
G54D17*
X2322Y1737D02*
X2246Y1752D01*
G54D18*
X1613Y3007D02*
X1615Y3007D01*
X1610Y3006D02*
X1618Y3006D01*
X1609Y3005D02*
X1620Y3005D01*
X1608Y3004D02*
X1623Y3004D01*
X1607Y3003D02*
X1625Y3003D01*
X1607Y3002D02*
X1628Y3002D01*
X1607Y3001D02*
X1630Y3001D01*
X1606Y3000D02*
X1633Y3000D01*
X1606Y2999D02*
X1636Y2999D01*
X1606Y2998D02*
X1638Y2998D01*
X1607Y2997D02*
X1641Y2997D01*
X1607Y2996D02*
X1643Y2996D01*
X1607Y2995D02*
X1646Y2995D01*
X1608Y2994D02*
X1648Y2994D01*
X1609Y2993D02*
X1651Y2993D01*
X1611Y2992D02*
X1653Y2992D01*
X1613Y2991D02*
X1655Y2991D01*
X1616Y2990D02*
X1658Y2990D01*
X1618Y2989D02*
X1660Y2989D01*
X1621Y2988D02*
X1663Y2988D01*
X1623Y2987D02*
X1665Y2987D01*
X1626Y2986D02*
X1667Y2986D01*
X1628Y2985D02*
X1670Y2985D01*
X1631Y2984D02*
X1672Y2984D01*
X1634Y2983D02*
X1675Y2983D01*
X1636Y2982D02*
X1677Y2982D01*
X1639Y2981D02*
X1679Y2981D01*
X1641Y2980D02*
X1681Y2980D01*
X1644Y2979D02*
X1684Y2979D01*
X1646Y2978D02*
X1686Y2978D01*
X1648Y2977D02*
X1688Y2977D01*
X1651Y2976D02*
X1690Y2976D01*
X1653Y2975D02*
X1693Y2975D01*
X1656Y2974D02*
X1695Y2974D01*
X1658Y2973D02*
X1697Y2973D01*
X1661Y2972D02*
X1700Y2972D01*
X1663Y2971D02*
X1702Y2971D01*
X1665Y2970D02*
X1704Y2970D01*
X1668Y2969D02*
X1706Y2969D01*
X1670Y2968D02*
X1708Y2968D01*
X1672Y2967D02*
X1710Y2967D01*
X1675Y2966D02*
X1712Y2966D01*
X1677Y2965D02*
X1715Y2965D01*
X1679Y2964D02*
X1717Y2964D01*
X1681Y2963D02*
X1719Y2963D01*
X1684Y2962D02*
X1721Y2962D01*
X1686Y2961D02*
X1723Y2961D01*
X1688Y2960D02*
X1725Y2960D01*
X1690Y2959D02*
X1727Y2959D01*
X1693Y2958D02*
X1729Y2958D01*
X1695Y2957D02*
X1731Y2957D01*
X1697Y2956D02*
X1733Y2956D01*
X1699Y2955D02*
X1735Y2955D01*
X1701Y2954D02*
X1737Y2954D01*
X1704Y2953D02*
X1739Y2953D01*
X1706Y2952D02*
X1741Y2952D01*
X1708Y2951D02*
X1744Y2951D01*
X1710Y2950D02*
X1746Y2950D01*
X1712Y2949D02*
X1748Y2949D01*
X1714Y2948D02*
X1750Y2948D01*
X1716Y2947D02*
X1752Y2947D01*
X1719Y2946D02*
X1754Y2946D01*
X1721Y2945D02*
X1756Y2945D01*
X1723Y2944D02*
X1757Y2944D01*
X1725Y2943D02*
X1759Y2943D01*
X1727Y2942D02*
X1761Y2942D01*
X1729Y2941D02*
X1763Y2941D01*
X1731Y2940D02*
X1765Y2940D01*
X1733Y2939D02*
X1767Y2939D01*
X1735Y2938D02*
X1769Y2938D01*
X1737Y2937D02*
X1771Y2937D01*
X1739Y2936D02*
X1773Y2936D01*
X1741Y2935D02*
X1775Y2935D01*
X1743Y2934D02*
X1776Y2934D01*
X1745Y2933D02*
X1778Y2933D01*
X1747Y2932D02*
X1780Y2932D01*
X1749Y2931D02*
X1782Y2931D01*
X1751Y2930D02*
X1784Y2930D01*
X1753Y2929D02*
X1786Y2929D01*
X1755Y2928D02*
X1787Y2928D01*
X1757Y2927D02*
X1789Y2927D01*
X1758Y2926D02*
X1791Y2926D01*
X1760Y2925D02*
X1793Y2925D01*
X1762Y2924D02*
X1795Y2924D01*
X1764Y2923D02*
X1796Y2923D01*
X1766Y2922D02*
X1798Y2922D01*
X1768Y2921D02*
X1800Y2921D01*
X1770Y2920D02*
X1802Y2920D01*
X1772Y2919D02*
X1803Y2919D01*
X1774Y2918D02*
X1805Y2918D01*
X1775Y2917D02*
X1807Y2917D01*
X1777Y2916D02*
X1809Y2916D01*
X1779Y2915D02*
X1810Y2915D01*
X1781Y2914D02*
X1812Y2914D01*
X1783Y2913D02*
X1814Y2913D01*
X1784Y2912D02*
X1815Y2912D01*
X1786Y2911D02*
X1817Y2911D01*
X1788Y2910D02*
X1819Y2910D01*
X1790Y2909D02*
X1821Y2909D01*
X1792Y2908D02*
X1822Y2908D01*
X1793Y2907D02*
X1824Y2907D01*
X1795Y2906D02*
X1826Y2906D01*
X1797Y2905D02*
X1827Y2905D01*
X1799Y2904D02*
X1829Y2904D01*
X1800Y2903D02*
X1831Y2903D01*
X1802Y2902D02*
X1832Y2902D01*
X1804Y2901D02*
X1834Y2901D01*
X1806Y2900D02*
X1835Y2900D01*
X1807Y2899D02*
X1837Y2899D01*
X1809Y2898D02*
X1839Y2898D01*
X1811Y2897D02*
X1840Y2897D01*
X1812Y2896D02*
X1842Y2896D01*
X1814Y2895D02*
X1843Y2895D01*
X1816Y2894D02*
X1845Y2894D01*
X1817Y2893D02*
X1847Y2893D01*
X1819Y2892D02*
X1848Y2892D01*
X1821Y2891D02*
X1850Y2891D01*
X1822Y2890D02*
X1851Y2890D01*
X1824Y2889D02*
X1853Y2889D01*
X1826Y2888D02*
X1854Y2888D01*
X1827Y2887D02*
X1856Y2887D01*
X1829Y2886D02*
X1858Y2886D01*
X1831Y2885D02*
X1859Y2885D01*
X1832Y2884D02*
X1861Y2884D01*
X1834Y2883D02*
X1862Y2883D01*
X1835Y2882D02*
X1864Y2882D01*
X1837Y2881D02*
X1865Y2881D01*
X1839Y2880D02*
X1867Y2880D01*
X1840Y2879D02*
X1868Y2879D01*
X1842Y2878D02*
X1870Y2878D01*
X1843Y2877D02*
X1871Y2877D01*
X1845Y2876D02*
X1873Y2876D01*
X1846Y2875D02*
X1874Y2875D01*
X1848Y2874D02*
X1876Y2874D01*
X1849Y2873D02*
X1877Y2873D01*
X1851Y2872D02*
X1879Y2872D01*
X1853Y2871D02*
X1880Y2871D01*
X1854Y2870D02*
X1881Y2870D01*
X1856Y2869D02*
X1883Y2869D01*
X1857Y2868D02*
X1884Y2868D01*
X1859Y2867D02*
X1886Y2867D01*
X1860Y2866D02*
X1887Y2866D01*
X1862Y2865D02*
X1889Y2865D01*
X1863Y2864D02*
X1890Y2864D01*
X1865Y2863D02*
X1892Y2863D01*
X1866Y2862D02*
X1893Y2862D01*
X1868Y2861D02*
X1894Y2861D01*
X1869Y2860D02*
X1896Y2860D01*
X1871Y2859D02*
X1897Y2859D01*
X1872Y2858D02*
X1899Y2858D01*
X1874Y2857D02*
X1900Y2857D01*
X1875Y2856D02*
X1901Y2856D01*
X1876Y2855D02*
X1903Y2855D01*
X1878Y2854D02*
X1904Y2854D01*
X1879Y2853D02*
X1905Y2853D01*
X1881Y2852D02*
X1907Y2852D01*
X1882Y2851D02*
X1908Y2851D01*
X1884Y2850D02*
X1910Y2850D01*
X1885Y2849D02*
X1911Y2849D01*
X1886Y2848D02*
X1912Y2848D01*
X1888Y2847D02*
X1914Y2847D01*
X1889Y2846D02*
X1915Y2846D01*
X1891Y2845D02*
X1916Y2845D01*
X1892Y2844D02*
X1918Y2844D01*
X1893Y2843D02*
X1919Y2843D01*
X1895Y2842D02*
X1920Y2842D01*
X1896Y2841D02*
X1922Y2841D01*
X1898Y2840D02*
X1923Y2840D01*
X1899Y2839D02*
X1924Y2839D01*
X1900Y2838D02*
X1926Y2838D01*
X1902Y2837D02*
X1927Y2837D01*
X1903Y2836D02*
X1928Y2836D01*
X1904Y2835D02*
X1929Y2835D01*
X1906Y2834D02*
X1931Y2834D01*
X1907Y2833D02*
X1932Y2833D01*
X1908Y2832D02*
X1933Y2832D01*
X1910Y2831D02*
X1935Y2831D01*
X1911Y2830D02*
X1936Y2830D01*
X1912Y2829D02*
X1937Y2829D01*
X1914Y2828D02*
X1938Y2828D01*
X1915Y2827D02*
X1940Y2827D01*
X1916Y2826D02*
X1941Y2826D01*
X1918Y2825D02*
X1942Y2825D01*
X1919Y2824D02*
X1943Y2824D01*
X1920Y2823D02*
X1945Y2823D01*
X1922Y2822D02*
X1946Y2822D01*
X1923Y2821D02*
X1947Y2821D01*
X1924Y2820D02*
X1948Y2820D01*
X1925Y2819D02*
X1950Y2819D01*
X1927Y2818D02*
X1951Y2818D01*
X1928Y2817D02*
X1952Y2817D01*
X1929Y2816D02*
X1953Y2816D01*
X1930Y2815D02*
X1954Y2815D01*
X1932Y2814D02*
X1956Y2814D01*
X1933Y2813D02*
X1957Y2813D01*
X1934Y2812D02*
X1958Y2812D01*
X1935Y2811D02*
X1959Y2811D01*
X1937Y2810D02*
X1960Y2810D01*
X1938Y2809D02*
X1961Y2809D01*
X1939Y2808D02*
X1963Y2808D01*
X1940Y2807D02*
X1964Y2807D01*
X1942Y2806D02*
X1965Y2806D01*
X1943Y2805D02*
X1966Y2805D01*
X1944Y2804D02*
X1967Y2804D01*
X1945Y2803D02*
X1969Y2803D01*
X1946Y2802D02*
X1970Y2802D01*
X1948Y2801D02*
X1971Y2801D01*
X1949Y2800D02*
X1972Y2800D01*
X1950Y2799D02*
X1973Y2799D01*
X1951Y2798D02*
X1974Y2798D01*
X1952Y2797D02*
X1975Y2797D01*
X1953Y2796D02*
X1977Y2796D01*
X1955Y2795D02*
X1978Y2795D01*
X1956Y2794D02*
X1979Y2794D01*
X1957Y2793D02*
X1980Y2793D01*
X1958Y2792D02*
X1981Y2792D01*
X1959Y2791D02*
X1982Y2791D01*
X1961Y2790D02*
X1983Y2790D01*
X1962Y2789D02*
X1984Y2789D01*
X1963Y2788D02*
X1986Y2788D01*
X1964Y2787D02*
X1987Y2787D01*
X1965Y2786D02*
X1988Y2786D01*
X1966Y2785D02*
X1989Y2785D01*
X1967Y2784D02*
X1990Y2784D01*
X1968Y2783D02*
X1991Y2783D01*
X1970Y2782D02*
X1992Y2782D01*
X1971Y2781D02*
X1993Y2781D01*
X1972Y2780D02*
X1994Y2780D01*
X1973Y2779D02*
X1995Y2779D01*
X1974Y2778D02*
X1996Y2778D01*
X1975Y2777D02*
X1997Y2777D01*
X1976Y2776D02*
X1999Y2776D01*
X1977Y2775D02*
X2000Y2775D01*
X1979Y2774D02*
X2001Y2774D01*
X1980Y2773D02*
X2002Y2773D01*
X1981Y2772D02*
X2003Y2772D01*
X1982Y2771D02*
X2004Y2771D01*
X1983Y2770D02*
X2005Y2770D01*
X1984Y2769D02*
X2006Y2769D01*
X1985Y2768D02*
X2007Y2768D01*
X1986Y2767D02*
X2008Y2767D01*
X1987Y2766D02*
X2009Y2766D01*
X1988Y2765D02*
X2010Y2765D01*
X1989Y2764D02*
X2011Y2764D01*
X1990Y2763D02*
X2012Y2763D01*
X1991Y2762D02*
X2013Y2762D01*
X1993Y2761D02*
X2014Y2761D01*
X1994Y2760D02*
X2015Y2760D01*
X1995Y2759D02*
X2016Y2759D01*
X1996Y2758D02*
X2017Y2758D01*
X1997Y2757D02*
X2018Y2757D01*
X1998Y2756D02*
X2019Y2756D01*
X1999Y2755D02*
X2020Y2755D01*
X2000Y2754D02*
X2021Y2754D01*
X2001Y2753D02*
X2022Y2753D01*
X2002Y2752D02*
X2023Y2752D01*
X2003Y2751D02*
X2024Y2751D01*
X2004Y2750D02*
X2025Y2750D01*
X2005Y2749D02*
X2026Y2749D01*
X2006Y2748D02*
X2027Y2748D01*
X2007Y2747D02*
X2028Y2747D01*
X2008Y2746D02*
X2029Y2746D01*
X2009Y2745D02*
X2030Y2745D01*
X2010Y2744D02*
X2031Y2744D01*
X2011Y2743D02*
X2032Y2743D01*
X2012Y2742D02*
X2033Y2742D01*
X2013Y2741D02*
X2034Y2741D01*
X2014Y2740D02*
X2035Y2740D01*
X2015Y2739D02*
X2036Y2739D01*
X2016Y2738D02*
X2037Y2738D01*
X2017Y2737D02*
X2038Y2737D01*
X2018Y2736D02*
X2039Y2736D01*
X2019Y2735D02*
X2039Y2735D01*
X2020Y2734D02*
X2040Y2734D01*
X2021Y2733D02*
X2041Y2733D01*
X2022Y2732D02*
X2042Y2732D01*
X2023Y2731D02*
X2043Y2731D01*
X2024Y2730D02*
X2044Y2730D01*
X2024Y2729D02*
X2045Y2729D01*
X2025Y2728D02*
X2046Y2728D01*
X2026Y2727D02*
X2047Y2727D01*
X2027Y2726D02*
X2048Y2726D01*
X2028Y2725D02*
X2049Y2725D01*
X2029Y2724D02*
X2050Y2724D01*
X2030Y2723D02*
X2051Y2723D01*
X2031Y2722D02*
X2051Y2722D01*
X2032Y2721D02*
X2052Y2721D01*
X2033Y2720D02*
X2053Y2720D01*
X2034Y2719D02*
X2054Y2719D01*
X2035Y2718D02*
X2055Y2718D01*
X2036Y2717D02*
X2056Y2717D01*
X2037Y2716D02*
X2057Y2716D01*
X2038Y2715D02*
X2058Y2715D01*
X2038Y2714D02*
X2058Y2714D01*
X2039Y2713D02*
X2059Y2713D01*
X2040Y2712D02*
X2060Y2712D01*
X2041Y2711D02*
X2061Y2711D01*
X2042Y2710D02*
X2062Y2710D01*
X2043Y2709D02*
X2063Y2709D01*
X2044Y2708D02*
X2064Y2708D01*
X2045Y2707D02*
X2065Y2707D01*
X2045Y2706D02*
X2065Y2706D01*
X2046Y2705D02*
X2066Y2705D01*
X2047Y2704D02*
X2067Y2704D01*
X2048Y2703D02*
X2068Y2703D01*
X2049Y2702D02*
X2069Y2702D01*
X2050Y2701D02*
X2070Y2701D01*
X2051Y2700D02*
X2070Y2700D01*
X2052Y2699D02*
X2071Y2699D01*
X2053Y2698D02*
X2072Y2698D01*
X2053Y2697D02*
X2073Y2697D01*
X2054Y2696D02*
X2074Y2696D01*
X2055Y2695D02*
X2075Y2695D01*
X2056Y2694D02*
X2076Y2694D01*
X2057Y2693D02*
X2076Y2693D01*
X2058Y2692D02*
X2077Y2692D01*
X2058Y2691D02*
X2078Y2691D01*
X2059Y2690D02*
X2079Y2690D01*
X2060Y2689D02*
X2080Y2689D01*
X2061Y2688D02*
X2080Y2688D01*
X2062Y2687D02*
X2081Y2687D01*
X2063Y2686D02*
X2082Y2686D01*
X2063Y2685D02*
X2083Y2685D01*
X2064Y2684D02*
X2084Y2684D01*
X2065Y2683D02*
X2084Y2683D01*
X2066Y2682D02*
X2085Y2682D01*
X2067Y2681D02*
X2086Y2681D01*
X2068Y2680D02*
X2087Y2680D01*
X2068Y2679D02*
X2088Y2679D01*
X2069Y2678D02*
X2088Y2678D01*
X2070Y2677D02*
X2089Y2677D01*
X2071Y2676D02*
X2090Y2676D01*
X2072Y2675D02*
X2091Y2675D01*
X2072Y2674D02*
X2092Y2674D01*
X2073Y2673D02*
X2092Y2673D01*
X2074Y2672D02*
X2093Y2672D01*
X2075Y2671D02*
X2094Y2671D01*
X2076Y2670D02*
X2095Y2670D01*
X2076Y2669D02*
X2095Y2669D01*
X2077Y2668D02*
X2096Y2668D01*
X2078Y2667D02*
X2097Y2667D01*
X2079Y2666D02*
X2098Y2666D01*
X2079Y2665D02*
X2098Y2665D01*
X2080Y2664D02*
X2099Y2664D01*
X2081Y2663D02*
X2100Y2663D01*
X2082Y2662D02*
X2101Y2662D01*
X2083Y2661D02*
X2101Y2661D01*
X2083Y2660D02*
X2102Y2660D01*
X2084Y2659D02*
X2103Y2659D01*
X2085Y2658D02*
X2104Y2658D01*
X2086Y2657D02*
X2104Y2657D01*
X2086Y2656D02*
X2105Y2656D01*
X2087Y2655D02*
X2106Y2655D01*
X2088Y2654D02*
X2107Y2654D01*
X2089Y2653D02*
X2107Y2653D01*
X2089Y2652D02*
X2108Y2652D01*
X2090Y2651D02*
X2109Y2651D01*
X2091Y2650D02*
X2109Y2650D01*
X2092Y2649D02*
X2110Y2649D01*
X2092Y2648D02*
X2111Y2648D01*
X2093Y2647D02*
X2112Y2647D01*
X2094Y2646D02*
X2112Y2646D01*
X2094Y2645D02*
X2113Y2645D01*
X2095Y2644D02*
X2114Y2644D01*
X2096Y2643D02*
X2114Y2643D01*
X2097Y2642D02*
X2115Y2642D01*
X2097Y2641D02*
X2116Y2641D01*
X2098Y2640D02*
X2117Y2640D01*
X2099Y2639D02*
X2117Y2639D01*
X2100Y2638D02*
X2118Y2638D01*
X2100Y2637D02*
X2119Y2637D01*
X2101Y2636D02*
X2119Y2636D01*
X2102Y2635D02*
X2120Y2635D01*
X2102Y2634D02*
X2121Y2634D01*
X2103Y2633D02*
X2121Y2633D01*
X2104Y2632D02*
X2122Y2632D01*
X2104Y2631D02*
X2123Y2631D01*
X2105Y2630D02*
X2123Y2630D01*
X2106Y2629D02*
X2124Y2629D01*
X2107Y2628D02*
X2125Y2628D01*
X2107Y2627D02*
X2125Y2627D01*
X2108Y2626D02*
X2126Y2626D01*
X2109Y2625D02*
X2127Y2625D01*
X2109Y2624D02*
X2127Y2624D01*
X2110Y2623D02*
X2128Y2623D01*
X2111Y2622D02*
X2129Y2622D01*
X2111Y2621D02*
X2129Y2621D01*
X2112Y2620D02*
X2130Y2620D01*
X2113Y2619D02*
X2131Y2619D01*
X2113Y2618D02*
X2131Y2618D01*
X2114Y2617D02*
X2132Y2617D01*
X2115Y2616D02*
X2133Y2616D01*
X2115Y2615D02*
X2133Y2615D01*
X2116Y2614D02*
X2134Y2614D01*
X2117Y2613D02*
X2135Y2613D01*
X2117Y2612D02*
X2135Y2612D01*
X2118Y2611D02*
X2136Y2611D01*
X2119Y2610D02*
X2137Y2610D01*
X2119Y2609D02*
X2137Y2609D01*
X2120Y2608D02*
X2138Y2608D01*
X2121Y2607D02*
X2138Y2607D01*
X2121Y2606D02*
X2139Y2606D01*
X2122Y2605D02*
X2140Y2605D01*
X2122Y2604D02*
X2140Y2604D01*
X2123Y2603D02*
X2141Y2603D01*
X2124Y2602D02*
X2142Y2602D01*
X2124Y2601D02*
X2142Y2601D01*
X2125Y2600D02*
X2143Y2600D01*
X2126Y2599D02*
X2143Y2599D01*
X2126Y2598D02*
X2144Y2598D01*
X2127Y2597D02*
X2145Y2597D01*
X2128Y2596D02*
X2145Y2596D01*
X2128Y2595D02*
X2146Y2595D01*
X2129Y2594D02*
X2146Y2594D01*
X2129Y2593D02*
X2147Y2593D01*
X2130Y2592D02*
X2148Y2592D01*
X2131Y2591D02*
X2148Y2591D01*
X2131Y2590D02*
X2149Y2590D01*
X2132Y2589D02*
X2149Y2589D01*
X2132Y2588D02*
X2150Y2588D01*
X2133Y2587D02*
X2151Y2587D01*
X2134Y2586D02*
X2151Y2586D01*
X2134Y2585D02*
X2152Y2585D01*
X2135Y2584D02*
X2152Y2584D01*
X2135Y2583D02*
X2153Y2583D01*
X2136Y2582D02*
X2154Y2582D01*
X2137Y2581D02*
X2154Y2581D01*
X2137Y2580D02*
X2155Y2580D01*
X2138Y2579D02*
X2155Y2579D01*
X2138Y2578D02*
X2156Y2578D01*
X2139Y2577D02*
X2156Y2577D01*
X2140Y2576D02*
X2157Y2576D01*
X2140Y2575D02*
X2158Y2575D01*
X2141Y2574D02*
X2158Y2574D01*
X2141Y2573D02*
X2159Y2573D01*
X2142Y2572D02*
X2159Y2572D01*
X2142Y2571D02*
X2160Y2571D01*
X2143Y2570D02*
X2160Y2570D01*
X2144Y2569D02*
X2161Y2569D01*
X2144Y2568D02*
X2161Y2568D01*
X2145Y2567D02*
X2162Y2567D01*
X2145Y2566D02*
X2163Y2566D01*
X2146Y2565D02*
X2163Y2565D01*
X2146Y2564D02*
X2164Y2564D01*
X2147Y2563D02*
X2164Y2563D01*
X2147Y2562D02*
X2165Y2562D01*
X2148Y2561D02*
X2165Y2561D01*
X2149Y2560D02*
X2166Y2560D01*
X2149Y2559D02*
X2166Y2559D01*
X2150Y2558D02*
X2167Y2558D01*
X2150Y2557D02*
X2167Y2557D01*
X2151Y2556D02*
X2168Y2556D01*
X2151Y2555D02*
X2168Y2555D01*
X2152Y2554D02*
X2169Y2554D01*
X2152Y2553D02*
X2170Y2553D01*
X2153Y2552D02*
X2170Y2552D01*
X2153Y2551D02*
X2171Y2551D01*
X2154Y2550D02*
X2171Y2550D01*
X2155Y2549D02*
X2172Y2549D01*
X2155Y2548D02*
X2172Y2548D01*
X2156Y2547D02*
X2173Y2547D01*
X2156Y2546D02*
X2173Y2546D01*
X2157Y2545D02*
X2174Y2545D01*
X2157Y2544D02*
X2174Y2544D01*
X2158Y2543D02*
X2175Y2543D01*
X2158Y2542D02*
X2175Y2542D01*
X2159Y2541D02*
X2176Y2541D01*
X2159Y2540D02*
X2176Y2540D01*
X2160Y2539D02*
X2177Y2539D01*
X2160Y2538D02*
X2177Y2538D01*
X2161Y2537D02*
X2178Y2537D01*
X2161Y2536D02*
X2178Y2536D01*
X2162Y2535D02*
X2179Y2535D01*
X2162Y2534D02*
X2179Y2534D01*
X2163Y2533D02*
X2180Y2533D01*
X2163Y2532D02*
X2180Y2532D01*
X2164Y2531D02*
X2181Y2531D01*
X2164Y2530D02*
X2181Y2530D01*
X2165Y2529D02*
X2182Y2529D01*
X2165Y2528D02*
X2182Y2528D01*
X2166Y2527D02*
X2183Y2527D01*
X2166Y2526D02*
X2183Y2526D01*
X2167Y2525D02*
X2184Y2525D01*
X2167Y2524D02*
X2184Y2524D01*
X2168Y2523D02*
X2184Y2523D01*
X2168Y2522D02*
X2185Y2522D01*
X2169Y2521D02*
X2185Y2521D01*
X2169Y2520D02*
X2186Y2520D01*
X2170Y2519D02*
X2186Y2519D01*
X2170Y2518D02*
X2187Y2518D01*
X2171Y2517D02*
X2187Y2517D01*
X2171Y2516D02*
X2188Y2516D01*
X2172Y2515D02*
X2188Y2515D01*
X2172Y2514D02*
X2189Y2514D01*
X2172Y2513D02*
X2189Y2513D01*
X2173Y2512D02*
X2190Y2512D01*
X2173Y2511D02*
X2190Y2511D01*
X2174Y2510D02*
X2190Y2510D01*
X2174Y2509D02*
X2191Y2509D01*
X2175Y2508D02*
X2191Y2508D01*
X2175Y2507D02*
X2192Y2507D01*
X2176Y2506D02*
X2192Y2506D01*
X2176Y2505D02*
X2193Y2505D01*
X2177Y2504D02*
X2193Y2504D01*
X2177Y2503D02*
X2194Y2503D01*
X2177Y2502D02*
X2194Y2502D01*
X2178Y2501D02*
X2194Y2501D01*
X2178Y2500D02*
X2195Y2500D01*
X2179Y2499D02*
X2195Y2499D01*
X2179Y2498D02*
X2196Y2498D01*
X2180Y2497D02*
X2196Y2497D01*
X2180Y2496D02*
X2197Y2496D01*
X2181Y2495D02*
X2197Y2495D01*
X2181Y2494D02*
X2197Y2494D01*
X2181Y2493D02*
X2198Y2493D01*
X2182Y2492D02*
X2198Y2492D01*
X2182Y2491D02*
X2199Y2491D01*
X2183Y2490D02*
X2199Y2490D01*
X2183Y2489D02*
X2200Y2489D01*
X2184Y2488D02*
X2200Y2488D01*
X2184Y2487D02*
X2200Y2487D01*
X2184Y2486D02*
X2201Y2486D01*
X2185Y2485D02*
X2201Y2485D01*
X2185Y2484D02*
X2202Y2484D01*
X2186Y2483D02*
X2202Y2483D01*
X2186Y2482D02*
X2202Y2482D01*
X2187Y2481D02*
X2203Y2481D01*
X2187Y2480D02*
X2203Y2480D01*
X2187Y2479D02*
X2204Y2479D01*
X2188Y2478D02*
X2204Y2478D01*
X2188Y2477D02*
X2204Y2477D01*
X2189Y2476D02*
X2205Y2476D01*
X2189Y2475D02*
X2205Y2475D01*
X2189Y2474D02*
X2206Y2474D01*
X2190Y2473D02*
X2206Y2473D01*
X2190Y2472D02*
X2206Y2472D01*
X2191Y2471D02*
X2207Y2471D01*
X2191Y2470D02*
X2207Y2470D01*
X2191Y2469D02*
X2208Y2469D01*
X2192Y2468D02*
X2208Y2468D01*
X2192Y2467D02*
X2208Y2467D01*
X2193Y2466D02*
X2209Y2466D01*
X2193Y2465D02*
X2209Y2465D01*
X2193Y2464D02*
X2209Y2464D01*
X2194Y2463D02*
X2210Y2463D01*
X2194Y2462D02*
X2210Y2462D01*
X2194Y2461D02*
X2211Y2461D01*
X2195Y2460D02*
X2211Y2460D01*
X2195Y2459D02*
X2211Y2459D01*
X2196Y2458D02*
X2212Y2458D01*
X2196Y2457D02*
X2212Y2457D01*
X2196Y2456D02*
X2212Y2456D01*
X2197Y2455D02*
X2213Y2455D01*
X2197Y2454D02*
X2213Y2454D01*
X2197Y2453D02*
X2213Y2453D01*
X2198Y2452D02*
X2214Y2452D01*
X2198Y2451D02*
X2214Y2451D01*
X2199Y2450D02*
X2214Y2450D01*
X2199Y2449D02*
X2215Y2449D01*
X2199Y2448D02*
X2215Y2448D01*
X2200Y2447D02*
X2216Y2447D01*
X2200Y2446D02*
X2216Y2446D01*
X2200Y2445D02*
X2216Y2445D01*
X2201Y2444D02*
X2217Y2444D01*
X2201Y2443D02*
X2217Y2443D01*
X2201Y2442D02*
X2217Y2442D01*
X2202Y2441D02*
X2218Y2441D01*
X1587Y2440D02*
X1593Y2440D01*
X2202Y2440D02*
X2218Y2440D01*
X1585Y2439D02*
X1596Y2439D01*
X2202Y2439D02*
X2218Y2439D01*
X1584Y2438D02*
X1600Y2438D01*
X2203Y2438D02*
X2219Y2438D01*
X1583Y2437D02*
X1603Y2437D01*
X2203Y2437D02*
X2219Y2437D01*
X1583Y2436D02*
X1606Y2436D01*
X2203Y2436D02*
X2219Y2436D01*
X1583Y2435D02*
X1609Y2435D01*
X2204Y2435D02*
X2220Y2435D01*
X1582Y2434D02*
X1612Y2434D01*
X2204Y2434D02*
X2220Y2434D01*
X1582Y2433D02*
X1615Y2433D01*
X2204Y2433D02*
X2220Y2433D01*
X1582Y2432D02*
X1618Y2432D01*
X2205Y2432D02*
X2221Y2432D01*
X1582Y2431D02*
X1621Y2431D01*
X2205Y2431D02*
X2221Y2431D01*
X1583Y2430D02*
X1624Y2430D01*
X2205Y2430D02*
X2221Y2430D01*
X1583Y2429D02*
X1626Y2429D01*
X2206Y2429D02*
X2222Y2429D01*
X1584Y2428D02*
X1629Y2428D01*
X2206Y2428D02*
X2222Y2428D01*
X1585Y2427D02*
X1632Y2427D01*
X2206Y2427D02*
X2222Y2427D01*
X1586Y2426D02*
X1635Y2426D01*
X2207Y2426D02*
X2222Y2426D01*
X1588Y2425D02*
X1637Y2425D01*
X2207Y2425D02*
X2223Y2425D01*
X1592Y2424D02*
X1640Y2424D01*
X2207Y2424D02*
X2223Y2424D01*
X1595Y2423D02*
X1642Y2423D01*
X2208Y2423D02*
X2223Y2423D01*
X1598Y2422D02*
X1645Y2422D01*
X2208Y2422D02*
X2224Y2422D01*
X1601Y2421D02*
X1647Y2421D01*
X2208Y2421D02*
X2224Y2421D01*
X1605Y2420D02*
X1650Y2420D01*
X2209Y2420D02*
X2224Y2420D01*
X1608Y2419D02*
X1652Y2419D01*
X2209Y2419D02*
X2225Y2419D01*
X1611Y2418D02*
X1655Y2418D01*
X2209Y2418D02*
X2225Y2418D01*
X1613Y2417D02*
X1657Y2417D01*
X2210Y2417D02*
X2225Y2417D01*
X1616Y2416D02*
X1659Y2416D01*
X2210Y2416D02*
X2226Y2416D01*
X1619Y2415D02*
X1662Y2415D01*
X2210Y2415D02*
X2226Y2415D01*
X1622Y2414D02*
X1664Y2414D01*
X2210Y2414D02*
X2226Y2414D01*
X1625Y2413D02*
X1666Y2413D01*
X2211Y2413D02*
X2226Y2413D01*
X1627Y2412D02*
X1669Y2412D01*
X2211Y2412D02*
X2227Y2412D01*
X1630Y2411D02*
X1671Y2411D01*
X2211Y2411D02*
X2227Y2411D01*
X1633Y2410D02*
X1673Y2410D01*
X2212Y2410D02*
X2227Y2410D01*
X1635Y2409D02*
X1675Y2409D01*
X2212Y2409D02*
X2228Y2409D01*
X1638Y2408D02*
X1677Y2408D01*
X2212Y2408D02*
X2228Y2408D01*
X1640Y2407D02*
X1680Y2407D01*
X2213Y2407D02*
X2228Y2407D01*
X1643Y2406D02*
X1682Y2406D01*
X2213Y2406D02*
X2229Y2406D01*
X1645Y2405D02*
X1684Y2405D01*
X2213Y2405D02*
X2229Y2405D01*
X1648Y2404D02*
X1686Y2404D01*
X2214Y2404D02*
X2229Y2404D01*
X1650Y2403D02*
X1688Y2403D01*
X2214Y2403D02*
X2229Y2403D01*
X1652Y2402D02*
X1690Y2402D01*
X2214Y2402D02*
X2230Y2402D01*
X1655Y2401D02*
X1692Y2401D01*
X2214Y2401D02*
X2230Y2401D01*
X1657Y2400D02*
X1694Y2400D01*
X2215Y2400D02*
X2230Y2400D01*
X1659Y2399D02*
X1696Y2399D01*
X2215Y2399D02*
X2230Y2399D01*
X1662Y2398D02*
X1698Y2398D01*
X2215Y2398D02*
X2231Y2398D01*
X1664Y2397D02*
X1700Y2397D01*
X2215Y2397D02*
X2231Y2397D01*
X1666Y2396D02*
X1702Y2396D01*
X2216Y2396D02*
X2231Y2396D01*
X1668Y2395D02*
X1705Y2395D01*
X2216Y2395D02*
X2232Y2395D01*
X1670Y2394D02*
X1706Y2394D01*
X2216Y2394D02*
X2232Y2394D01*
X1673Y2393D02*
X1708Y2393D01*
X2217Y2393D02*
X2232Y2393D01*
X1675Y2392D02*
X1710Y2392D01*
X2217Y2392D02*
X2232Y2392D01*
X1677Y2391D02*
X1712Y2391D01*
X2217Y2391D02*
X2233Y2391D01*
X1679Y2390D02*
X1714Y2390D01*
X2217Y2390D02*
X2233Y2390D01*
X1681Y2389D02*
X1716Y2389D01*
X2218Y2389D02*
X2233Y2389D01*
X1683Y2388D02*
X1718Y2388D01*
X2218Y2388D02*
X2233Y2388D01*
X1685Y2387D02*
X1720Y2387D01*
X2218Y2387D02*
X2234Y2387D01*
X1687Y2386D02*
X1722Y2386D01*
X2218Y2386D02*
X2234Y2386D01*
X1690Y2385D02*
X1724Y2385D01*
X2219Y2385D02*
X2234Y2385D01*
X1692Y2384D02*
X1726Y2384D01*
X2219Y2384D02*
X2234Y2384D01*
X1694Y2383D02*
X1727Y2383D01*
X2219Y2383D02*
X2235Y2383D01*
X1696Y2382D02*
X1729Y2382D01*
X2219Y2382D02*
X2235Y2382D01*
X1698Y2381D02*
X1731Y2381D01*
X2220Y2381D02*
X2235Y2381D01*
X1700Y2380D02*
X1733Y2380D01*
X2220Y2380D02*
X2235Y2380D01*
X1702Y2379D02*
X1734Y2379D01*
X2220Y2379D02*
X2236Y2379D01*
X1704Y2378D02*
X1736Y2378D01*
X2221Y2378D02*
X2236Y2378D01*
X1705Y2377D02*
X1738Y2377D01*
X2221Y2377D02*
X2236Y2377D01*
X1707Y2376D02*
X1740Y2376D01*
X2221Y2376D02*
X2236Y2376D01*
X1709Y2375D02*
X1742Y2375D01*
X2221Y2375D02*
X2237Y2375D01*
X1711Y2374D02*
X1743Y2374D01*
X2221Y2374D02*
X2237Y2374D01*
X1713Y2373D02*
X1745Y2373D01*
X2222Y2373D02*
X2237Y2373D01*
X1715Y2372D02*
X1747Y2372D01*
X2222Y2372D02*
X2237Y2372D01*
X1717Y2371D02*
X1749Y2371D01*
X2222Y2371D02*
X2238Y2371D01*
X1719Y2370D02*
X1750Y2370D01*
X2222Y2370D02*
X2238Y2370D01*
X1721Y2369D02*
X1752Y2369D01*
X2223Y2369D02*
X2238Y2369D01*
X1722Y2368D02*
X1754Y2368D01*
X2223Y2368D02*
X2238Y2368D01*
X1724Y2367D02*
X1755Y2367D01*
X2223Y2367D02*
X2239Y2367D01*
X1726Y2366D02*
X1757Y2366D01*
X2223Y2366D02*
X2239Y2366D01*
X1728Y2365D02*
X1759Y2365D01*
X2224Y2365D02*
X2239Y2365D01*
X1730Y2364D02*
X1760Y2364D01*
X2224Y2364D02*
X2239Y2364D01*
X1731Y2363D02*
X1762Y2363D01*
X2224Y2363D02*
X2239Y2363D01*
X1733Y2362D02*
X1764Y2362D01*
X2224Y2362D02*
X2240Y2362D01*
X1735Y2361D02*
X1765Y2361D01*
X2224Y2361D02*
X2240Y2361D01*
X1737Y2360D02*
X1767Y2360D01*
X2225Y2360D02*
X2240Y2360D01*
X1738Y2359D02*
X1769Y2359D01*
X2225Y2359D02*
X2240Y2359D01*
X1740Y2358D02*
X1770Y2358D01*
X2225Y2358D02*
X2241Y2358D01*
X1742Y2357D02*
X1772Y2357D01*
X2225Y2357D02*
X2241Y2357D01*
X1744Y2356D02*
X1773Y2356D01*
X2226Y2356D02*
X2241Y2356D01*
X1745Y2355D02*
X1775Y2355D01*
X2226Y2355D02*
X2241Y2355D01*
X1747Y2354D02*
X1776Y2354D01*
X2226Y2354D02*
X2241Y2354D01*
X1749Y2353D02*
X1778Y2353D01*
X2226Y2353D02*
X2242Y2353D01*
X1750Y2352D02*
X1779Y2352D01*
X2226Y2352D02*
X2242Y2352D01*
X1752Y2351D02*
X1781Y2351D01*
X2227Y2351D02*
X2242Y2351D01*
X1754Y2350D02*
X1782Y2350D01*
X2227Y2350D02*
X2242Y2350D01*
X1755Y2349D02*
X1784Y2349D01*
X2227Y2349D02*
X2242Y2349D01*
X1757Y2348D02*
X1786Y2348D01*
X2227Y2348D02*
X2243Y2348D01*
X1758Y2347D02*
X1787Y2347D01*
X2227Y2347D02*
X2243Y2347D01*
X1760Y2346D02*
X1789Y2346D01*
X2228Y2346D02*
X2243Y2346D01*
X1762Y2345D02*
X1790Y2345D01*
X2228Y2345D02*
X2243Y2345D01*
X1763Y2344D02*
X1792Y2344D01*
X2228Y2344D02*
X2243Y2344D01*
X1765Y2343D02*
X1793Y2343D01*
X2228Y2343D02*
X2244Y2343D01*
X1766Y2342D02*
X1795Y2342D01*
X2228Y2342D02*
X2244Y2342D01*
X1768Y2341D02*
X1796Y2341D01*
X2229Y2341D02*
X2244Y2341D01*
X1770Y2340D02*
X1798Y2340D01*
X2229Y2340D02*
X2244Y2340D01*
X1771Y2339D02*
X1799Y2339D01*
X2229Y2339D02*
X2244Y2339D01*
X1773Y2338D02*
X1800Y2338D01*
X2229Y2338D02*
X2244Y2338D01*
X1774Y2337D02*
X1802Y2337D01*
X2229Y2337D02*
X2245Y2337D01*
X1776Y2336D02*
X1803Y2336D01*
X2230Y2336D02*
X2245Y2336D01*
X1777Y2335D02*
X1805Y2335D01*
X2230Y2335D02*
X2245Y2335D01*
X1779Y2334D02*
X1806Y2334D01*
X2230Y2334D02*
X2245Y2334D01*
X1780Y2333D02*
X1808Y2333D01*
X2230Y2333D02*
X2245Y2333D01*
X1782Y2332D02*
X1809Y2332D01*
X2230Y2332D02*
X2245Y2332D01*
X1783Y2331D02*
X1810Y2331D01*
X2230Y2331D02*
X2246Y2331D01*
X1785Y2330D02*
X1812Y2330D01*
X2231Y2330D02*
X2246Y2330D01*
X1786Y2329D02*
X1813Y2329D01*
X2231Y2329D02*
X2246Y2329D01*
X1788Y2328D02*
X1815Y2328D01*
X2231Y2328D02*
X2246Y2328D01*
X1789Y2327D02*
X1816Y2327D01*
X2231Y2327D02*
X2246Y2327D01*
X1791Y2326D02*
X1818Y2326D01*
X2231Y2326D02*
X2247Y2326D01*
X1792Y2325D02*
X1819Y2325D01*
X2231Y2325D02*
X2247Y2325D01*
X1794Y2324D02*
X1820Y2324D01*
X2232Y2324D02*
X2247Y2324D01*
X1795Y2323D02*
X1822Y2323D01*
X2232Y2323D02*
X2247Y2323D01*
X1796Y2322D02*
X1823Y2322D01*
X2232Y2322D02*
X2247Y2322D01*
X1798Y2321D02*
X1824Y2321D01*
X2232Y2321D02*
X2247Y2321D01*
X1799Y2320D02*
X1826Y2320D01*
X2232Y2320D02*
X2247Y2320D01*
X1801Y2319D02*
X1827Y2319D01*
X2232Y2319D02*
X2248Y2319D01*
X1802Y2318D02*
X1828Y2318D01*
X2233Y2318D02*
X2248Y2318D01*
X1804Y2317D02*
X1830Y2317D01*
X2233Y2317D02*
X2248Y2317D01*
X1805Y2316D02*
X1831Y2316D01*
X2233Y2316D02*
X2248Y2316D01*
X1806Y2315D02*
X1832Y2315D01*
X2233Y2315D02*
X2248Y2315D01*
X1808Y2314D02*
X1834Y2314D01*
X2233Y2314D02*
X2248Y2314D01*
X1809Y2313D02*
X1835Y2313D01*
X2233Y2313D02*
X2248Y2313D01*
X1811Y2312D02*
X1836Y2312D01*
X2233Y2312D02*
X2249Y2312D01*
X1812Y2311D02*
X1838Y2311D01*
X2234Y2311D02*
X2249Y2311D01*
X1813Y2310D02*
X1839Y2310D01*
X2234Y2310D02*
X2249Y2310D01*
X1815Y2309D02*
X1840Y2309D01*
X2234Y2309D02*
X2249Y2309D01*
X1816Y2308D02*
X1841Y2308D01*
X2234Y2308D02*
X2249Y2308D01*
X1817Y2307D02*
X1843Y2307D01*
X2234Y2307D02*
X2249Y2307D01*
X1819Y2306D02*
X1844Y2306D01*
X2234Y2306D02*
X2249Y2306D01*
X1820Y2305D02*
X1845Y2305D01*
X2234Y2305D02*
X2250Y2305D01*
X1821Y2304D02*
X1846Y2304D01*
X2235Y2304D02*
X2250Y2304D01*
X1823Y2303D02*
X1848Y2303D01*
X2235Y2303D02*
X2250Y2303D01*
X1824Y2302D02*
X1849Y2302D01*
X2235Y2302D02*
X2250Y2302D01*
X1825Y2301D02*
X1850Y2301D01*
X2235Y2301D02*
X2250Y2301D01*
X1827Y2300D02*
X1851Y2300D01*
X2235Y2300D02*
X2250Y2300D01*
X1828Y2299D02*
X1853Y2299D01*
X2235Y2299D02*
X2250Y2299D01*
X1829Y2298D02*
X1854Y2298D01*
X2235Y2298D02*
X2250Y2298D01*
X1830Y2297D02*
X1855Y2297D01*
X2235Y2297D02*
X2250Y2297D01*
X1832Y2296D02*
X1856Y2296D01*
X2236Y2296D02*
X2251Y2296D01*
X1833Y2295D02*
X1857Y2295D01*
X2236Y2295D02*
X2251Y2295D01*
X1834Y2294D02*
X1859Y2294D01*
X2236Y2294D02*
X2251Y2294D01*
X1836Y2293D02*
X1860Y2293D01*
X2236Y2293D02*
X2251Y2293D01*
X1837Y2292D02*
X1861Y2292D01*
X2236Y2292D02*
X2251Y2292D01*
X1838Y2291D02*
X1862Y2291D01*
X2236Y2291D02*
X2251Y2291D01*
X1839Y2290D02*
X1864Y2290D01*
X2236Y2290D02*
X2251Y2290D01*
X1841Y2289D02*
X1865Y2289D01*
X2236Y2289D02*
X2251Y2289D01*
X1842Y2288D02*
X1866Y2288D01*
X2236Y2288D02*
X2251Y2288D01*
X1843Y2287D02*
X1867Y2287D01*
X2236Y2287D02*
X2252Y2287D01*
X1844Y2286D02*
X1868Y2286D01*
X2237Y2286D02*
X2252Y2286D01*
X1845Y2285D02*
X1869Y2285D01*
X2237Y2285D02*
X2252Y2285D01*
X1847Y2284D02*
X1871Y2284D01*
X2237Y2284D02*
X2252Y2284D01*
X1848Y2283D02*
X1872Y2283D01*
X2237Y2283D02*
X2252Y2283D01*
X1849Y2282D02*
X1873Y2282D01*
X2237Y2282D02*
X2252Y2282D01*
X1850Y2281D02*
X1874Y2281D01*
X2237Y2281D02*
X2252Y2281D01*
X1852Y2280D02*
X1875Y2280D01*
X2237Y2280D02*
X2252Y2280D01*
X1853Y2279D02*
X1876Y2279D01*
X2237Y2279D02*
X2252Y2279D01*
X1854Y2278D02*
X1877Y2278D01*
X2237Y2278D02*
X2252Y2278D01*
X1855Y2277D02*
X1879Y2277D01*
X2237Y2277D02*
X2252Y2277D01*
X1856Y2276D02*
X1880Y2276D01*
X2237Y2276D02*
X2252Y2276D01*
X1857Y2275D02*
X1881Y2275D01*
X2237Y2275D02*
X2252Y2275D01*
X1859Y2274D02*
X1882Y2274D01*
X2237Y2274D02*
X2252Y2274D01*
X1860Y2273D02*
X1883Y2273D01*
X2237Y2273D02*
X2253Y2273D01*
X1861Y2272D02*
X1884Y2272D01*
X2238Y2272D02*
X2253Y2272D01*
X1862Y2271D02*
X1885Y2271D01*
X2238Y2271D02*
X2253Y2271D01*
X1863Y2270D02*
X1886Y2270D01*
X2238Y2270D02*
X2253Y2270D01*
X1864Y2269D02*
X1887Y2269D01*
X2238Y2269D02*
X2253Y2269D01*
X1866Y2268D02*
X1889Y2268D01*
X2238Y2268D02*
X2253Y2268D01*
X1867Y2267D02*
X1890Y2267D01*
X2238Y2267D02*
X2253Y2267D01*
X1868Y2266D02*
X1891Y2266D01*
X2238Y2266D02*
X2253Y2266D01*
X1869Y2265D02*
X1892Y2265D01*
X2238Y2265D02*
X2253Y2265D01*
X1870Y2264D02*
X1893Y2264D01*
X2238Y2264D02*
X2253Y2264D01*
X1871Y2263D02*
X1894Y2263D01*
X2238Y2263D02*
X2253Y2263D01*
X1872Y2262D02*
X1895Y2262D01*
X2238Y2262D02*
X2253Y2262D01*
X1873Y2261D02*
X1896Y2261D01*
X2238Y2261D02*
X2253Y2261D01*
X1875Y2260D02*
X1897Y2260D01*
X2238Y2260D02*
X2253Y2260D01*
X1876Y2259D02*
X1898Y2259D01*
X2238Y2259D02*
X2253Y2259D01*
X1877Y2258D02*
X1899Y2258D01*
X2238Y2258D02*
X2253Y2258D01*
X1878Y2257D02*
X1900Y2257D01*
X2238Y2257D02*
X2253Y2257D01*
X1879Y2256D02*
X1901Y2256D01*
X2238Y2256D02*
X2253Y2256D01*
X1880Y2255D02*
X1902Y2255D01*
X2239Y2255D02*
X2252Y2255D01*
X1881Y2254D02*
X1903Y2254D01*
X2239Y2254D02*
X2252Y2254D01*
X1882Y2253D02*
X1904Y2253D01*
X2240Y2253D02*
X2251Y2253D01*
X1883Y2252D02*
X1905Y2252D01*
X2241Y2252D02*
X2250Y2252D01*
X1884Y2251D02*
X1907Y2251D01*
X2243Y2251D02*
X2249Y2251D01*
X1885Y2250D02*
X1908Y2250D01*
X1887Y2249D02*
X1909Y2249D01*
X1888Y2248D02*
X1910Y2248D01*
X1889Y2247D02*
X1911Y2247D01*
X1890Y2246D02*
X1912Y2246D01*
X1891Y2245D02*
X1913Y2245D01*
X1892Y2244D02*
X1914Y2244D01*
X1893Y2243D02*
X1915Y2243D01*
X1894Y2242D02*
X1916Y2242D01*
X1895Y2241D02*
X1917Y2241D01*
X1896Y2240D02*
X1918Y2240D01*
X1897Y2239D02*
X1919Y2239D01*
X1898Y2238D02*
X1920Y2238D01*
X1899Y2237D02*
X1921Y2237D01*
X1900Y2236D02*
X1922Y2236D01*
X1901Y2235D02*
X1922Y2235D01*
X1902Y2234D02*
X1923Y2234D01*
X1903Y2233D02*
X1924Y2233D01*
X1904Y2232D02*
X1925Y2232D01*
X1905Y2231D02*
X1926Y2231D01*
X1906Y2230D02*
X1927Y2230D01*
X1907Y2229D02*
X1928Y2229D01*
X1908Y2228D02*
X1929Y2228D01*
X1909Y2227D02*
X1930Y2227D01*
X1910Y2226D02*
X1931Y2226D01*
X1911Y2225D02*
X1932Y2225D01*
X1912Y2224D02*
X1933Y2224D01*
X1913Y2223D02*
X1934Y2223D01*
X1914Y2222D02*
X1935Y2222D01*
X1915Y2221D02*
X1936Y2221D01*
X1916Y2220D02*
X1937Y2220D01*
X1917Y2219D02*
X1938Y2219D01*
X1918Y2218D02*
X1938Y2218D01*
X1919Y2217D02*
X1939Y2217D01*
X1920Y2216D02*
X1940Y2216D01*
X1921Y2215D02*
X1941Y2215D01*
X1922Y2214D02*
X1942Y2214D01*
X1922Y2213D02*
X1943Y2213D01*
X1923Y2212D02*
X1944Y2212D01*
X1924Y2211D02*
X1945Y2211D01*
X1925Y2210D02*
X1946Y2210D01*
X1926Y2209D02*
X1947Y2209D01*
X1927Y2208D02*
X1948Y2208D01*
X1928Y2207D02*
X1948Y2207D01*
X1929Y2206D02*
X1949Y2206D01*
X1930Y2205D02*
X1950Y2205D01*
X1931Y2204D02*
X1951Y2204D01*
X1932Y2203D02*
X1952Y2203D01*
X1933Y2202D02*
X1953Y2202D01*
X1933Y2201D02*
X1954Y2201D01*
X1934Y2200D02*
X1954Y2200D01*
X1935Y2199D02*
X1955Y2199D01*
X1936Y2198D02*
X1956Y2198D01*
X1937Y2197D02*
X1957Y2197D01*
X1938Y2196D02*
X1958Y2196D01*
X1939Y2195D02*
X1959Y2195D01*
X1940Y2194D02*
X1960Y2194D01*
X1941Y2193D02*
X1960Y2193D01*
X1941Y2192D02*
X1961Y2192D01*
X1942Y2191D02*
X1962Y2191D01*
X1943Y2190D02*
X1963Y2190D01*
X1944Y2189D02*
X1964Y2189D01*
X1945Y2188D02*
X1965Y2188D01*
X1946Y2187D02*
X1965Y2187D01*
X1947Y2186D02*
X1966Y2186D01*
X1947Y2185D02*
X1967Y2185D01*
X1948Y2184D02*
X1968Y2184D01*
X1949Y2183D02*
X1969Y2183D01*
X1950Y2182D02*
X1969Y2182D01*
X1951Y2181D02*
X1970Y2181D01*
X1952Y2180D02*
X1971Y2180D01*
X1952Y2179D02*
X1972Y2179D01*
X1953Y2178D02*
X1973Y2178D01*
X1954Y2177D02*
X1973Y2177D01*
X1955Y2176D02*
X1974Y2176D01*
X1956Y2175D02*
X1975Y2175D01*
X1957Y2174D02*
X1976Y2174D01*
X1957Y2173D02*
X1977Y2173D01*
X1958Y2172D02*
X1977Y2172D01*
X1959Y2171D02*
X1978Y2171D01*
X1960Y2170D02*
X1979Y2170D01*
X1961Y2169D02*
X1980Y2169D01*
X1961Y2168D02*
X1981Y2168D01*
X1962Y2167D02*
X1981Y2167D01*
X1963Y2166D02*
X1982Y2166D01*
X1964Y2165D02*
X1983Y2165D01*
X1965Y2164D02*
X1984Y2164D01*
X1965Y2163D02*
X1984Y2163D01*
X1966Y2162D02*
X1985Y2162D01*
X1967Y2161D02*
X1986Y2161D01*
X1968Y2160D02*
X1987Y2160D01*
X1969Y2159D02*
X1987Y2159D01*
X1969Y2158D02*
X1988Y2158D01*
X1970Y2157D02*
X1989Y2157D01*
X1971Y2156D02*
X1990Y2156D01*
X1972Y2155D02*
X1990Y2155D01*
X1972Y2154D02*
X1991Y2154D01*
X1973Y2153D02*
X1992Y2153D01*
X1974Y2152D02*
X1993Y2152D01*
X1975Y2151D02*
X1993Y2151D01*
X1975Y2150D02*
X1994Y2150D01*
X1976Y2149D02*
X1995Y2149D01*
X1977Y2148D02*
X1996Y2148D01*
X1978Y2147D02*
X1996Y2147D01*
X1978Y2146D02*
X1997Y2146D01*
X1979Y2145D02*
X1998Y2145D01*
X1980Y2144D02*
X1998Y2144D01*
X1981Y2143D02*
X1999Y2143D01*
X1981Y2142D02*
X2000Y2142D01*
X1982Y2141D02*
X2001Y2141D01*
X1983Y2140D02*
X2001Y2140D01*
X1984Y2139D02*
X2002Y2139D01*
X1984Y2138D02*
X2003Y2138D01*
X1985Y2137D02*
X2003Y2137D01*
X1986Y2136D02*
X2004Y2136D01*
X1986Y2135D02*
X2005Y2135D01*
X1987Y2134D02*
X2005Y2134D01*
X1988Y2133D02*
X2006Y2133D01*
X1989Y2132D02*
X2007Y2132D01*
X1989Y2131D02*
X2008Y2131D01*
X1990Y2130D02*
X2008Y2130D01*
X1991Y2129D02*
X2009Y2129D01*
X1991Y2128D02*
X2010Y2128D01*
X1992Y2127D02*
X2010Y2127D01*
X1993Y2126D02*
X2011Y2126D01*
X1994Y2125D02*
X2012Y2125D01*
X1994Y2124D02*
X2012Y2124D01*
X1995Y2123D02*
X2013Y2123D01*
X1996Y2122D02*
X2014Y2122D01*
X1996Y2121D02*
X2014Y2121D01*
X1997Y2120D02*
X2015Y2120D01*
X1998Y2119D02*
X2016Y2119D01*
X1998Y2118D02*
X2016Y2118D01*
X1999Y2117D02*
X2017Y2117D01*
X2000Y2116D02*
X2018Y2116D01*
X2000Y2115D02*
X2018Y2115D01*
X2001Y2114D02*
X2019Y2114D01*
X2002Y2113D02*
X2019Y2113D01*
X2002Y2112D02*
X2020Y2112D01*
X2003Y2111D02*
X2021Y2111D01*
X2004Y2110D02*
X2021Y2110D01*
X2004Y2109D02*
X2022Y2109D01*
X2005Y2108D02*
X2023Y2108D01*
X2006Y2107D02*
X2023Y2107D01*
X2006Y2106D02*
X2024Y2106D01*
X2007Y2105D02*
X2025Y2105D01*
X2008Y2104D02*
X2025Y2104D01*
X2008Y2103D02*
X2026Y2103D01*
X2009Y2102D02*
X2027Y2102D01*
X2009Y2101D02*
X2027Y2101D01*
X2010Y2100D02*
X2028Y2100D01*
X2011Y2099D02*
X2028Y2099D01*
X2011Y2098D02*
X2029Y2098D01*
X2012Y2097D02*
X2030Y2097D01*
X2013Y2096D02*
X2030Y2096D01*
X2013Y2095D02*
X2031Y2095D01*
X2014Y2094D02*
X2031Y2094D01*
X2015Y2093D02*
X2032Y2093D01*
X2015Y2092D02*
X2033Y2092D01*
X2016Y2091D02*
X2033Y2091D01*
X2016Y2090D02*
X2034Y2090D01*
X2017Y2089D02*
X2034Y2089D01*
X2018Y2088D02*
X2035Y2088D01*
X2018Y2087D02*
X2036Y2087D01*
X2019Y2086D02*
X2036Y2086D01*
X2019Y2085D02*
X2037Y2085D01*
X2020Y2084D02*
X2037Y2084D01*
X2021Y2083D02*
X2038Y2083D01*
X2021Y2082D02*
X2039Y2082D01*
X2022Y2081D02*
X2039Y2081D01*
X2022Y2080D02*
X2040Y2080D01*
X2023Y2079D02*
X2040Y2079D01*
X2024Y2078D02*
X2041Y2078D01*
X2024Y2077D02*
X2041Y2077D01*
X2025Y2076D02*
X2042Y2076D01*
X2025Y2075D02*
X2043Y2075D01*
X2026Y2074D02*
X2043Y2074D01*
X2027Y2073D02*
X2044Y2073D01*
X2027Y2072D02*
X2044Y2072D01*
X2028Y2071D02*
X2045Y2071D01*
X2028Y2070D02*
X2045Y2070D01*
X2029Y2069D02*
X2046Y2069D01*
X2029Y2068D02*
X2047Y2068D01*
X2030Y2067D02*
X2047Y2067D01*
X2031Y2066D02*
X2048Y2066D01*
X2031Y2065D02*
X2048Y2065D01*
X2032Y2064D02*
X2049Y2064D01*
X2032Y2063D02*
X2049Y2063D01*
X2033Y2062D02*
X2050Y2062D01*
X2033Y2061D02*
X2050Y2061D01*
X2034Y2060D02*
X2051Y2060D01*
X2035Y2059D02*
X2052Y2059D01*
X2035Y2058D02*
X2052Y2058D01*
X2036Y2057D02*
X2053Y2057D01*
X2036Y2056D02*
X2053Y2056D01*
X2037Y2055D02*
X2054Y2055D01*
X2037Y2054D02*
X2054Y2054D01*
X2038Y2053D02*
X2055Y2053D01*
X2038Y2052D02*
X2055Y2052D01*
X2039Y2051D02*
X2056Y2051D01*
X2039Y2050D02*
X2056Y2050D01*
X2040Y2049D02*
X2057Y2049D01*
X2041Y2048D02*
X2057Y2048D01*
X2041Y2047D02*
X2058Y2047D01*
X2042Y2046D02*
X2058Y2046D01*
X2042Y2045D02*
X2059Y2045D01*
X2043Y2044D02*
X2059Y2044D01*
X2043Y2043D02*
X2060Y2043D01*
X2044Y2042D02*
X2060Y2042D01*
X2044Y2041D02*
X2061Y2041D01*
X2045Y2040D02*
X2061Y2040D01*
X2045Y2039D02*
X2062Y2039D01*
X2046Y2038D02*
X2062Y2038D01*
X2046Y2037D02*
X2063Y2037D01*
X2047Y2036D02*
X2064Y2036D01*
X2047Y2035D02*
X2064Y2035D01*
X2048Y2034D02*
X2065Y2034D01*
X2048Y2033D02*
X2065Y2033D01*
X2049Y2032D02*
X2066Y2032D01*
X2049Y2031D02*
X2066Y2031D01*
X2050Y2030D02*
X2067Y2030D01*
X2050Y2029D02*
X2067Y2029D01*
X2051Y2028D02*
X2068Y2028D01*
X2051Y2027D02*
X2068Y2027D01*
X2052Y2026D02*
X2068Y2026D01*
X2052Y2025D02*
X2069Y2025D01*
X2053Y2024D02*
X2069Y2024D01*
X2053Y2023D02*
X2070Y2023D01*
X2054Y2022D02*
X2070Y2022D01*
X2054Y2021D02*
X2071Y2021D01*
X2055Y2020D02*
X2071Y2020D01*
X2055Y2019D02*
X2072Y2019D01*
X2056Y2018D02*
X2072Y2018D01*
X2056Y2017D02*
X2073Y2017D01*
X2057Y2016D02*
X2073Y2016D01*
X2057Y2015D02*
X2074Y2015D01*
X2058Y2014D02*
X2074Y2014D01*
X2058Y2013D02*
X2075Y2013D01*
X2059Y2012D02*
X2075Y2012D01*
X2059Y2011D02*
X2076Y2011D01*
X2060Y2010D02*
X2076Y2010D01*
X2060Y2009D02*
X2077Y2009D01*
X2061Y2008D02*
X2077Y2008D01*
X2061Y2007D02*
X2077Y2007D01*
X2061Y2006D02*
X2078Y2006D01*
X2062Y2005D02*
X2078Y2005D01*
X2062Y2004D02*
X2079Y2004D01*
X2063Y2003D02*
X2079Y2003D01*
X2063Y2002D02*
X2080Y2002D01*
X2064Y2001D02*
X2080Y2001D01*
X2064Y2000D02*
X2081Y2000D01*
X2065Y1999D02*
X2081Y1999D01*
X2065Y1998D02*
X2081Y1998D01*
X2066Y1997D02*
X2082Y1997D01*
X2066Y1996D02*
X2082Y1996D01*
X2066Y1995D02*
X2083Y1995D01*
X2067Y1994D02*
X2083Y1994D01*
X2067Y1993D02*
X2084Y1993D01*
X2068Y1992D02*
X2084Y1992D01*
X2068Y1991D02*
X2085Y1991D01*
X2069Y1990D02*
X2085Y1990D01*
X2069Y1989D02*
X2085Y1989D01*
X2070Y1988D02*
X2086Y1988D01*
X2070Y1987D02*
X2086Y1987D01*
X2070Y1986D02*
X2087Y1986D01*
X2071Y1985D02*
X2087Y1985D01*
X2071Y1984D02*
X2087Y1984D01*
X2072Y1983D02*
X2088Y1983D01*
X2072Y1982D02*
X2088Y1982D01*
X2073Y1981D02*
X2089Y1981D01*
X2073Y1980D02*
X2089Y1980D01*
X2073Y1979D02*
X2089Y1979D01*
X2074Y1978D02*
X2090Y1978D01*
X2074Y1977D02*
X2090Y1977D01*
X2075Y1976D02*
X2091Y1976D01*
X2075Y1975D02*
X2091Y1975D01*
X2075Y1974D02*
X2092Y1974D01*
X2076Y1973D02*
X2092Y1973D01*
X2076Y1972D02*
X2092Y1972D01*
X2077Y1971D02*
X2093Y1971D01*
X2077Y1970D02*
X2093Y1970D01*
X2078Y1969D02*
X2094Y1969D01*
X2078Y1968D02*
X2094Y1968D01*
X2078Y1967D02*
X2094Y1967D01*
X2079Y1966D02*
X2095Y1966D01*
X2079Y1965D02*
X2095Y1965D01*
X2080Y1964D02*
X2096Y1964D01*
X2080Y1963D02*
X2096Y1963D01*
X2080Y1962D02*
X2096Y1962D01*
X2081Y1961D02*
X2097Y1961D01*
X2081Y1960D02*
X2097Y1960D01*
X2081Y1959D02*
X2097Y1959D01*
X2082Y1958D02*
X2098Y1958D01*
X2082Y1957D02*
X2098Y1957D01*
X2083Y1956D02*
X2099Y1956D01*
X2083Y1955D02*
X2099Y1955D01*
X2083Y1954D02*
X2099Y1954D01*
X2084Y1953D02*
X2100Y1953D01*
X2084Y1952D02*
X2100Y1952D01*
X2085Y1951D02*
X2101Y1951D01*
X2085Y1950D02*
X2101Y1950D01*
X2085Y1949D02*
X2101Y1949D01*
X2086Y1948D02*
X2102Y1948D01*
X2086Y1947D02*
X2102Y1947D01*
X2086Y1946D02*
X2102Y1946D01*
X2087Y1945D02*
X2103Y1945D01*
X2087Y1944D02*
X2103Y1944D01*
X2088Y1943D02*
X2103Y1943D01*
X2088Y1942D02*
X2104Y1942D01*
X2088Y1941D02*
X2104Y1941D01*
X2089Y1940D02*
X2104Y1940D01*
X2089Y1939D02*
X2105Y1939D01*
X2089Y1938D02*
X2105Y1938D01*
X2090Y1937D02*
X2106Y1937D01*
X2090Y1936D02*
X2106Y1936D01*
X2090Y1935D02*
X2106Y1935D01*
X2091Y1934D02*
X2107Y1934D01*
X2091Y1933D02*
X2107Y1933D01*
X2091Y1932D02*
X2107Y1932D01*
X2092Y1931D02*
X2108Y1931D01*
X2092Y1930D02*
X2108Y1930D01*
X2093Y1929D02*
X2108Y1929D01*
X2093Y1928D02*
X2109Y1928D01*
X2093Y1927D02*
X2109Y1927D01*
X2094Y1926D02*
X2109Y1926D01*
X2094Y1925D02*
X2110Y1925D01*
X2094Y1924D02*
X2110Y1924D01*
X2095Y1923D02*
X2110Y1923D01*
X2095Y1922D02*
X2111Y1922D01*
X2095Y1921D02*
X2111Y1921D01*
X2096Y1920D02*
X2111Y1920D01*
X2096Y1919D02*
X2112Y1919D01*
X2096Y1918D02*
X2112Y1918D01*
X2097Y1917D02*
X2112Y1917D01*
X2097Y1916D02*
X2113Y1916D01*
X2097Y1915D02*
X2113Y1915D01*
X2098Y1914D02*
X2113Y1914D01*
X2098Y1913D02*
X2114Y1913D01*
X2098Y1912D02*
X2114Y1912D01*
X2099Y1911D02*
X2114Y1911D01*
X2099Y1910D02*
X2115Y1910D01*
X2099Y1909D02*
X2115Y1909D01*
X2100Y1908D02*
X2115Y1908D01*
X2100Y1907D02*
X2116Y1907D01*
X2100Y1906D02*
X2116Y1906D01*
X2101Y1905D02*
X2116Y1905D01*
X2101Y1904D02*
X2117Y1904D01*
X2101Y1903D02*
X2117Y1903D01*
X2102Y1902D02*
X2117Y1902D01*
X2102Y1901D02*
X2117Y1901D01*
X2102Y1900D02*
X2118Y1900D01*
X2102Y1899D02*
X2118Y1899D01*
X2103Y1898D02*
X2118Y1898D01*
X2103Y1897D02*
X2119Y1897D01*
X2103Y1896D02*
X2119Y1896D01*
X2104Y1895D02*
X2119Y1895D01*
X2104Y1894D02*
X2120Y1894D01*
X2104Y1893D02*
X2120Y1893D01*
X2105Y1892D02*
X2120Y1892D01*
X2105Y1891D02*
X2120Y1891D01*
X2105Y1890D02*
X2121Y1890D01*
X2105Y1889D02*
X2121Y1889D01*
X2106Y1888D02*
X2121Y1888D01*
X2106Y1887D02*
X2122Y1887D01*
X2106Y1886D02*
X2122Y1886D01*
X2107Y1885D02*
X2122Y1885D01*
X2107Y1884D02*
X2123Y1884D01*
X2107Y1883D02*
X2123Y1883D01*
X2107Y1882D02*
X2123Y1882D01*
X2108Y1881D02*
X2123Y1881D01*
X2108Y1880D02*
X2124Y1880D01*
X2108Y1879D02*
X2124Y1879D01*
X2109Y1878D02*
X2124Y1878D01*
X2109Y1877D02*
X2124Y1877D01*
X2109Y1876D02*
X2125Y1876D01*
X2109Y1875D02*
X2125Y1875D01*
X2110Y1874D02*
X2125Y1874D01*
X2110Y1873D02*
X2126Y1873D01*
X2110Y1872D02*
X2126Y1872D01*
X2111Y1871D02*
X2126Y1871D01*
X2111Y1870D02*
X2126Y1870D01*
X2111Y1869D02*
X2127Y1869D01*
X2111Y1868D02*
X2127Y1868D01*
X2112Y1867D02*
X2127Y1867D01*
X2112Y1866D02*
X2127Y1866D01*
X2112Y1865D02*
X2128Y1865D01*
X2112Y1864D02*
X2128Y1864D01*
X2113Y1863D02*
X2128Y1863D01*
X2113Y1862D02*
X2128Y1862D01*
X2113Y1861D02*
X2129Y1861D01*
X2114Y1860D02*
X2129Y1860D01*
X2114Y1859D02*
X2129Y1859D01*
X2114Y1858D02*
X2130Y1858D01*
X2114Y1857D02*
X2130Y1857D01*
X2115Y1856D02*
X2130Y1856D01*
X2115Y1855D02*
X2130Y1855D01*
X2115Y1854D02*
X2131Y1854D01*
X2115Y1853D02*
X2131Y1853D01*
X2116Y1852D02*
X2131Y1852D01*
X2116Y1851D02*
X2131Y1851D01*
X2116Y1850D02*
X2131Y1850D01*
X2116Y1849D02*
X2132Y1849D01*
X2117Y1848D02*
X2132Y1848D01*
X2117Y1847D02*
X2132Y1847D01*
X2117Y1846D02*
X2132Y1846D01*
X2117Y1845D02*
X2133Y1845D01*
X2118Y1844D02*
X2133Y1844D01*
X2118Y1843D02*
X2133Y1843D01*
X2118Y1842D02*
X2133Y1842D01*
X2118Y1841D02*
X2134Y1841D01*
X2118Y1840D02*
X2134Y1840D01*
X2119Y1839D02*
X2134Y1839D01*
X2119Y1838D02*
X2134Y1838D01*
X2119Y1837D02*
X2135Y1837D01*
X2119Y1836D02*
X2135Y1836D01*
X2120Y1835D02*
X2135Y1835D01*
X2120Y1834D02*
X2135Y1834D01*
X2120Y1833D02*
X2136Y1833D01*
X2120Y1832D02*
X2136Y1832D01*
X2121Y1831D02*
X2136Y1831D01*
X2121Y1830D02*
X2136Y1830D01*
X2121Y1829D02*
X2136Y1829D01*
X2121Y1828D02*
X2137Y1828D01*
X2122Y1827D02*
X2137Y1827D01*
X2122Y1826D02*
X2137Y1826D01*
X2122Y1825D02*
X2137Y1825D01*
X2122Y1824D02*
X2138Y1824D01*
X2122Y1823D02*
X2138Y1823D01*
X2123Y1822D02*
X2138Y1822D01*
X2123Y1821D02*
X2138Y1821D01*
X2123Y1820D02*
X2138Y1820D01*
X2123Y1819D02*
X2139Y1819D01*
X2123Y1818D02*
X2139Y1818D01*
X2124Y1817D02*
X2139Y1817D01*
X2124Y1816D02*
X2139Y1816D01*
X2124Y1815D02*
X2139Y1815D01*
X2124Y1814D02*
X2140Y1814D01*
X2125Y1813D02*
X2140Y1813D01*
X2125Y1812D02*
X2140Y1812D01*
X2125Y1811D02*
X2140Y1811D01*
X2125Y1810D02*
X2141Y1810D01*
X2125Y1809D02*
X2141Y1809D01*
X2126Y1808D02*
X2141Y1808D01*
X2126Y1807D02*
X2141Y1807D01*
X2126Y1806D02*
X2141Y1806D01*
X2126Y1805D02*
X2141Y1805D01*
X2126Y1804D02*
X2142Y1804D01*
X2127Y1803D02*
X2142Y1803D01*
X2127Y1802D02*
X2142Y1802D01*
X2127Y1801D02*
X2142Y1801D01*
X2127Y1800D02*
X2142Y1800D01*
X2127Y1799D02*
X2143Y1799D01*
X2128Y1798D02*
X2143Y1798D01*
X2128Y1797D02*
X2143Y1797D01*
X2128Y1796D02*
X2143Y1796D01*
X2128Y1795D02*
X2143Y1795D01*
X2128Y1794D02*
X2144Y1794D01*
X2128Y1793D02*
X2144Y1793D01*
X2129Y1792D02*
X2144Y1792D01*
X2129Y1791D02*
X2144Y1791D01*
X2129Y1790D02*
X2144Y1790D01*
X2129Y1789D02*
X2144Y1789D01*
X2129Y1788D02*
X2145Y1788D01*
X2130Y1787D02*
X2145Y1787D01*
X2130Y1786D02*
X2145Y1786D01*
X2130Y1785D02*
X2145Y1785D01*
X2130Y1784D02*
X2145Y1784D01*
X1713Y1783D02*
X1725Y1783D01*
X2130Y1783D02*
X2146Y1783D01*
X1706Y1782D02*
X1727Y1782D01*
X2131Y1782D02*
X2146Y1782D01*
X1701Y1781D02*
X1728Y1781D01*
X2131Y1781D02*
X2146Y1781D01*
X1696Y1780D02*
X1729Y1780D01*
X2131Y1780D02*
X2146Y1780D01*
X1691Y1779D02*
X1730Y1779D01*
X2131Y1779D02*
X2146Y1779D01*
X1687Y1778D02*
X1731Y1778D01*
X2131Y1778D02*
X2146Y1778D01*
X1683Y1777D02*
X1731Y1777D01*
X2131Y1777D02*
X2147Y1777D01*
X1679Y1776D02*
X1732Y1776D01*
X2132Y1776D02*
X2147Y1776D01*
X1675Y1775D02*
X1732Y1775D01*
X2132Y1775D02*
X2147Y1775D01*
X1671Y1774D02*
X1732Y1774D01*
X2132Y1774D02*
X2147Y1774D01*
X1668Y1773D02*
X1733Y1773D01*
X2132Y1773D02*
X2147Y1773D01*
X1664Y1772D02*
X1733Y1772D01*
X2132Y1772D02*
X2147Y1772D01*
X1661Y1771D02*
X1733Y1771D01*
X2132Y1771D02*
X2148Y1771D01*
X1658Y1770D02*
X1733Y1770D01*
X2132Y1770D02*
X2148Y1770D01*
X1655Y1769D02*
X1734Y1769D01*
X2133Y1769D02*
X2148Y1769D01*
X1652Y1768D02*
X1734Y1768D01*
X2133Y1768D02*
X2148Y1768D01*
X1649Y1767D02*
X1734Y1767D01*
X2133Y1767D02*
X2148Y1767D01*
X1646Y1766D02*
X1734Y1766D01*
X2133Y1766D02*
X2148Y1766D01*
X1643Y1765D02*
X1734Y1765D01*
X2133Y1765D02*
X2149Y1765D01*
X1640Y1764D02*
X1735Y1764D01*
X2133Y1764D02*
X2149Y1764D01*
X1638Y1763D02*
X1735Y1763D01*
X2134Y1763D02*
X2149Y1763D01*
X1635Y1762D02*
X1735Y1762D01*
X2134Y1762D02*
X2149Y1762D01*
X1633Y1761D02*
X1735Y1761D01*
X2134Y1761D02*
X2149Y1761D01*
X1630Y1760D02*
X1736Y1760D01*
X2134Y1760D02*
X2149Y1760D01*
X1628Y1759D02*
X1736Y1759D01*
X2134Y1759D02*
X2149Y1759D01*
X1625Y1758D02*
X1707Y1758D01*
X1712Y1758D02*
X1736Y1758D01*
X2134Y1758D02*
X2150Y1758D01*
X1623Y1757D02*
X1702Y1757D01*
X1713Y1757D02*
X1736Y1757D01*
X2135Y1757D02*
X2150Y1757D01*
X1620Y1756D02*
X1698Y1756D01*
X1713Y1756D02*
X1737Y1756D01*
X2135Y1756D02*
X2150Y1756D01*
X1618Y1755D02*
X1693Y1755D01*
X1713Y1755D02*
X1737Y1755D01*
X2135Y1755D02*
X2150Y1755D01*
X1616Y1754D02*
X1689Y1754D01*
X1713Y1754D02*
X1737Y1754D01*
X2135Y1754D02*
X2149Y1754D01*
X1613Y1753D02*
X1685Y1753D01*
X1714Y1753D02*
X1737Y1753D01*
X2136Y1753D02*
X2149Y1753D01*
X1611Y1752D02*
X1681Y1752D01*
X1714Y1752D02*
X1738Y1752D01*
X2136Y1752D02*
X2148Y1752D01*
X1609Y1751D02*
X1677Y1751D01*
X1714Y1751D02*
X1738Y1751D01*
X2137Y1751D02*
X2147Y1751D01*
X1607Y1750D02*
X1674Y1750D01*
X1714Y1750D02*
X1738Y1750D01*
X2138Y1750D02*
X2146Y1750D01*
X1605Y1749D02*
X1670Y1749D01*
X1715Y1749D02*
X1739Y1749D01*
X2141Y1749D02*
X2144Y1749D01*
X1603Y1748D02*
X1667Y1748D01*
X1715Y1748D02*
X1739Y1748D01*
X1600Y1747D02*
X1664Y1747D01*
X1715Y1747D02*
X1739Y1747D01*
X1598Y1746D02*
X1661Y1746D01*
X1716Y1746D02*
X1739Y1746D01*
X1596Y1745D02*
X1658Y1745D01*
X1716Y1745D02*
X1740Y1745D01*
X1594Y1744D02*
X1655Y1744D01*
X1716Y1744D02*
X1740Y1744D01*
X1592Y1743D02*
X1652Y1743D01*
X1716Y1743D02*
X1740Y1743D01*
X1590Y1742D02*
X1649Y1742D01*
X1717Y1742D02*
X1741Y1742D01*
X1588Y1741D02*
X1646Y1741D01*
X1717Y1741D02*
X1741Y1741D01*
X1586Y1740D02*
X1644Y1740D01*
X1717Y1740D02*
X1741Y1740D01*
X1585Y1739D02*
X1641Y1739D01*
X1717Y1739D02*
X1741Y1739D01*
X1583Y1738D02*
X1639Y1738D01*
X1718Y1738D02*
X1742Y1738D01*
X1581Y1737D02*
X1636Y1737D01*
X1718Y1737D02*
X1742Y1737D01*
X1579Y1736D02*
X1634Y1736D01*
X1718Y1736D02*
X1742Y1736D01*
X1577Y1735D02*
X1631Y1735D01*
X1719Y1735D02*
X1743Y1735D01*
X1575Y1734D02*
X1629Y1734D01*
X1719Y1734D02*
X1743Y1734D01*
X1573Y1733D02*
X1627Y1733D01*
X1719Y1733D02*
X1743Y1733D01*
X1572Y1732D02*
X1624Y1732D01*
X1719Y1732D02*
X1743Y1732D01*
X1570Y1731D02*
X1622Y1731D01*
X1720Y1731D02*
X1744Y1731D01*
X1568Y1730D02*
X1620Y1730D01*
X1720Y1730D02*
X1744Y1730D01*
X1566Y1729D02*
X1617Y1729D01*
X1720Y1729D02*
X1744Y1729D01*
X1565Y1728D02*
X1615Y1728D01*
X1721Y1728D02*
X1745Y1728D01*
X1563Y1727D02*
X1613Y1727D01*
X1721Y1727D02*
X1745Y1727D01*
X1561Y1726D02*
X1611Y1726D01*
X1721Y1726D02*
X1745Y1726D01*
X1559Y1725D02*
X1609Y1725D01*
X1721Y1725D02*
X1746Y1725D01*
X1558Y1724D02*
X1607Y1724D01*
X1722Y1724D02*
X1746Y1724D01*
X1556Y1723D02*
X1605Y1723D01*
X1722Y1723D02*
X1746Y1723D01*
X1555Y1722D02*
X1603Y1722D01*
X1722Y1722D02*
X1747Y1722D01*
X1553Y1721D02*
X1601Y1721D01*
X1723Y1721D02*
X1747Y1721D01*
X1552Y1720D02*
X1599Y1720D01*
X1723Y1720D02*
X1747Y1720D01*
X1550Y1719D02*
X1597Y1719D01*
X1723Y1719D02*
X1747Y1719D01*
X1548Y1718D02*
X1595Y1718D01*
X1724Y1718D02*
X1748Y1718D01*
X1547Y1717D02*
X1593Y1717D01*
X1724Y1717D02*
X1748Y1717D01*
X1545Y1716D02*
X1591Y1716D01*
X1724Y1716D02*
X1748Y1716D01*
X1544Y1715D02*
X1589Y1715D01*
X1725Y1715D02*
X1749Y1715D01*
X1542Y1714D02*
X1587Y1714D01*
X1725Y1714D02*
X1749Y1714D01*
X1541Y1713D02*
X1586Y1713D01*
X1725Y1713D02*
X1749Y1713D01*
X1539Y1712D02*
X1584Y1712D01*
X1726Y1712D02*
X1750Y1712D01*
X1538Y1711D02*
X1582Y1711D01*
X1726Y1711D02*
X1750Y1711D01*
X1536Y1710D02*
X1580Y1710D01*
X1726Y1710D02*
X1750Y1710D01*
X1535Y1709D02*
X1579Y1709D01*
X1726Y1709D02*
X1751Y1709D01*
X1533Y1708D02*
X1577Y1708D01*
X1727Y1708D02*
X1751Y1708D01*
X1532Y1707D02*
X1575Y1707D01*
X1727Y1707D02*
X1751Y1707D01*
X1530Y1706D02*
X1574Y1706D01*
X1727Y1706D02*
X1752Y1706D01*
X1529Y1705D02*
X1572Y1705D01*
X1728Y1705D02*
X1752Y1705D01*
X1528Y1704D02*
X1570Y1704D01*
X1728Y1704D02*
X1752Y1704D01*
X1526Y1703D02*
X1569Y1703D01*
X1728Y1703D02*
X1753Y1703D01*
X1525Y1702D02*
X1567Y1702D01*
X1729Y1702D02*
X1753Y1702D01*
X1523Y1701D02*
X1565Y1701D01*
X1729Y1701D02*
X1753Y1701D01*
X1522Y1700D02*
X1564Y1700D01*
X1729Y1700D02*
X1754Y1700D01*
X1521Y1699D02*
X1562Y1699D01*
X1730Y1699D02*
X1754Y1699D01*
X1519Y1698D02*
X1561Y1698D01*
X1730Y1698D02*
X1754Y1698D01*
X1518Y1697D02*
X1559Y1697D01*
X1730Y1697D02*
X1755Y1697D01*
X1517Y1696D02*
X1557Y1696D01*
X1731Y1696D02*
X1755Y1696D01*
X1515Y1695D02*
X1556Y1695D01*
X1731Y1695D02*
X1755Y1695D01*
X1514Y1694D02*
X1554Y1694D01*
X1731Y1694D02*
X1756Y1694D01*
X1513Y1693D02*
X1553Y1693D01*
X1732Y1693D02*
X1756Y1693D01*
X1511Y1692D02*
X1551Y1692D01*
X1732Y1692D02*
X1757Y1692D01*
X1510Y1691D02*
X1550Y1691D01*
X1732Y1691D02*
X1757Y1691D01*
X1509Y1690D02*
X1549Y1690D01*
X1733Y1690D02*
X1757Y1690D01*
X1508Y1689D02*
X1547Y1689D01*
X1733Y1689D02*
X1758Y1689D01*
X1506Y1688D02*
X1546Y1688D01*
X1734Y1688D02*
X1758Y1688D01*
X1505Y1687D02*
X1544Y1687D01*
X1734Y1687D02*
X1758Y1687D01*
X1504Y1686D02*
X1543Y1686D01*
X1734Y1686D02*
X1759Y1686D01*
X1502Y1685D02*
X1541Y1685D01*
X1735Y1685D02*
X1759Y1685D01*
X1501Y1684D02*
X1540Y1684D01*
X1735Y1684D02*
X1759Y1684D01*
X1500Y1683D02*
X1538Y1683D01*
X1735Y1683D02*
X1760Y1683D01*
X1499Y1682D02*
X1537Y1682D01*
X1736Y1682D02*
X1760Y1682D01*
X1498Y1681D02*
X1536Y1681D01*
X1736Y1681D02*
X1760Y1681D01*
X1496Y1680D02*
X1534Y1680D01*
X1736Y1680D02*
X1761Y1680D01*
X1495Y1679D02*
X1533Y1679D01*
X1737Y1679D02*
X1761Y1679D01*
X1494Y1678D02*
X1532Y1678D01*
X1737Y1678D02*
X1762Y1678D01*
X1493Y1677D02*
X1530Y1677D01*
X1737Y1677D02*
X1762Y1677D01*
X1492Y1676D02*
X1529Y1676D01*
X1738Y1676D02*
X1762Y1676D01*
X1490Y1675D02*
X1528Y1675D01*
X1738Y1675D02*
X1763Y1675D01*
X1489Y1674D02*
X1526Y1674D01*
X1738Y1674D02*
X1763Y1674D01*
X1488Y1673D02*
X1525Y1673D01*
X1739Y1673D02*
X1763Y1673D01*
X1487Y1672D02*
X1524Y1672D01*
X1739Y1672D02*
X1764Y1672D01*
X1486Y1671D02*
X1522Y1671D01*
X1740Y1671D02*
X1764Y1671D01*
X1485Y1670D02*
X1521Y1670D01*
X1740Y1670D02*
X1765Y1670D01*
X1484Y1669D02*
X1520Y1669D01*
X1740Y1669D02*
X1765Y1669D01*
X1482Y1668D02*
X1519Y1668D01*
X1741Y1668D02*
X1765Y1668D01*
X1481Y1667D02*
X1517Y1667D01*
X1741Y1667D02*
X1766Y1667D01*
X1480Y1666D02*
X1516Y1666D01*
X1741Y1666D02*
X1766Y1666D01*
X1479Y1665D02*
X1515Y1665D01*
X1742Y1665D02*
X1766Y1665D01*
X1478Y1664D02*
X1514Y1664D01*
X1742Y1664D02*
X1767Y1664D01*
X1477Y1663D02*
X1512Y1663D01*
X1743Y1663D02*
X1767Y1663D01*
X1476Y1662D02*
X1511Y1662D01*
X1743Y1662D02*
X1768Y1662D01*
X1475Y1661D02*
X1510Y1661D01*
X1743Y1661D02*
X1768Y1661D01*
X1474Y1660D02*
X1509Y1660D01*
X1744Y1660D02*
X1768Y1660D01*
X1473Y1659D02*
X1508Y1659D01*
X1744Y1659D02*
X1769Y1659D01*
X1472Y1658D02*
X1506Y1658D01*
X1744Y1658D02*
X1769Y1658D01*
X1470Y1657D02*
X1505Y1657D01*
X1745Y1657D02*
X1770Y1657D01*
X1469Y1656D02*
X1504Y1656D01*
X1745Y1656D02*
X1770Y1656D01*
X1468Y1655D02*
X1503Y1655D01*
X1746Y1655D02*
X1770Y1655D01*
X1467Y1654D02*
X1502Y1654D01*
X1746Y1654D02*
X1771Y1654D01*
X1466Y1653D02*
X1501Y1653D01*
X1746Y1653D02*
X1771Y1653D01*
X1465Y1652D02*
X1499Y1652D01*
X1747Y1652D02*
X1772Y1652D01*
X1464Y1651D02*
X1498Y1651D01*
X1747Y1651D02*
X1772Y1651D01*
X1463Y1650D02*
X1497Y1650D01*
X1748Y1650D02*
X1773Y1650D01*
X1462Y1649D02*
X1496Y1649D01*
X1748Y1649D02*
X1773Y1649D01*
X1461Y1648D02*
X1495Y1648D01*
X1748Y1648D02*
X1773Y1648D01*
X1460Y1647D02*
X1494Y1647D01*
X1749Y1647D02*
X1774Y1647D01*
X1459Y1646D02*
X1493Y1646D01*
X1749Y1646D02*
X1774Y1646D01*
X1458Y1645D02*
X1492Y1645D01*
X1750Y1645D02*
X1775Y1645D01*
X1457Y1644D02*
X1491Y1644D01*
X1750Y1644D02*
X1775Y1644D01*
X1456Y1643D02*
X1489Y1643D01*
X1750Y1643D02*
X1775Y1643D01*
X1455Y1642D02*
X1488Y1642D01*
X1751Y1642D02*
X1776Y1642D01*
X1454Y1641D02*
X1487Y1641D01*
X1751Y1641D02*
X1776Y1641D01*
X1453Y1640D02*
X1486Y1640D01*
X1752Y1640D02*
X1777Y1640D01*
X1452Y1639D02*
X1485Y1639D01*
X1752Y1639D02*
X1777Y1639D01*
X1451Y1638D02*
X1484Y1638D01*
X1753Y1638D02*
X1778Y1638D01*
X1450Y1637D02*
X1483Y1637D01*
X1753Y1637D02*
X1778Y1637D01*
X1449Y1636D02*
X1482Y1636D01*
X1753Y1636D02*
X1778Y1636D01*
X1448Y1635D02*
X1481Y1635D01*
X1754Y1635D02*
X1779Y1635D01*
X1447Y1634D02*
X1480Y1634D01*
X1754Y1634D02*
X1779Y1634D01*
X1447Y1633D02*
X1479Y1633D01*
X1755Y1633D02*
X1780Y1633D01*
X1446Y1632D02*
X1478Y1632D01*
X1755Y1632D02*
X1780Y1632D01*
X1445Y1631D02*
X1477Y1631D01*
X1755Y1631D02*
X1781Y1631D01*
X1444Y1630D02*
X1476Y1630D01*
X1756Y1630D02*
X1781Y1630D01*
X1443Y1629D02*
X1475Y1629D01*
X1756Y1629D02*
X1782Y1629D01*
X1442Y1628D02*
X1474Y1628D01*
X1757Y1628D02*
X1782Y1628D01*
X1441Y1627D02*
X1473Y1627D01*
X1757Y1627D02*
X1782Y1627D01*
X1440Y1626D02*
X1472Y1626D01*
X1758Y1626D02*
X1783Y1626D01*
X1439Y1625D02*
X1471Y1625D01*
X1758Y1625D02*
X1783Y1625D01*
X1438Y1624D02*
X1470Y1624D01*
X1758Y1624D02*
X1784Y1624D01*
X1437Y1623D02*
X1469Y1623D01*
X1759Y1623D02*
X1784Y1623D01*
X1436Y1622D02*
X1468Y1622D01*
X1759Y1622D02*
X1785Y1622D01*
X1436Y1621D02*
X1467Y1621D01*
X1760Y1621D02*
X1785Y1621D01*
X1435Y1620D02*
X1466Y1620D01*
X1760Y1620D02*
X1786Y1620D01*
X1434Y1619D02*
X1465Y1619D01*
X1761Y1619D02*
X1786Y1619D01*
X1433Y1618D02*
X1464Y1618D01*
X1761Y1618D02*
X1786Y1618D01*
X1432Y1617D02*
X1463Y1617D01*
X1762Y1617D02*
X1787Y1617D01*
X1431Y1616D02*
X1462Y1616D01*
X1762Y1616D02*
X1787Y1616D01*
X1430Y1615D02*
X1461Y1615D01*
X1762Y1615D02*
X1788Y1615D01*
X1429Y1614D02*
X1461Y1614D01*
X1763Y1614D02*
X1788Y1614D01*
X1429Y1613D02*
X1460Y1613D01*
X1763Y1613D02*
X1789Y1613D01*
X1428Y1612D02*
X1459Y1612D01*
X1764Y1612D02*
X1789Y1612D01*
X1427Y1611D02*
X1458Y1611D01*
X1764Y1611D02*
X1790Y1611D01*
X1426Y1610D02*
X1457Y1610D01*
X1765Y1610D02*
X1790Y1610D01*
X1425Y1609D02*
X1456Y1609D01*
X1765Y1609D02*
X1791Y1609D01*
X1424Y1608D02*
X1455Y1608D01*
X1766Y1608D02*
X1791Y1608D01*
X1424Y1607D02*
X1454Y1607D01*
X1766Y1607D02*
X1792Y1607D01*
X1423Y1606D02*
X1453Y1606D01*
X1767Y1606D02*
X1792Y1606D01*
X1422Y1605D02*
X1452Y1605D01*
X1767Y1605D02*
X1793Y1605D01*
X1421Y1604D02*
X1452Y1604D01*
X1767Y1604D02*
X1793Y1604D01*
X1420Y1603D02*
X1451Y1603D01*
X1768Y1603D02*
X1793Y1603D01*
X1419Y1602D02*
X1450Y1602D01*
X1768Y1602D02*
X1794Y1602D01*
X1419Y1601D02*
X1449Y1601D01*
X1769Y1601D02*
X1794Y1601D01*
X1418Y1600D02*
X1448Y1600D01*
X1769Y1600D02*
X1795Y1600D01*
X1417Y1599D02*
X1447Y1599D01*
X1770Y1599D02*
X1795Y1599D01*
X1416Y1598D02*
X1446Y1598D01*
X1770Y1598D02*
X1796Y1598D01*
X1415Y1597D02*
X1445Y1597D01*
X1771Y1597D02*
X1796Y1597D01*
X1415Y1596D02*
X1445Y1596D01*
X1771Y1596D02*
X1797Y1596D01*
X1414Y1595D02*
X1444Y1595D01*
X1772Y1595D02*
X1797Y1595D01*
X1413Y1594D02*
X1443Y1594D01*
X1772Y1594D02*
X1798Y1594D01*
X1412Y1593D02*
X1442Y1593D01*
X1773Y1593D02*
X1798Y1593D01*
X1411Y1592D02*
X1441Y1592D01*
X1773Y1592D02*
X1799Y1592D01*
X1411Y1591D02*
X1440Y1591D01*
X1774Y1591D02*
X1799Y1591D01*
X1410Y1590D02*
X1440Y1590D01*
X1774Y1590D02*
X1800Y1590D01*
X1409Y1589D02*
X1439Y1589D01*
X1775Y1589D02*
X1800Y1589D01*
X1408Y1588D02*
X1438Y1588D01*
X1775Y1588D02*
X1801Y1588D01*
X1408Y1587D02*
X1437Y1587D01*
X1776Y1587D02*
X1801Y1587D01*
X1407Y1586D02*
X1436Y1586D01*
X1776Y1586D02*
X1802Y1586D01*
X1406Y1585D02*
X1435Y1585D01*
X1777Y1585D02*
X1802Y1585D01*
X1405Y1584D02*
X1435Y1584D01*
X1777Y1584D02*
X1803Y1584D01*
X1405Y1583D02*
X1434Y1583D01*
X1778Y1583D02*
X1803Y1583D01*
X1404Y1582D02*
X1433Y1582D01*
X1778Y1582D02*
X1804Y1582D01*
X1403Y1581D02*
X1432Y1581D01*
X1779Y1581D02*
X1804Y1581D01*
X1402Y1580D02*
X1431Y1580D01*
X1779Y1580D02*
X1805Y1580D01*
X1402Y1579D02*
X1431Y1579D01*
X1780Y1579D02*
X1805Y1579D01*
X1401Y1578D02*
X1430Y1578D01*
X1780Y1578D02*
X1806Y1578D01*
X1400Y1577D02*
X1429Y1577D01*
X1781Y1577D02*
X1806Y1577D01*
X1399Y1576D02*
X1428Y1576D01*
X1781Y1576D02*
X1807Y1576D01*
X1399Y1575D02*
X1428Y1575D01*
X1782Y1575D02*
X1808Y1575D01*
X1398Y1574D02*
X1427Y1574D01*
X1782Y1574D02*
X1808Y1574D01*
X1397Y1573D02*
X1426Y1573D01*
X1783Y1573D02*
X1809Y1573D01*
X1396Y1572D02*
X1425Y1572D01*
X1783Y1572D02*
X1809Y1572D01*
X1396Y1571D02*
X1425Y1571D01*
X1784Y1571D02*
X1810Y1571D01*
X1395Y1570D02*
X1424Y1570D01*
X1784Y1570D02*
X1810Y1570D01*
X1394Y1569D02*
X1423Y1569D01*
X1785Y1569D02*
X1811Y1569D01*
X1394Y1568D02*
X1422Y1568D01*
X1785Y1568D02*
X1811Y1568D01*
X1393Y1567D02*
X1421Y1567D01*
X1786Y1567D02*
X1812Y1567D01*
X1392Y1566D02*
X1421Y1566D01*
X1786Y1566D02*
X1812Y1566D01*
X1391Y1565D02*
X1420Y1565D01*
X1787Y1565D02*
X1813Y1565D01*
X1391Y1564D02*
X1419Y1564D01*
X1787Y1564D02*
X1813Y1564D01*
X1390Y1563D02*
X1419Y1563D01*
X1788Y1563D02*
X1814Y1563D01*
X1389Y1562D02*
X1418Y1562D01*
X1788Y1562D02*
X1814Y1562D01*
X1389Y1561D02*
X1417Y1561D01*
X1789Y1561D02*
X1815Y1561D01*
X1388Y1560D02*
X1416Y1560D01*
X1789Y1560D02*
X1816Y1560D01*
X1387Y1559D02*
X1416Y1559D01*
X1790Y1559D02*
X1816Y1559D01*
X1387Y1558D02*
X1415Y1558D01*
X1790Y1558D02*
X1817Y1558D01*
X1386Y1557D02*
X1414Y1557D01*
X1791Y1557D02*
X1817Y1557D01*
X1385Y1556D02*
X1413Y1556D01*
X1791Y1556D02*
X1818Y1556D01*
X1385Y1555D02*
X1413Y1555D01*
X1792Y1555D02*
X1818Y1555D01*
X1384Y1554D02*
X1412Y1554D01*
X1793Y1554D02*
X1819Y1554D01*
X1383Y1553D02*
X1411Y1553D01*
X1793Y1553D02*
X1819Y1553D01*
X1383Y1552D02*
X1411Y1552D01*
X1794Y1552D02*
X1820Y1552D01*
X1382Y1551D02*
X1410Y1551D01*
X1794Y1551D02*
X1821Y1551D01*
X1381Y1550D02*
X1409Y1550D01*
X1795Y1550D02*
X1821Y1550D01*
X1381Y1549D02*
X1409Y1549D01*
X1795Y1549D02*
X1822Y1549D01*
X1380Y1548D02*
X1408Y1548D01*
X1796Y1548D02*
X1822Y1548D01*
X1379Y1547D02*
X1407Y1547D01*
X1796Y1547D02*
X1823Y1547D01*
X1379Y1546D02*
X1407Y1546D01*
X1797Y1546D02*
X1823Y1546D01*
X1378Y1545D02*
X1406Y1545D01*
X1798Y1545D02*
X1824Y1545D01*
X1377Y1544D02*
X1405Y1544D01*
X1798Y1544D02*
X1825Y1544D01*
X3242Y1544D02*
X3247Y1544D01*
X1377Y1543D02*
X1404Y1543D01*
X1799Y1543D02*
X1825Y1543D01*
X3240Y1543D02*
X3249Y1543D01*
X1376Y1542D02*
X1404Y1542D01*
X1799Y1542D02*
X1826Y1542D01*
X3238Y1542D02*
X3251Y1542D01*
X1375Y1541D02*
X1403Y1541D01*
X1800Y1541D02*
X1826Y1541D01*
X3236Y1541D02*
X3252Y1541D01*
X1375Y1540D02*
X1402Y1540D01*
X1800Y1540D02*
X1827Y1540D01*
X3235Y1540D02*
X3253Y1540D01*
X1374Y1539D02*
X1402Y1539D01*
X1801Y1539D02*
X1828Y1539D01*
X3233Y1539D02*
X3254Y1539D01*
X1374Y1538D02*
X1401Y1538D01*
X1801Y1538D02*
X1828Y1538D01*
X3232Y1538D02*
X3255Y1538D01*
X1373Y1537D02*
X1400Y1537D01*
X1802Y1537D02*
X1829Y1537D01*
X3230Y1537D02*
X3255Y1537D01*
X1372Y1536D02*
X1400Y1536D01*
X1803Y1536D02*
X1829Y1536D01*
X3229Y1536D02*
X3255Y1536D01*
X1372Y1535D02*
X1399Y1535D01*
X1803Y1535D02*
X1830Y1535D01*
X3227Y1535D02*
X3256Y1535D01*
X1371Y1534D02*
X1399Y1534D01*
X1804Y1534D02*
X1830Y1534D01*
X3226Y1534D02*
X3256Y1534D01*
X1370Y1533D02*
X1398Y1533D01*
X1804Y1533D02*
X1831Y1533D01*
X3224Y1533D02*
X3256Y1533D01*
X1370Y1532D02*
X1397Y1532D01*
X1805Y1532D02*
X1832Y1532D01*
X3223Y1532D02*
X3256Y1532D01*
X1369Y1531D02*
X1397Y1531D01*
X1805Y1531D02*
X1832Y1531D01*
X3221Y1531D02*
X3256Y1531D01*
X1369Y1530D02*
X1396Y1530D01*
X1806Y1530D02*
X1833Y1530D01*
X3220Y1530D02*
X3256Y1530D01*
X1368Y1529D02*
X1395Y1529D01*
X1807Y1529D02*
X1833Y1529D01*
X3218Y1529D02*
X3255Y1529D01*
X1367Y1528D02*
X1395Y1528D01*
X1807Y1528D02*
X1834Y1528D01*
X3216Y1528D02*
X3255Y1528D01*
X1367Y1527D02*
X1394Y1527D01*
X1808Y1527D02*
X1835Y1527D01*
X3215Y1527D02*
X3255Y1527D01*
X1366Y1526D02*
X1393Y1526D01*
X1808Y1526D02*
X1835Y1526D01*
X3213Y1526D02*
X3254Y1526D01*
X1366Y1525D02*
X1393Y1525D01*
X1809Y1525D02*
X1836Y1525D01*
X3212Y1525D02*
X3253Y1525D01*
X1365Y1524D02*
X1392Y1524D01*
X1810Y1524D02*
X1837Y1524D01*
X3210Y1524D02*
X3253Y1524D01*
X1364Y1523D02*
X1391Y1523D01*
X1810Y1523D02*
X1837Y1523D01*
X3209Y1523D02*
X3251Y1523D01*
X1364Y1522D02*
X1391Y1522D01*
X1811Y1522D02*
X1838Y1522D01*
X3207Y1522D02*
X3250Y1522D01*
X1363Y1521D02*
X1390Y1521D01*
X1811Y1521D02*
X1838Y1521D01*
X3206Y1521D02*
X3249Y1521D01*
X1363Y1520D02*
X1390Y1520D01*
X1812Y1520D02*
X1839Y1520D01*
X3204Y1520D02*
X3247Y1520D01*
X1362Y1519D02*
X1389Y1519D01*
X1813Y1519D02*
X1840Y1519D01*
X3203Y1519D02*
X3246Y1519D01*
X1361Y1518D02*
X1388Y1518D01*
X1813Y1518D02*
X1840Y1518D01*
X3201Y1518D02*
X3244Y1518D01*
X1361Y1517D02*
X1388Y1517D01*
X1814Y1517D02*
X1841Y1517D01*
X3199Y1517D02*
X3243Y1517D01*
X1360Y1516D02*
X1387Y1516D01*
X1814Y1516D02*
X1842Y1516D01*
X3198Y1516D02*
X3241Y1516D01*
X1360Y1515D02*
X1387Y1515D01*
X1815Y1515D02*
X1842Y1515D01*
X3196Y1515D02*
X3239Y1515D01*
X1359Y1514D02*
X1386Y1514D01*
X1816Y1514D02*
X1843Y1514D01*
X3195Y1514D02*
X3238Y1514D01*
X1359Y1513D02*
X1385Y1513D01*
X1816Y1513D02*
X1843Y1513D01*
X3193Y1513D02*
X3236Y1513D01*
X1358Y1512D02*
X1385Y1512D01*
X1817Y1512D02*
X1844Y1512D01*
X3192Y1512D02*
X3235Y1512D01*
X1357Y1511D02*
X1384Y1511D01*
X1818Y1511D02*
X1845Y1511D01*
X3190Y1511D02*
X3233Y1511D01*
X1357Y1510D02*
X1384Y1510D01*
X1818Y1510D02*
X1845Y1510D01*
X3189Y1510D02*
X3232Y1510D01*
X1356Y1509D02*
X1383Y1509D01*
X1819Y1509D02*
X1846Y1509D01*
X3187Y1509D02*
X3230Y1509D01*
X1356Y1508D02*
X1382Y1508D01*
X1819Y1508D02*
X1847Y1508D01*
X3185Y1508D02*
X3229Y1508D01*
X1355Y1507D02*
X1382Y1507D01*
X1820Y1507D02*
X1847Y1507D01*
X3184Y1507D02*
X3227Y1507D01*
X1355Y1506D02*
X1381Y1506D01*
X1821Y1506D02*
X1848Y1506D01*
X3182Y1506D02*
X3226Y1506D01*
X1354Y1505D02*
X1381Y1505D01*
X1821Y1505D02*
X1849Y1505D01*
X3181Y1505D02*
X3224Y1505D01*
X1354Y1504D02*
X1380Y1504D01*
X1822Y1504D02*
X1849Y1504D01*
X3179Y1504D02*
X3223Y1504D01*
X1353Y1503D02*
X1379Y1503D01*
X1822Y1503D02*
X1850Y1503D01*
X3178Y1503D02*
X3221Y1503D01*
X1352Y1502D02*
X1379Y1502D01*
X1823Y1502D02*
X1851Y1502D01*
X3176Y1502D02*
X3220Y1502D01*
X1352Y1501D02*
X1378Y1501D01*
X1824Y1501D02*
X1851Y1501D01*
X3174Y1501D02*
X3218Y1501D01*
X1351Y1500D02*
X1378Y1500D01*
X1824Y1500D02*
X1852Y1500D01*
X3173Y1500D02*
X3216Y1500D01*
X1351Y1499D02*
X1377Y1499D01*
X1825Y1499D02*
X1853Y1499D01*
X3171Y1499D02*
X3215Y1499D01*
X1350Y1498D02*
X1377Y1498D01*
X1826Y1498D02*
X1853Y1498D01*
X3170Y1498D02*
X3213Y1498D01*
X1350Y1497D02*
X1376Y1497D01*
X1826Y1497D02*
X1854Y1497D01*
X3168Y1497D02*
X3212Y1497D01*
X1349Y1496D02*
X1375Y1496D01*
X1827Y1496D02*
X1855Y1496D01*
X3166Y1496D02*
X3210Y1496D01*
X1349Y1495D02*
X1375Y1495D01*
X1828Y1495D02*
X1855Y1495D01*
X3165Y1495D02*
X3209Y1495D01*
X1348Y1494D02*
X1374Y1494D01*
X1828Y1494D02*
X1856Y1494D01*
X3163Y1494D02*
X3207Y1494D01*
X1348Y1493D02*
X1374Y1493D01*
X1829Y1493D02*
X1857Y1493D01*
X3162Y1493D02*
X3205Y1493D01*
X1347Y1492D02*
X1373Y1492D01*
X1830Y1492D02*
X1857Y1492D01*
X3160Y1492D02*
X3204Y1492D01*
X1347Y1491D02*
X1373Y1491D01*
X1830Y1491D02*
X1858Y1491D01*
X3158Y1491D02*
X3202Y1491D01*
X1346Y1490D02*
X1372Y1490D01*
X1831Y1490D02*
X1859Y1490D01*
X3157Y1490D02*
X3201Y1490D01*
X1345Y1489D02*
X1372Y1489D01*
X1832Y1489D02*
X1859Y1489D01*
X3155Y1489D02*
X3199Y1489D01*
X1345Y1488D02*
X1371Y1488D01*
X1832Y1488D02*
X1860Y1488D01*
X3154Y1488D02*
X3198Y1488D01*
X1344Y1487D02*
X1370Y1487D01*
X1833Y1487D02*
X1861Y1487D01*
X3152Y1487D02*
X3196Y1487D01*
X1344Y1486D02*
X1370Y1486D01*
X1834Y1486D02*
X1862Y1486D01*
X3150Y1486D02*
X3195Y1486D01*
X1343Y1485D02*
X1369Y1485D01*
X1834Y1485D02*
X1862Y1485D01*
X3149Y1485D02*
X3193Y1485D01*
X1343Y1484D02*
X1369Y1484D01*
X1835Y1484D02*
X1863Y1484D01*
X3147Y1484D02*
X3191Y1484D01*
X1342Y1483D02*
X1368Y1483D01*
X1836Y1483D02*
X1864Y1483D01*
X3145Y1483D02*
X3190Y1483D01*
X1342Y1482D02*
X1368Y1482D01*
X1836Y1482D02*
X1864Y1482D01*
X3144Y1482D02*
X3188Y1482D01*
X1341Y1481D02*
X1367Y1481D01*
X1837Y1481D02*
X1865Y1481D01*
X3142Y1481D02*
X3187Y1481D01*
X1341Y1480D02*
X1367Y1480D01*
X1838Y1480D02*
X1866Y1480D01*
X3141Y1480D02*
X3185Y1480D01*
X1340Y1479D02*
X1366Y1479D01*
X1838Y1479D02*
X1866Y1479D01*
X3139Y1479D02*
X3183Y1479D01*
X1340Y1478D02*
X1366Y1478D01*
X1839Y1478D02*
X1867Y1478D01*
X3137Y1478D02*
X3182Y1478D01*
X1339Y1477D02*
X1365Y1477D01*
X1840Y1477D02*
X1868Y1477D01*
X3136Y1477D02*
X3180Y1477D01*
X1339Y1476D02*
X1365Y1476D01*
X1840Y1476D02*
X1869Y1476D01*
X3134Y1476D02*
X3179Y1476D01*
X1338Y1475D02*
X1364Y1475D01*
X1841Y1475D02*
X1869Y1475D01*
X3132Y1475D02*
X3177Y1475D01*
X1338Y1474D02*
X1364Y1474D01*
X1842Y1474D02*
X1870Y1474D01*
X3131Y1474D02*
X3175Y1474D01*
X1337Y1473D02*
X1363Y1473D01*
X1843Y1473D02*
X1871Y1473D01*
X3129Y1473D02*
X3174Y1473D01*
X1337Y1472D02*
X1363Y1472D01*
X1843Y1472D02*
X1872Y1472D01*
X3127Y1472D02*
X3172Y1472D01*
X1336Y1471D02*
X1362Y1471D01*
X1844Y1471D02*
X1872Y1471D01*
X3126Y1471D02*
X3171Y1471D01*
X1336Y1470D02*
X1362Y1470D01*
X1845Y1470D02*
X1873Y1470D01*
X3124Y1470D02*
X3169Y1470D01*
X1335Y1469D02*
X1361Y1469D01*
X1845Y1469D02*
X1874Y1469D01*
X3122Y1469D02*
X3167Y1469D01*
X1335Y1468D02*
X1361Y1468D01*
X1846Y1468D02*
X1875Y1468D01*
X3121Y1468D02*
X3166Y1468D01*
X1334Y1467D02*
X1360Y1467D01*
X1847Y1467D02*
X1875Y1467D01*
X3119Y1467D02*
X3164Y1467D01*
X1334Y1466D02*
X1360Y1466D01*
X1847Y1466D02*
X1876Y1466D01*
X3118Y1466D02*
X3163Y1466D01*
X1333Y1465D02*
X1359Y1465D01*
X1848Y1465D02*
X1877Y1465D01*
X3116Y1465D02*
X3161Y1465D01*
X1333Y1464D02*
X1359Y1464D01*
X1849Y1464D02*
X1878Y1464D01*
X3114Y1464D02*
X3159Y1464D01*
X1332Y1463D02*
X1358Y1463D01*
X1850Y1463D02*
X1878Y1463D01*
X3112Y1463D02*
X3158Y1463D01*
X1332Y1462D02*
X1358Y1462D01*
X1850Y1462D02*
X1879Y1462D01*
X3111Y1462D02*
X3156Y1462D01*
X1332Y1461D02*
X1357Y1461D01*
X1851Y1461D02*
X1880Y1461D01*
X3109Y1461D02*
X3154Y1461D01*
X1331Y1460D02*
X1357Y1460D01*
X1852Y1460D02*
X1881Y1460D01*
X3107Y1460D02*
X3153Y1460D01*
X1331Y1459D02*
X1356Y1459D01*
X1852Y1459D02*
X1881Y1459D01*
X3106Y1459D02*
X3151Y1459D01*
X1330Y1458D02*
X1356Y1458D01*
X1853Y1458D02*
X1882Y1458D01*
X3104Y1458D02*
X3150Y1458D01*
X1330Y1457D02*
X1355Y1457D01*
X1854Y1457D02*
X1883Y1457D01*
X3102Y1457D02*
X3148Y1457D01*
X1329Y1456D02*
X1355Y1456D01*
X1855Y1456D02*
X1884Y1456D01*
X3101Y1456D02*
X3146Y1456D01*
X1329Y1455D02*
X1354Y1455D01*
X1855Y1455D02*
X1884Y1455D01*
X3099Y1455D02*
X3145Y1455D01*
X1328Y1454D02*
X1354Y1454D01*
X1856Y1454D02*
X1885Y1454D01*
X3097Y1454D02*
X3143Y1454D01*
X1328Y1453D02*
X1353Y1453D01*
X1857Y1453D02*
X1886Y1453D01*
X3096Y1453D02*
X3141Y1453D01*
X1327Y1452D02*
X1353Y1452D01*
X1858Y1452D02*
X1887Y1452D01*
X3094Y1452D02*
X3140Y1452D01*
X1327Y1451D02*
X1352Y1451D01*
X1858Y1451D02*
X1888Y1451D01*
X3092Y1451D02*
X3138Y1451D01*
X1326Y1450D02*
X1352Y1450D01*
X1859Y1450D02*
X1888Y1450D01*
X3091Y1450D02*
X3136Y1450D01*
X1326Y1449D02*
X1351Y1449D01*
X1860Y1449D02*
X1889Y1449D01*
X3089Y1449D02*
X3135Y1449D01*
X1326Y1448D02*
X1351Y1448D01*
X1861Y1448D02*
X1890Y1448D01*
X3087Y1448D02*
X3133Y1448D01*
X1325Y1447D02*
X1350Y1447D01*
X1861Y1447D02*
X1891Y1447D01*
X3085Y1447D02*
X3131Y1447D01*
X1325Y1446D02*
X1350Y1446D01*
X1862Y1446D02*
X1892Y1446D01*
X3084Y1446D02*
X3130Y1446D01*
X1324Y1445D02*
X1349Y1445D01*
X1863Y1445D02*
X1892Y1445D01*
X3082Y1445D02*
X3128Y1445D01*
X1324Y1444D02*
X1349Y1444D01*
X1864Y1444D02*
X1893Y1444D01*
X3080Y1444D02*
X3126Y1444D01*
X1323Y1443D02*
X1348Y1443D01*
X1864Y1443D02*
X1894Y1443D01*
X3078Y1443D02*
X3125Y1443D01*
X1323Y1442D02*
X1348Y1442D01*
X1865Y1442D02*
X1895Y1442D01*
X3077Y1442D02*
X3123Y1442D01*
X1322Y1441D02*
X1348Y1441D01*
X1866Y1441D02*
X1896Y1441D01*
X3075Y1441D02*
X3121Y1441D01*
X1322Y1440D02*
X1347Y1440D01*
X1867Y1440D02*
X1896Y1440D01*
X3073Y1440D02*
X3120Y1440D01*
X1322Y1439D02*
X1347Y1439D01*
X1868Y1439D02*
X1897Y1439D01*
X3072Y1439D02*
X3118Y1439D01*
X1321Y1438D02*
X1346Y1438D01*
X1868Y1438D02*
X1898Y1438D01*
X3070Y1438D02*
X3116Y1438D01*
X1321Y1437D02*
X1346Y1437D01*
X1869Y1437D02*
X1899Y1437D01*
X3068Y1437D02*
X3115Y1437D01*
X1320Y1436D02*
X1345Y1436D01*
X1870Y1436D02*
X1900Y1436D01*
X3066Y1436D02*
X3113Y1436D01*
X1320Y1435D02*
X1345Y1435D01*
X1871Y1435D02*
X1901Y1435D01*
X3065Y1435D02*
X3111Y1435D01*
X1319Y1434D02*
X1344Y1434D01*
X1872Y1434D02*
X1901Y1434D01*
X3063Y1434D02*
X3110Y1434D01*
X1319Y1433D02*
X1344Y1433D01*
X1872Y1433D02*
X1902Y1433D01*
X3061Y1433D02*
X3108Y1433D01*
X1318Y1432D02*
X1344Y1432D01*
X1873Y1432D02*
X1903Y1432D01*
X3059Y1432D02*
X3106Y1432D01*
X1318Y1431D02*
X1343Y1431D01*
X1874Y1431D02*
X1904Y1431D01*
X3058Y1431D02*
X3104Y1431D01*
X1318Y1430D02*
X1343Y1430D01*
X1875Y1430D02*
X1905Y1430D01*
X3056Y1430D02*
X3103Y1430D01*
X1317Y1429D02*
X1342Y1429D01*
X1876Y1429D02*
X1906Y1429D01*
X3054Y1429D02*
X3101Y1429D01*
X1317Y1428D02*
X1342Y1428D01*
X1876Y1428D02*
X1907Y1428D01*
X3052Y1428D02*
X3099Y1428D01*
X1316Y1427D02*
X1341Y1427D01*
X1877Y1427D02*
X1907Y1427D01*
X3050Y1427D02*
X3098Y1427D01*
X1316Y1426D02*
X1341Y1426D01*
X1878Y1426D02*
X1908Y1426D01*
X3049Y1426D02*
X3096Y1426D01*
X1316Y1425D02*
X1340Y1425D01*
X1879Y1425D02*
X1909Y1425D01*
X3047Y1425D02*
X3094Y1425D01*
X1315Y1424D02*
X1340Y1424D01*
X1880Y1424D02*
X1910Y1424D01*
X3045Y1424D02*
X3092Y1424D01*
X1315Y1423D02*
X1340Y1423D01*
X1881Y1423D02*
X1911Y1423D01*
X3043Y1423D02*
X3091Y1423D01*
X1314Y1422D02*
X1339Y1422D01*
X1881Y1422D02*
X1912Y1422D01*
X3042Y1422D02*
X3089Y1422D01*
X1314Y1421D02*
X1339Y1421D01*
X1882Y1421D02*
X1913Y1421D01*
X3040Y1421D02*
X3087Y1421D01*
X1313Y1420D02*
X1338Y1420D01*
X1883Y1420D02*
X1914Y1420D01*
X3038Y1420D02*
X3085Y1420D01*
X1313Y1419D02*
X1338Y1419D01*
X1884Y1419D02*
X1914Y1419D01*
X3036Y1419D02*
X3084Y1419D01*
X1313Y1418D02*
X1338Y1418D01*
X1885Y1418D02*
X1915Y1418D01*
X3034Y1418D02*
X3082Y1418D01*
X1312Y1417D02*
X1337Y1417D01*
X1886Y1417D02*
X1916Y1417D01*
X3033Y1417D02*
X3080Y1417D01*
X1312Y1416D02*
X1337Y1416D01*
X1886Y1416D02*
X1917Y1416D01*
X3031Y1416D02*
X3079Y1416D01*
X1311Y1415D02*
X1336Y1415D01*
X1887Y1415D02*
X1918Y1415D01*
X3029Y1415D02*
X3077Y1415D01*
X1311Y1414D02*
X1336Y1414D01*
X1888Y1414D02*
X1919Y1414D01*
X3027Y1414D02*
X3075Y1414D01*
X1311Y1413D02*
X1335Y1413D01*
X1889Y1413D02*
X1920Y1413D01*
X3025Y1413D02*
X3073Y1413D01*
X1310Y1412D02*
X1335Y1412D01*
X1890Y1412D02*
X1921Y1412D01*
X3023Y1412D02*
X3072Y1412D01*
X1310Y1411D02*
X1335Y1411D01*
X1891Y1411D02*
X1922Y1411D01*
X3022Y1411D02*
X3070Y1411D01*
X1309Y1410D02*
X1334Y1410D01*
X1892Y1410D02*
X1923Y1410D01*
X3020Y1410D02*
X3068Y1410D01*
X1309Y1409D02*
X1334Y1409D01*
X1892Y1409D02*
X1924Y1409D01*
X3018Y1409D02*
X3066Y1409D01*
X1309Y1408D02*
X1333Y1408D01*
X1893Y1408D02*
X1925Y1408D01*
X3016Y1408D02*
X3064Y1408D01*
X1308Y1407D02*
X1333Y1407D01*
X1894Y1407D02*
X1925Y1407D01*
X3014Y1407D02*
X3063Y1407D01*
X1308Y1406D02*
X1333Y1406D01*
X1895Y1406D02*
X1926Y1406D01*
X3012Y1406D02*
X3061Y1406D01*
X1307Y1405D02*
X1332Y1405D01*
X1896Y1405D02*
X1927Y1405D01*
X3011Y1405D02*
X3059Y1405D01*
X1307Y1404D02*
X1332Y1404D01*
X1897Y1404D02*
X1928Y1404D01*
X3009Y1404D02*
X3057Y1404D01*
X1307Y1403D02*
X1331Y1403D01*
X1898Y1403D02*
X1929Y1403D01*
X3007Y1403D02*
X3056Y1403D01*
X1306Y1402D02*
X1331Y1402D01*
X1899Y1402D02*
X1930Y1402D01*
X3005Y1402D02*
X3054Y1402D01*
X1306Y1401D02*
X1331Y1401D01*
X1900Y1401D02*
X1931Y1401D01*
X3003Y1401D02*
X3052Y1401D01*
X1306Y1400D02*
X1330Y1400D01*
X1900Y1400D02*
X1932Y1400D01*
X3001Y1400D02*
X3050Y1400D01*
X1305Y1399D02*
X1330Y1399D01*
X1901Y1399D02*
X1933Y1399D01*
X2999Y1399D02*
X3048Y1399D01*
X1305Y1398D02*
X1329Y1398D01*
X1902Y1398D02*
X1934Y1398D01*
X2997Y1398D02*
X3047Y1398D01*
X1304Y1397D02*
X1329Y1397D01*
X1903Y1397D02*
X1935Y1397D01*
X2996Y1397D02*
X3045Y1397D01*
X1304Y1396D02*
X1329Y1396D01*
X1904Y1396D02*
X1936Y1396D01*
X2994Y1396D02*
X3043Y1396D01*
X1304Y1395D02*
X1328Y1395D01*
X1905Y1395D02*
X1937Y1395D01*
X2992Y1395D02*
X3041Y1395D01*
X1303Y1394D02*
X1328Y1394D01*
X1906Y1394D02*
X1938Y1394D01*
X2990Y1394D02*
X3039Y1394D01*
X1303Y1393D02*
X1327Y1393D01*
X1907Y1393D02*
X1939Y1393D01*
X2988Y1393D02*
X3037Y1393D01*
X1303Y1392D02*
X1327Y1392D01*
X1908Y1392D02*
X1940Y1392D01*
X2986Y1392D02*
X3036Y1392D01*
X1302Y1391D02*
X1327Y1391D01*
X1909Y1391D02*
X1941Y1391D01*
X2984Y1391D02*
X3034Y1391D01*
X1302Y1390D02*
X1326Y1390D01*
X1910Y1390D02*
X1942Y1390D01*
X2982Y1390D02*
X3032Y1390D01*
X1301Y1389D02*
X1326Y1389D01*
X1911Y1389D02*
X1943Y1389D01*
X2980Y1389D02*
X3030Y1389D01*
X1301Y1388D02*
X1326Y1388D01*
X1911Y1388D02*
X1944Y1388D01*
X2978Y1388D02*
X3028Y1388D01*
X1301Y1387D02*
X1325Y1387D01*
X1912Y1387D02*
X1945Y1387D01*
X2977Y1387D02*
X3026Y1387D01*
X1300Y1386D02*
X1325Y1386D01*
X1913Y1386D02*
X1946Y1386D01*
X2975Y1386D02*
X3025Y1386D01*
X1300Y1385D02*
X1324Y1385D01*
X1914Y1385D02*
X1947Y1385D01*
X2973Y1385D02*
X3023Y1385D01*
X1300Y1384D02*
X1324Y1384D01*
X1915Y1384D02*
X1948Y1384D01*
X2971Y1384D02*
X3021Y1384D01*
X1299Y1383D02*
X1324Y1383D01*
X1916Y1383D02*
X1949Y1383D01*
X2969Y1383D02*
X3019Y1383D01*
X1299Y1382D02*
X1323Y1382D01*
X1917Y1382D02*
X1950Y1382D01*
X2967Y1382D02*
X3017Y1382D01*
X1298Y1381D02*
X1323Y1381D01*
X1918Y1381D02*
X1951Y1381D01*
X2965Y1381D02*
X3015Y1381D01*
X1298Y1380D02*
X1323Y1380D01*
X1919Y1380D02*
X1952Y1380D01*
X2963Y1380D02*
X3013Y1380D01*
X1298Y1379D02*
X1322Y1379D01*
X1920Y1379D02*
X1953Y1379D01*
X2961Y1379D02*
X3012Y1379D01*
X1297Y1378D02*
X1322Y1378D01*
X1921Y1378D02*
X1955Y1378D01*
X2959Y1378D02*
X3010Y1378D01*
X1297Y1377D02*
X1322Y1377D01*
X1922Y1377D02*
X1956Y1377D01*
X2957Y1377D02*
X3008Y1377D01*
X1297Y1376D02*
X1321Y1376D01*
X1923Y1376D02*
X1957Y1376D01*
X2955Y1376D02*
X3006Y1376D01*
X1296Y1375D02*
X1321Y1375D01*
X1924Y1375D02*
X1958Y1375D01*
X2953Y1375D02*
X3004Y1375D01*
X1296Y1374D02*
X1320Y1374D01*
X1925Y1374D02*
X1959Y1374D01*
X2951Y1374D02*
X3002Y1374D01*
X1296Y1373D02*
X1320Y1373D01*
X1926Y1373D02*
X1960Y1373D01*
X2949Y1373D02*
X3000Y1373D01*
X1295Y1372D02*
X1320Y1372D01*
X1927Y1372D02*
X1961Y1372D01*
X2947Y1372D02*
X2998Y1372D01*
X1295Y1371D02*
X1319Y1371D01*
X1928Y1371D02*
X1962Y1371D01*
X2945Y1371D02*
X2996Y1371D01*
X1295Y1370D02*
X1319Y1370D01*
X1929Y1370D02*
X1963Y1370D01*
X2943Y1370D02*
X2995Y1370D01*
X1294Y1369D02*
X1319Y1369D01*
X1930Y1369D02*
X1964Y1369D01*
X2941Y1369D02*
X2993Y1369D01*
X1294Y1368D02*
X1318Y1368D01*
X1931Y1368D02*
X1965Y1368D01*
X2939Y1368D02*
X2991Y1368D01*
X1294Y1367D02*
X1318Y1367D01*
X1932Y1367D02*
X1966Y1367D01*
X2937Y1367D02*
X2989Y1367D01*
X1293Y1366D02*
X1318Y1366D01*
X1933Y1366D02*
X1968Y1366D01*
X2935Y1366D02*
X2987Y1366D01*
X1293Y1365D02*
X1317Y1365D01*
X1934Y1365D02*
X1969Y1365D01*
X2933Y1365D02*
X2985Y1365D01*
X1293Y1364D02*
X1317Y1364D01*
X1935Y1364D02*
X1970Y1364D01*
X2931Y1364D02*
X2983Y1364D01*
X1292Y1363D02*
X1317Y1363D01*
X1937Y1363D02*
X1971Y1363D01*
X2929Y1363D02*
X2981Y1363D01*
X1292Y1362D02*
X1316Y1362D01*
X1938Y1362D02*
X1972Y1362D01*
X2927Y1362D02*
X2979Y1362D01*
X1292Y1361D02*
X1316Y1361D01*
X1939Y1361D02*
X1973Y1361D01*
X2925Y1361D02*
X2977Y1361D01*
X1291Y1360D02*
X1316Y1360D01*
X1940Y1360D02*
X1975Y1360D01*
X2923Y1360D02*
X2975Y1360D01*
X1291Y1359D02*
X1315Y1359D01*
X1941Y1359D02*
X1976Y1359D01*
X2921Y1359D02*
X2973Y1359D01*
X1291Y1358D02*
X1315Y1358D01*
X1942Y1358D02*
X1977Y1358D01*
X2919Y1358D02*
X2971Y1358D01*
X1290Y1357D02*
X1315Y1357D01*
X1943Y1357D02*
X1978Y1357D01*
X2916Y1357D02*
X2969Y1357D01*
X1290Y1356D02*
X1314Y1356D01*
X1944Y1356D02*
X1979Y1356D01*
X2914Y1356D02*
X2967Y1356D01*
X1290Y1355D02*
X1314Y1355D01*
X1945Y1355D02*
X1980Y1355D01*
X2912Y1355D02*
X2965Y1355D01*
X1289Y1354D02*
X1314Y1354D01*
X1946Y1354D02*
X1981Y1354D01*
X2910Y1354D02*
X2963Y1354D01*
X1289Y1353D02*
X1313Y1353D01*
X1947Y1353D02*
X1983Y1353D01*
X2908Y1353D02*
X2961Y1353D01*
X1289Y1352D02*
X1313Y1352D01*
X1948Y1352D02*
X1984Y1352D01*
X2906Y1352D02*
X2959Y1352D01*
X1288Y1351D02*
X1313Y1351D01*
X1949Y1351D02*
X1985Y1351D01*
X2904Y1351D02*
X2957Y1351D01*
X1288Y1350D02*
X1312Y1350D01*
X1951Y1350D02*
X1986Y1350D01*
X2902Y1350D02*
X2955Y1350D01*
X1288Y1349D02*
X1312Y1349D01*
X1952Y1349D02*
X1988Y1349D01*
X2900Y1349D02*
X2953Y1349D01*
X1287Y1348D02*
X1312Y1348D01*
X1953Y1348D02*
X1989Y1348D01*
X2898Y1348D02*
X2951Y1348D01*
X1287Y1347D02*
X1311Y1347D01*
X1954Y1347D02*
X1990Y1347D01*
X2895Y1347D02*
X2949Y1347D01*
X1287Y1346D02*
X1311Y1346D01*
X1955Y1346D02*
X1991Y1346D01*
X2893Y1346D02*
X2947Y1346D01*
X1286Y1345D02*
X1311Y1345D01*
X1956Y1345D02*
X1993Y1345D01*
X2891Y1345D02*
X2945Y1345D01*
X1286Y1344D02*
X1310Y1344D01*
X1957Y1344D02*
X1994Y1344D01*
X2889Y1344D02*
X2943Y1344D01*
X1286Y1343D02*
X1310Y1343D01*
X1959Y1343D02*
X1995Y1343D01*
X2887Y1343D02*
X2941Y1343D01*
X1286Y1342D02*
X1310Y1342D01*
X1960Y1342D02*
X1996Y1342D01*
X2885Y1342D02*
X2939Y1342D01*
X1285Y1341D02*
X1309Y1341D01*
X1961Y1341D02*
X1998Y1341D01*
X2882Y1341D02*
X2937Y1341D01*
X1285Y1340D02*
X1309Y1340D01*
X1962Y1340D02*
X1999Y1340D01*
X2880Y1340D02*
X2935Y1340D01*
X1285Y1339D02*
X1309Y1339D01*
X1963Y1339D02*
X2000Y1339D01*
X2878Y1339D02*
X2933Y1339D01*
X1284Y1338D02*
X1308Y1338D01*
X1964Y1338D02*
X2001Y1338D01*
X2876Y1338D02*
X2931Y1338D01*
X1284Y1337D02*
X1308Y1337D01*
X1965Y1337D02*
X2003Y1337D01*
X2874Y1337D02*
X2929Y1337D01*
X1284Y1336D02*
X1308Y1336D01*
X1967Y1336D02*
X2004Y1336D01*
X2871Y1336D02*
X2927Y1336D01*
X1283Y1335D02*
X1307Y1335D01*
X1968Y1335D02*
X2005Y1335D01*
X2869Y1335D02*
X2925Y1335D01*
X1283Y1334D02*
X1307Y1334D01*
X1969Y1334D02*
X2007Y1334D01*
X2867Y1334D02*
X2923Y1334D01*
X1283Y1333D02*
X1307Y1333D01*
X1970Y1333D02*
X2008Y1333D01*
X2865Y1333D02*
X2921Y1333D01*
X1283Y1332D02*
X1307Y1332D01*
X1971Y1332D02*
X2009Y1332D01*
X2862Y1332D02*
X2918Y1332D01*
X1282Y1331D02*
X1306Y1331D01*
X1973Y1331D02*
X2011Y1331D01*
X2860Y1331D02*
X2916Y1331D01*
X1282Y1330D02*
X1306Y1330D01*
X1974Y1330D02*
X2012Y1330D01*
X2858Y1330D02*
X2914Y1330D01*
X1282Y1329D02*
X1306Y1329D01*
X1975Y1329D02*
X2013Y1329D01*
X2856Y1329D02*
X2912Y1329D01*
X1281Y1328D02*
X1305Y1328D01*
X1976Y1328D02*
X2015Y1328D01*
X2854Y1328D02*
X2910Y1328D01*
X1281Y1327D02*
X1305Y1327D01*
X1978Y1327D02*
X2016Y1327D01*
X2851Y1327D02*
X2908Y1327D01*
X1281Y1326D02*
X1305Y1326D01*
X1979Y1326D02*
X2018Y1326D01*
X2849Y1326D02*
X2906Y1326D01*
X1280Y1325D02*
X1304Y1325D01*
X1980Y1325D02*
X2019Y1325D01*
X2847Y1325D02*
X2904Y1325D01*
X1280Y1324D02*
X1304Y1324D01*
X1981Y1324D02*
X2020Y1324D01*
X2844Y1324D02*
X2901Y1324D01*
X1280Y1323D02*
X1304Y1323D01*
X1983Y1323D02*
X2022Y1323D01*
X2842Y1323D02*
X2899Y1323D01*
X1280Y1322D02*
X1304Y1322D01*
X1984Y1322D02*
X2023Y1322D01*
X2840Y1322D02*
X2897Y1322D01*
X1279Y1321D02*
X1303Y1321D01*
X1985Y1321D02*
X2025Y1321D01*
X2837Y1321D02*
X2895Y1321D01*
X1279Y1320D02*
X1303Y1320D01*
X1986Y1320D02*
X2026Y1320D01*
X2835Y1320D02*
X2893Y1320D01*
X1279Y1319D02*
X1303Y1319D01*
X1988Y1319D02*
X2028Y1319D01*
X2833Y1319D02*
X2891Y1319D01*
X1278Y1318D02*
X1302Y1318D01*
X1989Y1318D02*
X2029Y1318D01*
X2830Y1318D02*
X2888Y1318D01*
X1278Y1317D02*
X1302Y1317D01*
X1990Y1317D02*
X2030Y1317D01*
X2828Y1317D02*
X2886Y1317D01*
X1278Y1316D02*
X1302Y1316D01*
X1992Y1316D02*
X2032Y1316D01*
X2826Y1316D02*
X2884Y1316D01*
X1278Y1315D02*
X1302Y1315D01*
X1993Y1315D02*
X2033Y1315D01*
X2823Y1315D02*
X2882Y1315D01*
X1277Y1314D02*
X1301Y1314D01*
X1994Y1314D02*
X2035Y1314D01*
X2821Y1314D02*
X2880Y1314D01*
X1277Y1313D02*
X1301Y1313D01*
X1996Y1313D02*
X2036Y1313D01*
X2818Y1313D02*
X2877Y1313D01*
X1277Y1312D02*
X1301Y1312D01*
X1997Y1312D02*
X2038Y1312D01*
X2816Y1312D02*
X2875Y1312D01*
X1277Y1311D02*
X1300Y1311D01*
X1998Y1311D02*
X2039Y1311D01*
X2813Y1311D02*
X2873Y1311D01*
X1276Y1310D02*
X1300Y1310D01*
X2000Y1310D02*
X2041Y1310D01*
X2811Y1310D02*
X2871Y1310D01*
X1271Y1309D02*
X1300Y1309D01*
X2001Y1309D02*
X2043Y1309D01*
X2808Y1309D02*
X2868Y1309D01*
X1255Y1308D02*
X1300Y1308D01*
X2003Y1308D02*
X2044Y1308D01*
X2806Y1308D02*
X2866Y1308D01*
X1245Y1307D02*
X1299Y1307D01*
X2004Y1307D02*
X2046Y1307D01*
X2804Y1307D02*
X2864Y1307D01*
X1237Y1306D02*
X1299Y1306D01*
X2005Y1306D02*
X2047Y1306D01*
X2801Y1306D02*
X2862Y1306D01*
X1230Y1305D02*
X1299Y1305D01*
X2007Y1305D02*
X2049Y1305D01*
X2799Y1305D02*
X2859Y1305D01*
X1224Y1304D02*
X1298Y1304D01*
X2008Y1304D02*
X2051Y1304D01*
X2796Y1304D02*
X2857Y1304D01*
X1218Y1303D02*
X1298Y1303D01*
X2009Y1303D02*
X2052Y1303D01*
X2794Y1303D02*
X2855Y1303D01*
X1213Y1302D02*
X1298Y1302D01*
X2011Y1302D02*
X2054Y1302D01*
X2791Y1302D02*
X2852Y1302D01*
X1208Y1301D02*
X1298Y1301D01*
X2012Y1301D02*
X2055Y1301D01*
X2788Y1301D02*
X2850Y1301D01*
X1202Y1300D02*
X1297Y1300D01*
X2014Y1300D02*
X2057Y1300D01*
X2786Y1300D02*
X2848Y1300D01*
X1198Y1299D02*
X1297Y1299D01*
X2015Y1299D02*
X2059Y1299D01*
X2783Y1299D02*
X2845Y1299D01*
X1194Y1298D02*
X1297Y1298D01*
X2017Y1298D02*
X2060Y1298D01*
X2781Y1298D02*
X2843Y1298D01*
X1189Y1297D02*
X1297Y1297D01*
X2018Y1297D02*
X2062Y1297D01*
X2778Y1297D02*
X2841Y1297D01*
X1185Y1296D02*
X1296Y1296D01*
X2020Y1296D02*
X2064Y1296D01*
X2776Y1296D02*
X2838Y1296D01*
X1181Y1295D02*
X1296Y1295D01*
X2021Y1295D02*
X2066Y1295D01*
X2773Y1295D02*
X2836Y1295D01*
X1177Y1294D02*
X1296Y1294D01*
X2023Y1294D02*
X2067Y1294D01*
X2770Y1294D02*
X2834Y1294D01*
X1173Y1293D02*
X1295Y1293D01*
X2024Y1293D02*
X2069Y1293D01*
X2768Y1293D02*
X2831Y1293D01*
X1170Y1292D02*
X1295Y1292D01*
X2026Y1292D02*
X2071Y1292D01*
X2765Y1292D02*
X2829Y1292D01*
X1166Y1291D02*
X1295Y1291D01*
X2027Y1291D02*
X2073Y1291D01*
X2762Y1291D02*
X2826Y1291D01*
X1163Y1290D02*
X1294Y1290D01*
X2029Y1290D02*
X2074Y1290D01*
X2760Y1290D02*
X2824Y1290D01*
X1159Y1289D02*
X1294Y1289D01*
X2030Y1289D02*
X2076Y1289D01*
X2757Y1289D02*
X2821Y1289D01*
X1156Y1288D02*
X1294Y1288D01*
X2032Y1288D02*
X2078Y1288D01*
X2754Y1288D02*
X2819Y1288D01*
X1153Y1287D02*
X1293Y1287D01*
X2034Y1287D02*
X2080Y1287D01*
X2751Y1287D02*
X2817Y1287D01*
X1149Y1286D02*
X1293Y1286D01*
X2035Y1286D02*
X2082Y1286D01*
X2749Y1286D02*
X2814Y1286D01*
X1146Y1285D02*
X1293Y1285D01*
X2037Y1285D02*
X2084Y1285D01*
X2746Y1285D02*
X2812Y1285D01*
X1143Y1284D02*
X1255Y1284D01*
X1268Y1284D02*
X1292Y1284D01*
X2038Y1284D02*
X2085Y1284D01*
X2743Y1284D02*
X2809Y1284D01*
X1140Y1283D02*
X1246Y1283D01*
X1268Y1283D02*
X1292Y1283D01*
X2040Y1283D02*
X2087Y1283D01*
X2740Y1283D02*
X2807Y1283D01*
X1137Y1282D02*
X1238Y1282D01*
X1267Y1282D02*
X1292Y1282D01*
X2042Y1282D02*
X2089Y1282D01*
X2737Y1282D02*
X2804Y1282D01*
X1134Y1281D02*
X1231Y1281D01*
X1267Y1281D02*
X1291Y1281D01*
X2043Y1281D02*
X2091Y1281D01*
X2735Y1281D02*
X2802Y1281D01*
X1131Y1280D02*
X1225Y1280D01*
X1267Y1280D02*
X1291Y1280D01*
X2045Y1280D02*
X2093Y1280D01*
X2732Y1280D02*
X2799Y1280D01*
X1129Y1279D02*
X1219Y1279D01*
X1266Y1279D02*
X1290Y1279D01*
X2047Y1279D02*
X2095Y1279D01*
X2729Y1279D02*
X2797Y1279D01*
X1126Y1278D02*
X1214Y1278D01*
X1266Y1278D02*
X1290Y1278D01*
X2048Y1278D02*
X2097Y1278D01*
X2726Y1278D02*
X2794Y1278D01*
X1123Y1277D02*
X1209Y1277D01*
X1266Y1277D02*
X1290Y1277D01*
X2050Y1277D02*
X2099Y1277D01*
X2723Y1277D02*
X2791Y1277D01*
X1120Y1276D02*
X1204Y1276D01*
X1265Y1276D02*
X1289Y1276D01*
X2052Y1276D02*
X2101Y1276D01*
X2720Y1276D02*
X2789Y1276D01*
X1118Y1275D02*
X1199Y1275D01*
X1265Y1275D02*
X1289Y1275D01*
X2053Y1275D02*
X2103Y1275D01*
X2717Y1275D02*
X2786Y1275D01*
X1115Y1274D02*
X1195Y1274D01*
X1265Y1274D02*
X1289Y1274D01*
X2055Y1274D02*
X2105Y1274D01*
X2714Y1274D02*
X2784Y1274D01*
X1112Y1273D02*
X1191Y1273D01*
X1264Y1273D02*
X1288Y1273D01*
X2057Y1273D02*
X2108Y1273D01*
X2711Y1273D02*
X2781Y1273D01*
X1110Y1272D02*
X1187Y1272D01*
X1264Y1272D02*
X1288Y1272D01*
X2059Y1272D02*
X2110Y1272D01*
X2708Y1272D02*
X2778Y1272D01*
X1107Y1271D02*
X1183Y1271D01*
X1264Y1271D02*
X1288Y1271D01*
X2060Y1271D02*
X2112Y1271D01*
X2705Y1271D02*
X2776Y1271D01*
X1105Y1270D02*
X1179Y1270D01*
X1263Y1270D02*
X1288Y1270D01*
X2062Y1270D02*
X2114Y1270D01*
X2702Y1270D02*
X2773Y1270D01*
X1102Y1269D02*
X1175Y1269D01*
X1263Y1269D02*
X1287Y1269D01*
X2064Y1269D02*
X2116Y1269D01*
X2699Y1269D02*
X2770Y1269D01*
X1100Y1268D02*
X1172Y1268D01*
X1263Y1268D02*
X1287Y1268D01*
X2066Y1268D02*
X2118Y1268D01*
X2696Y1268D02*
X2768Y1268D01*
X1098Y1267D02*
X1168Y1267D01*
X1262Y1267D02*
X1287Y1267D01*
X2068Y1267D02*
X2121Y1267D01*
X2693Y1267D02*
X2765Y1267D01*
X1095Y1266D02*
X1165Y1266D01*
X1262Y1266D02*
X1286Y1266D01*
X2069Y1266D02*
X2123Y1266D01*
X2689Y1266D02*
X2762Y1266D01*
X1093Y1265D02*
X1162Y1265D01*
X1262Y1265D02*
X1286Y1265D01*
X2071Y1265D02*
X2125Y1265D01*
X2686Y1265D02*
X2760Y1265D01*
X1091Y1264D02*
X1158Y1264D01*
X1261Y1264D02*
X1286Y1264D01*
X2073Y1264D02*
X2128Y1264D01*
X2683Y1264D02*
X2757Y1264D01*
X1088Y1263D02*
X1155Y1263D01*
X1261Y1263D02*
X1285Y1263D01*
X2075Y1263D02*
X2130Y1263D01*
X2680Y1263D02*
X2754Y1263D01*
X1086Y1262D02*
X1152Y1262D01*
X1261Y1262D02*
X1285Y1262D01*
X2077Y1262D02*
X2132Y1262D01*
X2676Y1262D02*
X2751Y1262D01*
X1084Y1261D02*
X1149Y1261D01*
X1261Y1261D02*
X1285Y1261D01*
X2079Y1261D02*
X2135Y1261D01*
X2673Y1261D02*
X2748Y1261D01*
X1081Y1260D02*
X1146Y1260D01*
X1260Y1260D02*
X1284Y1260D01*
X2081Y1260D02*
X2137Y1260D01*
X2670Y1260D02*
X2746Y1260D01*
X1079Y1259D02*
X1143Y1259D01*
X1260Y1259D02*
X1284Y1259D01*
X2083Y1259D02*
X2140Y1259D01*
X2666Y1259D02*
X2743Y1259D01*
X1077Y1258D02*
X1140Y1258D01*
X1260Y1258D02*
X1284Y1258D01*
X2085Y1258D02*
X2142Y1258D01*
X2663Y1258D02*
X2740Y1258D01*
X1075Y1257D02*
X1137Y1257D01*
X1259Y1257D02*
X1283Y1257D01*
X2087Y1257D02*
X2145Y1257D01*
X2660Y1257D02*
X2737Y1257D01*
X1073Y1256D02*
X1134Y1256D01*
X1259Y1256D02*
X1283Y1256D01*
X2089Y1256D02*
X2147Y1256D01*
X2656Y1256D02*
X2734Y1256D01*
X1071Y1255D02*
X1132Y1255D01*
X1259Y1255D02*
X1283Y1255D01*
X2091Y1255D02*
X2150Y1255D01*
X2653Y1255D02*
X2731Y1255D01*
X1069Y1254D02*
X1129Y1254D01*
X1258Y1254D02*
X1283Y1254D01*
X2093Y1254D02*
X2153Y1254D01*
X2649Y1254D02*
X2728Y1254D01*
X1066Y1253D02*
X1126Y1253D01*
X1258Y1253D02*
X1282Y1253D01*
X2095Y1253D02*
X2155Y1253D01*
X2645Y1253D02*
X2725Y1253D01*
X1064Y1252D02*
X1124Y1252D01*
X1258Y1252D02*
X1282Y1252D01*
X2097Y1252D02*
X2158Y1252D01*
X2642Y1252D02*
X2722Y1252D01*
X1062Y1251D02*
X1121Y1251D01*
X1258Y1251D02*
X1282Y1251D01*
X2099Y1251D02*
X2161Y1251D01*
X2638Y1251D02*
X2719Y1251D01*
X1060Y1250D02*
X1119Y1250D01*
X1257Y1250D02*
X1281Y1250D01*
X2101Y1250D02*
X2164Y1250D01*
X2634Y1250D02*
X2716Y1250D01*
X1058Y1249D02*
X1116Y1249D01*
X1257Y1249D02*
X1281Y1249D01*
X2103Y1249D02*
X2167Y1249D01*
X2631Y1249D02*
X2713Y1249D01*
X1056Y1248D02*
X1113Y1248D01*
X1257Y1248D02*
X1281Y1248D01*
X2106Y1248D02*
X2170Y1248D01*
X2627Y1248D02*
X2710Y1248D01*
X1054Y1247D02*
X1111Y1247D01*
X1257Y1247D02*
X1280Y1247D01*
X2108Y1247D02*
X2173Y1247D01*
X2623Y1247D02*
X2707Y1247D01*
X1052Y1246D02*
X1109Y1246D01*
X1256Y1246D02*
X1280Y1246D01*
X2110Y1246D02*
X2176Y1246D01*
X2619Y1246D02*
X2704Y1246D01*
X1050Y1245D02*
X1106Y1245D01*
X1256Y1245D02*
X1280Y1245D01*
X2112Y1245D02*
X2179Y1245D01*
X2615Y1245D02*
X2701Y1245D01*
X1048Y1244D02*
X1104Y1244D01*
X1256Y1244D02*
X1280Y1244D01*
X2115Y1244D02*
X2182Y1244D01*
X2611Y1244D02*
X2698Y1244D01*
X1046Y1243D02*
X1101Y1243D01*
X1255Y1243D02*
X1279Y1243D01*
X2117Y1243D02*
X2185Y1243D01*
X2607Y1243D02*
X2695Y1243D01*
X1045Y1242D02*
X1099Y1242D01*
X1255Y1242D02*
X1279Y1242D01*
X2119Y1242D02*
X2188Y1242D01*
X2603Y1242D02*
X2692Y1242D01*
X1043Y1241D02*
X1097Y1241D01*
X1255Y1241D02*
X1279Y1241D01*
X2122Y1241D02*
X2192Y1241D01*
X2598Y1241D02*
X2688Y1241D01*
X1041Y1240D02*
X1094Y1240D01*
X1255Y1240D02*
X1278Y1240D01*
X2124Y1240D02*
X2195Y1240D01*
X2594Y1240D02*
X2685Y1240D01*
X1039Y1239D02*
X1092Y1239D01*
X1254Y1239D02*
X1278Y1239D01*
X2126Y1239D02*
X2199Y1239D01*
X2590Y1239D02*
X2682Y1239D01*
X1037Y1238D02*
X1090Y1238D01*
X1254Y1238D02*
X1278Y1238D01*
X2129Y1238D02*
X2202Y1238D01*
X2585Y1238D02*
X2678Y1238D01*
X1035Y1237D02*
X1088Y1237D01*
X1254Y1237D02*
X1278Y1237D01*
X2131Y1237D02*
X2206Y1237D01*
X2581Y1237D02*
X2675Y1237D01*
X1034Y1236D02*
X1086Y1236D01*
X1254Y1236D02*
X1277Y1236D01*
X2134Y1236D02*
X2209Y1236D01*
X2576Y1236D02*
X2672Y1236D01*
X1032Y1235D02*
X1083Y1235D01*
X1253Y1235D02*
X1277Y1235D01*
X2136Y1235D02*
X2213Y1235D01*
X2571Y1235D02*
X2668Y1235D01*
X1030Y1234D02*
X1081Y1234D01*
X1253Y1234D02*
X1277Y1234D01*
X2139Y1234D02*
X2217Y1234D01*
X2566Y1234D02*
X2665Y1234D01*
X1028Y1233D02*
X1079Y1233D01*
X1253Y1233D02*
X1277Y1233D01*
X2141Y1233D02*
X2221Y1233D01*
X2561Y1233D02*
X2661Y1233D01*
X1026Y1232D02*
X1077Y1232D01*
X1252Y1232D02*
X1276Y1232D01*
X2144Y1232D02*
X2226Y1232D01*
X2556Y1232D02*
X2658Y1232D01*
X1024Y1231D02*
X1075Y1231D01*
X1252Y1231D02*
X1276Y1231D01*
X2147Y1231D02*
X2230Y1231D01*
X2551Y1231D02*
X2654Y1231D01*
X1023Y1230D02*
X1073Y1230D01*
X1252Y1230D02*
X1276Y1230D01*
X2149Y1230D02*
X2234Y1230D01*
X2546Y1230D02*
X2651Y1230D01*
X1021Y1229D02*
X1071Y1229D01*
X1252Y1229D02*
X1275Y1229D01*
X2152Y1229D02*
X2239Y1229D01*
X2540Y1229D02*
X2647Y1229D01*
X1019Y1228D02*
X1069Y1228D01*
X1251Y1228D02*
X1275Y1228D01*
X2155Y1228D02*
X2244Y1228D01*
X2535Y1228D02*
X2644Y1228D01*
X1018Y1227D02*
X1067Y1227D01*
X1251Y1227D02*
X1275Y1227D01*
X2158Y1227D02*
X2249Y1227D01*
X2528Y1227D02*
X2640Y1227D01*
X1016Y1226D02*
X1065Y1226D01*
X1251Y1226D02*
X1275Y1226D01*
X2161Y1226D02*
X2254Y1226D01*
X2522Y1226D02*
X2636Y1226D01*
X1014Y1225D02*
X1063Y1225D01*
X1251Y1225D02*
X1274Y1225D01*
X2164Y1225D02*
X2260Y1225D01*
X2516Y1225D02*
X2632Y1225D01*
X1013Y1224D02*
X1061Y1224D01*
X1250Y1224D02*
X1274Y1224D01*
X2167Y1224D02*
X2265Y1224D01*
X2509Y1224D02*
X2628Y1224D01*
X1011Y1223D02*
X1059Y1223D01*
X1250Y1223D02*
X1274Y1223D01*
X2170Y1223D02*
X2271Y1223D01*
X2502Y1223D02*
X2624Y1223D01*
X1009Y1222D02*
X1057Y1222D01*
X1250Y1222D02*
X1274Y1222D01*
X2173Y1222D02*
X2278Y1222D01*
X2495Y1222D02*
X2621Y1222D01*
X1008Y1221D02*
X1055Y1221D01*
X1250Y1221D02*
X1273Y1221D01*
X2176Y1221D02*
X2285Y1221D01*
X2487Y1221D02*
X2616Y1221D01*
X1006Y1220D02*
X1053Y1220D01*
X1249Y1220D02*
X1273Y1220D01*
X2179Y1220D02*
X2293Y1220D01*
X2478Y1220D02*
X2612Y1220D01*
X1004Y1219D02*
X1051Y1219D01*
X1249Y1219D02*
X1273Y1219D01*
X2182Y1219D02*
X2301Y1219D01*
X2469Y1219D02*
X2608Y1219D01*
X1003Y1218D02*
X1050Y1218D01*
X1249Y1218D02*
X1273Y1218D01*
X2186Y1218D02*
X2310Y1218D01*
X2459Y1218D02*
X2604Y1218D01*
X1001Y1217D02*
X1048Y1217D01*
X1249Y1217D02*
X1272Y1217D01*
X2189Y1217D02*
X2321Y1217D01*
X2446Y1217D02*
X2600Y1217D01*
X999Y1216D02*
X1046Y1216D01*
X1249Y1216D02*
X1272Y1216D01*
X2193Y1216D02*
X2335Y1216D01*
X2432Y1216D02*
X2595Y1216D01*
X998Y1215D02*
X1044Y1215D01*
X1248Y1215D02*
X1272Y1215D01*
X2196Y1215D02*
X2356Y1215D01*
X2410Y1215D02*
X2591Y1215D01*
X996Y1214D02*
X1042Y1214D01*
X1248Y1214D02*
X1272Y1214D01*
X2200Y1214D02*
X2586Y1214D01*
X995Y1213D02*
X1040Y1213D01*
X1248Y1213D02*
X1271Y1213D01*
X2204Y1213D02*
X2582Y1213D01*
X993Y1212D02*
X1039Y1212D01*
X1248Y1212D02*
X1271Y1212D01*
X2207Y1212D02*
X2577Y1212D01*
X992Y1211D02*
X1037Y1211D01*
X1247Y1211D02*
X1271Y1211D01*
X2211Y1211D02*
X2572Y1211D01*
X990Y1210D02*
X1035Y1210D01*
X1247Y1210D02*
X1271Y1210D01*
X2215Y1210D02*
X2567Y1210D01*
X988Y1209D02*
X1033Y1209D01*
X1247Y1209D02*
X1270Y1209D01*
X2220Y1209D02*
X2562Y1209D01*
X987Y1208D02*
X1032Y1208D01*
X1247Y1208D02*
X1270Y1208D01*
X2224Y1208D02*
X2557Y1208D01*
X985Y1207D02*
X1030Y1207D01*
X1246Y1207D02*
X1270Y1207D01*
X2228Y1207D02*
X2552Y1207D01*
X984Y1206D02*
X1028Y1206D01*
X1246Y1206D02*
X1270Y1206D01*
X2233Y1206D02*
X2546Y1206D01*
X982Y1205D02*
X1027Y1205D01*
X1246Y1205D02*
X1270Y1205D01*
X2238Y1205D02*
X2541Y1205D01*
X981Y1204D02*
X1025Y1204D01*
X1246Y1204D02*
X1269Y1204D01*
X2243Y1204D02*
X2535Y1204D01*
X979Y1203D02*
X1023Y1203D01*
X1246Y1203D02*
X1269Y1203D01*
X2248Y1203D02*
X2529Y1203D01*
X978Y1202D02*
X1021Y1202D01*
X1245Y1202D02*
X1269Y1202D01*
X2253Y1202D02*
X2523Y1202D01*
X976Y1201D02*
X1020Y1201D01*
X1245Y1201D02*
X1269Y1201D01*
X2259Y1201D02*
X2517Y1201D01*
X975Y1200D02*
X1018Y1200D01*
X1245Y1200D02*
X1268Y1200D01*
X2265Y1200D02*
X2510Y1200D01*
X974Y1199D02*
X1016Y1199D01*
X1245Y1199D02*
X1268Y1199D01*
X2271Y1199D02*
X2503Y1199D01*
X972Y1198D02*
X1015Y1198D01*
X1245Y1198D02*
X1268Y1198D01*
X2278Y1198D02*
X2495Y1198D01*
X971Y1197D02*
X1013Y1197D01*
X1244Y1197D02*
X1268Y1197D01*
X2285Y1197D02*
X2487Y1197D01*
X969Y1196D02*
X1012Y1196D01*
X1244Y1196D02*
X1268Y1196D01*
X2293Y1196D02*
X2479Y1196D01*
X968Y1195D02*
X1010Y1195D01*
X1244Y1195D02*
X1267Y1195D01*
X2301Y1195D02*
X2469Y1195D01*
X966Y1194D02*
X1009Y1194D01*
X1244Y1194D02*
X1267Y1194D01*
X2311Y1194D02*
X2459Y1194D01*
X965Y1193D02*
X1007Y1193D01*
X1243Y1193D02*
X1267Y1193D01*
X2323Y1193D02*
X2446Y1193D01*
X963Y1192D02*
X1005Y1192D01*
X1243Y1192D02*
X1267Y1192D01*
X2337Y1192D02*
X2431Y1192D01*
X962Y1191D02*
X1004Y1191D01*
X1243Y1191D02*
X1266Y1191D01*
X2358Y1191D02*
X2409Y1191D01*
X960Y1190D02*
X1002Y1190D01*
X1243Y1190D02*
X1266Y1190D01*
X959Y1189D02*
X1001Y1189D01*
X1243Y1189D02*
X1266Y1189D01*
X958Y1188D02*
X999Y1188D01*
X1242Y1188D02*
X1266Y1188D01*
X956Y1187D02*
X998Y1187D01*
X1242Y1187D02*
X1266Y1187D01*
X955Y1186D02*
X996Y1186D01*
X1242Y1186D02*
X1265Y1186D01*
X954Y1185D02*
X994Y1185D01*
X1242Y1185D02*
X1265Y1185D01*
X952Y1184D02*
X993Y1184D01*
X1242Y1184D02*
X1265Y1184D01*
X951Y1183D02*
X992Y1183D01*
X1241Y1183D02*
X1265Y1183D01*
X950Y1182D02*
X990Y1182D01*
X1241Y1182D02*
X1265Y1182D01*
X948Y1181D02*
X989Y1181D01*
X1241Y1181D02*
X1264Y1181D01*
X947Y1180D02*
X987Y1180D01*
X1241Y1180D02*
X1264Y1180D01*
X946Y1179D02*
X986Y1179D01*
X1241Y1179D02*
X1264Y1179D01*
X944Y1178D02*
X984Y1178D01*
X1241Y1178D02*
X1264Y1178D01*
X943Y1177D02*
X983Y1177D01*
X1240Y1177D02*
X1264Y1177D01*
X942Y1176D02*
X981Y1176D01*
X1240Y1176D02*
X1263Y1176D01*
X940Y1175D02*
X980Y1175D01*
X1240Y1175D02*
X1263Y1175D01*
X939Y1174D02*
X979Y1174D01*
X1240Y1174D02*
X1263Y1174D01*
X938Y1173D02*
X977Y1173D01*
X1240Y1173D02*
X1263Y1173D01*
X936Y1172D02*
X976Y1172D01*
X1239Y1172D02*
X1263Y1172D01*
X935Y1171D02*
X974Y1171D01*
X1239Y1171D02*
X1263Y1171D01*
X934Y1170D02*
X973Y1170D01*
X1239Y1170D02*
X1262Y1170D01*
X933Y1169D02*
X971Y1169D01*
X1239Y1169D02*
X1262Y1169D01*
X931Y1168D02*
X970Y1168D01*
X1239Y1168D02*
X1262Y1168D01*
X930Y1167D02*
X969Y1167D01*
X1239Y1167D02*
X1262Y1167D01*
X929Y1166D02*
X967Y1166D01*
X1238Y1166D02*
X1262Y1166D01*
X928Y1165D02*
X966Y1165D01*
X1238Y1165D02*
X1261Y1165D01*
X926Y1164D02*
X965Y1164D01*
X1238Y1164D02*
X1261Y1164D01*
X925Y1163D02*
X963Y1163D01*
X1238Y1163D02*
X1261Y1163D01*
X924Y1162D02*
X962Y1162D01*
X1238Y1162D02*
X1261Y1162D01*
X923Y1161D02*
X961Y1161D01*
X1238Y1161D02*
X1261Y1161D01*
X921Y1160D02*
X959Y1160D01*
X1237Y1160D02*
X1261Y1160D01*
X920Y1159D02*
X958Y1159D01*
X1237Y1159D02*
X1260Y1159D01*
X919Y1158D02*
X957Y1158D01*
X1237Y1158D02*
X1260Y1158D01*
X918Y1157D02*
X955Y1157D01*
X1237Y1157D02*
X1260Y1157D01*
X916Y1156D02*
X954Y1156D01*
X1237Y1156D02*
X1260Y1156D01*
X915Y1155D02*
X953Y1155D01*
X1237Y1155D02*
X1260Y1155D01*
X914Y1154D02*
X951Y1154D01*
X1236Y1154D02*
X1260Y1154D01*
X913Y1153D02*
X950Y1153D01*
X1236Y1153D02*
X1259Y1153D01*
X912Y1152D02*
X949Y1152D01*
X1236Y1152D02*
X1259Y1152D01*
X911Y1151D02*
X948Y1151D01*
X1236Y1151D02*
X1259Y1151D01*
X909Y1150D02*
X946Y1150D01*
X1236Y1150D02*
X1259Y1150D01*
X908Y1149D02*
X945Y1149D01*
X1236Y1149D02*
X1259Y1149D01*
X907Y1148D02*
X944Y1148D01*
X1235Y1148D02*
X1259Y1148D01*
X906Y1147D02*
X942Y1147D01*
X1235Y1147D02*
X1259Y1147D01*
X905Y1146D02*
X941Y1146D01*
X1235Y1146D02*
X1258Y1146D01*
X903Y1145D02*
X940Y1145D01*
X1235Y1145D02*
X1258Y1145D01*
X902Y1144D02*
X939Y1144D01*
X1235Y1144D02*
X1258Y1144D01*
X901Y1143D02*
X937Y1143D01*
X1235Y1143D02*
X1258Y1143D01*
X900Y1142D02*
X936Y1142D01*
X1235Y1142D02*
X1258Y1142D01*
X899Y1141D02*
X935Y1141D01*
X1235Y1141D02*
X1258Y1141D01*
X898Y1140D02*
X934Y1140D01*
X1234Y1140D02*
X1257Y1140D01*
X896Y1139D02*
X932Y1139D01*
X1234Y1139D02*
X1257Y1139D01*
X895Y1138D02*
X931Y1138D01*
X1234Y1138D02*
X1257Y1138D01*
X894Y1137D02*
X930Y1137D01*
X1234Y1137D02*
X1257Y1137D01*
X893Y1136D02*
X929Y1136D01*
X1234Y1136D02*
X1257Y1136D01*
X892Y1135D02*
X928Y1135D01*
X1234Y1135D02*
X1257Y1135D01*
X891Y1134D02*
X926Y1134D01*
X1234Y1134D02*
X1257Y1134D01*
X890Y1133D02*
X925Y1133D01*
X1233Y1133D02*
X1256Y1133D01*
X889Y1132D02*
X924Y1132D01*
X1233Y1132D02*
X1256Y1132D01*
X888Y1131D02*
X923Y1131D01*
X1233Y1131D02*
X1256Y1131D01*
X886Y1130D02*
X922Y1130D01*
X1233Y1130D02*
X1256Y1130D01*
X885Y1129D02*
X921Y1129D01*
X1233Y1129D02*
X1256Y1129D01*
X884Y1128D02*
X919Y1128D01*
X1233Y1128D02*
X1256Y1128D01*
X883Y1127D02*
X918Y1127D01*
X1233Y1127D02*
X1256Y1127D01*
X882Y1126D02*
X917Y1126D01*
X1233Y1126D02*
X1256Y1126D01*
X881Y1125D02*
X916Y1125D01*
X1232Y1125D02*
X1255Y1125D01*
X880Y1124D02*
X915Y1124D01*
X1232Y1124D02*
X1255Y1124D01*
X879Y1123D02*
X914Y1123D01*
X1232Y1123D02*
X1255Y1123D01*
X878Y1122D02*
X912Y1122D01*
X1232Y1122D02*
X1255Y1122D01*
X877Y1121D02*
X911Y1121D01*
X1232Y1121D02*
X1255Y1121D01*
X876Y1120D02*
X910Y1120D01*
X1232Y1120D02*
X1255Y1120D01*
X875Y1119D02*
X909Y1119D01*
X1232Y1119D02*
X1255Y1119D01*
X873Y1118D02*
X908Y1118D01*
X1232Y1118D02*
X1255Y1118D01*
X872Y1117D02*
X907Y1117D01*
X1231Y1117D02*
X1254Y1117D01*
X871Y1116D02*
X906Y1116D01*
X1231Y1116D02*
X1254Y1116D01*
X870Y1115D02*
X905Y1115D01*
X1231Y1115D02*
X1254Y1115D01*
X869Y1114D02*
X903Y1114D01*
X1231Y1114D02*
X1254Y1114D01*
X868Y1113D02*
X902Y1113D01*
X1231Y1113D02*
X1254Y1113D01*
X867Y1112D02*
X901Y1112D01*
X1231Y1112D02*
X1254Y1112D01*
X866Y1111D02*
X900Y1111D01*
X1231Y1111D02*
X1254Y1111D01*
X865Y1110D02*
X899Y1110D01*
X1231Y1110D02*
X1254Y1110D01*
X864Y1109D02*
X898Y1109D01*
X1231Y1109D02*
X1254Y1109D01*
X863Y1108D02*
X897Y1108D01*
X1230Y1108D02*
X1253Y1108D01*
X862Y1107D02*
X896Y1107D01*
X1230Y1107D02*
X1253Y1107D01*
X861Y1106D02*
X895Y1106D01*
X1230Y1106D02*
X1253Y1106D01*
X860Y1105D02*
X894Y1105D01*
X1230Y1105D02*
X1253Y1105D01*
X859Y1104D02*
X893Y1104D01*
X1230Y1104D02*
X1253Y1104D01*
X858Y1103D02*
X892Y1103D01*
X1230Y1103D02*
X1253Y1103D01*
X857Y1102D02*
X890Y1102D01*
X1230Y1102D02*
X1253Y1102D01*
X856Y1101D02*
X889Y1101D01*
X1230Y1101D02*
X1253Y1101D01*
X855Y1100D02*
X888Y1100D01*
X1230Y1100D02*
X1253Y1100D01*
X854Y1099D02*
X887Y1099D01*
X1230Y1099D02*
X1252Y1099D01*
X853Y1098D02*
X886Y1098D01*
X1229Y1098D02*
X1252Y1098D01*
X852Y1097D02*
X885Y1097D01*
X1229Y1097D02*
X1252Y1097D01*
X851Y1096D02*
X884Y1096D01*
X1229Y1096D02*
X1252Y1096D01*
X850Y1095D02*
X883Y1095D01*
X1229Y1095D02*
X1252Y1095D01*
X849Y1094D02*
X882Y1094D01*
X1229Y1094D02*
X1252Y1094D01*
X848Y1093D02*
X881Y1093D01*
X1229Y1093D02*
X1252Y1093D01*
X847Y1092D02*
X880Y1092D01*
X1229Y1092D02*
X1252Y1092D01*
X846Y1091D02*
X879Y1091D01*
X1229Y1091D02*
X1252Y1091D01*
X845Y1090D02*
X878Y1090D01*
X1229Y1090D02*
X1252Y1090D01*
X844Y1089D02*
X877Y1089D01*
X1229Y1089D02*
X1252Y1089D01*
X843Y1088D02*
X876Y1088D01*
X1229Y1088D02*
X1252Y1088D01*
X842Y1087D02*
X875Y1087D01*
X1228Y1087D02*
X1251Y1087D01*
X841Y1086D02*
X874Y1086D01*
X1228Y1086D02*
X1251Y1086D01*
X840Y1085D02*
X873Y1085D01*
X1228Y1085D02*
X1251Y1085D01*
X839Y1084D02*
X872Y1084D01*
X1228Y1084D02*
X1251Y1084D01*
X838Y1083D02*
X871Y1083D01*
X1228Y1083D02*
X1251Y1083D01*
X837Y1082D02*
X870Y1082D01*
X1228Y1082D02*
X1251Y1082D01*
X836Y1081D02*
X869Y1081D01*
X1228Y1081D02*
X1251Y1081D01*
X836Y1080D02*
X868Y1080D01*
X1228Y1080D02*
X1251Y1080D01*
X835Y1079D02*
X867Y1079D01*
X1228Y1079D02*
X1251Y1079D01*
X834Y1078D02*
X866Y1078D01*
X1228Y1078D02*
X1251Y1078D01*
X833Y1077D02*
X865Y1077D01*
X1228Y1077D02*
X1251Y1077D01*
X832Y1076D02*
X864Y1076D01*
X1228Y1076D02*
X1251Y1076D01*
X831Y1075D02*
X863Y1075D01*
X1228Y1075D02*
X1250Y1075D01*
X830Y1074D02*
X862Y1074D01*
X1227Y1074D02*
X1250Y1074D01*
X829Y1073D02*
X861Y1073D01*
X1227Y1073D02*
X1250Y1073D01*
X828Y1072D02*
X860Y1072D01*
X1227Y1072D02*
X1250Y1072D01*
X827Y1071D02*
X859Y1071D01*
X1227Y1071D02*
X1250Y1071D01*
X826Y1070D02*
X858Y1070D01*
X1227Y1070D02*
X1250Y1070D01*
X825Y1069D02*
X857Y1069D01*
X1227Y1069D02*
X1250Y1069D01*
X824Y1068D02*
X856Y1068D01*
X1227Y1068D02*
X1250Y1068D01*
X824Y1067D02*
X855Y1067D01*
X1227Y1067D02*
X1250Y1067D01*
X823Y1066D02*
X854Y1066D01*
X1227Y1066D02*
X1250Y1066D01*
X822Y1065D02*
X853Y1065D01*
X1227Y1065D02*
X1250Y1065D01*
X821Y1064D02*
X852Y1064D01*
X1227Y1064D02*
X1250Y1064D01*
X820Y1063D02*
X851Y1063D01*
X1227Y1063D02*
X1250Y1063D01*
X819Y1062D02*
X851Y1062D01*
X1227Y1062D02*
X1250Y1062D01*
X818Y1061D02*
X850Y1061D01*
X1227Y1061D02*
X1250Y1061D01*
X817Y1060D02*
X849Y1060D01*
X1227Y1060D02*
X1250Y1060D01*
X816Y1059D02*
X848Y1059D01*
X1227Y1059D02*
X1249Y1059D01*
X815Y1058D02*
X847Y1058D01*
X1227Y1058D02*
X1249Y1058D01*
X815Y1057D02*
X846Y1057D01*
X1226Y1057D02*
X1249Y1057D01*
X814Y1056D02*
X845Y1056D01*
X1226Y1056D02*
X1249Y1056D01*
X813Y1055D02*
X844Y1055D01*
X1226Y1055D02*
X1249Y1055D01*
X812Y1054D02*
X843Y1054D01*
X1226Y1054D02*
X1249Y1054D01*
X811Y1053D02*
X842Y1053D01*
X1226Y1053D02*
X1249Y1053D01*
X810Y1052D02*
X841Y1052D01*
X1226Y1052D02*
X1249Y1052D01*
X809Y1051D02*
X840Y1051D01*
X1226Y1051D02*
X1249Y1051D01*
X808Y1050D02*
X839Y1050D01*
X1226Y1050D02*
X1249Y1050D01*
X808Y1049D02*
X839Y1049D01*
X1226Y1049D02*
X1249Y1049D01*
X807Y1048D02*
X838Y1048D01*
X1226Y1048D02*
X1249Y1048D01*
X806Y1047D02*
X837Y1047D01*
X1226Y1047D02*
X1249Y1047D01*
X805Y1046D02*
X836Y1046D01*
X1226Y1046D02*
X1249Y1046D01*
X804Y1045D02*
X835Y1045D01*
X1226Y1045D02*
X1249Y1045D01*
X803Y1044D02*
X834Y1044D01*
X1226Y1044D02*
X1249Y1044D01*
X802Y1043D02*
X833Y1043D01*
X1226Y1043D02*
X1249Y1043D01*
X802Y1042D02*
X832Y1042D01*
X1226Y1042D02*
X1249Y1042D01*
X801Y1041D02*
X831Y1041D01*
X1226Y1041D02*
X1249Y1041D01*
X800Y1040D02*
X831Y1040D01*
X1226Y1040D02*
X1249Y1040D01*
X799Y1039D02*
X830Y1039D01*
X1226Y1039D02*
X1249Y1039D01*
X798Y1038D02*
X829Y1038D01*
X1226Y1038D02*
X1249Y1038D01*
X797Y1037D02*
X828Y1037D01*
X1226Y1037D02*
X1249Y1037D01*
X797Y1036D02*
X827Y1036D01*
X1226Y1036D02*
X1248Y1036D01*
X796Y1035D02*
X826Y1035D01*
X1226Y1035D02*
X1248Y1035D01*
X795Y1034D02*
X825Y1034D01*
X1226Y1034D02*
X1248Y1034D01*
X794Y1033D02*
X824Y1033D01*
X1226Y1033D02*
X1248Y1033D01*
X793Y1032D02*
X824Y1032D01*
X1226Y1032D02*
X1248Y1032D01*
X792Y1031D02*
X823Y1031D01*
X1225Y1031D02*
X1248Y1031D01*
X791Y1030D02*
X822Y1030D01*
X1225Y1030D02*
X1248Y1030D01*
X791Y1029D02*
X821Y1029D01*
X1225Y1029D02*
X1248Y1029D01*
X790Y1028D02*
X820Y1028D01*
X1225Y1028D02*
X1248Y1028D01*
X789Y1027D02*
X819Y1027D01*
X1225Y1027D02*
X1248Y1027D01*
X788Y1026D02*
X818Y1026D01*
X1225Y1026D02*
X1248Y1026D01*
X787Y1025D02*
X818Y1025D01*
X1225Y1025D02*
X1248Y1025D01*
X787Y1024D02*
X817Y1024D01*
X1225Y1024D02*
X1248Y1024D01*
X786Y1023D02*
X816Y1023D01*
X1225Y1023D02*
X1248Y1023D01*
X785Y1022D02*
X815Y1022D01*
X1225Y1022D02*
X1248Y1022D01*
X784Y1021D02*
X814Y1021D01*
X1225Y1021D02*
X1248Y1021D01*
X783Y1020D02*
X813Y1020D01*
X1225Y1020D02*
X1248Y1020D01*
X783Y1019D02*
X813Y1019D01*
X1225Y1019D02*
X1248Y1019D01*
X782Y1018D02*
X812Y1018D01*
X1225Y1018D02*
X1248Y1018D01*
X781Y1017D02*
X811Y1017D01*
X1225Y1017D02*
X1248Y1017D01*
X780Y1016D02*
X810Y1016D01*
X1225Y1016D02*
X1248Y1016D01*
X779Y1015D02*
X809Y1015D01*
X1225Y1015D02*
X1248Y1015D01*
X779Y1014D02*
X808Y1014D01*
X1225Y1014D02*
X1248Y1014D01*
X778Y1013D02*
X808Y1013D01*
X1225Y1013D02*
X1248Y1013D01*
X778Y1012D02*
X807Y1012D01*
X1225Y1012D02*
X1248Y1012D01*
X778Y1011D02*
X806Y1011D01*
X1225Y1011D02*
X1248Y1011D01*
X778Y1010D02*
X805Y1010D01*
X1225Y1010D02*
X1248Y1010D01*
X777Y1009D02*
X804Y1009D01*
X1225Y1009D02*
X1248Y1009D01*
X777Y1008D02*
X804Y1008D01*
X1225Y1008D02*
X1248Y1008D01*
X777Y1007D02*
X803Y1007D01*
X1225Y1007D02*
X1248Y1007D01*
X778Y1006D02*
X804Y1006D01*
X1225Y1006D02*
X1248Y1006D01*
X778Y1005D02*
X804Y1005D01*
X1225Y1005D02*
X1248Y1005D01*
X778Y1004D02*
X805Y1004D01*
X1225Y1004D02*
X1248Y1004D01*
X779Y1003D02*
X805Y1003D01*
X1225Y1003D02*
X1248Y1003D01*
X779Y1002D02*
X806Y1002D01*
X1225Y1002D02*
X1248Y1002D01*
X780Y1001D02*
X807Y1001D01*
X1225Y1001D02*
X1248Y1001D01*
X780Y1000D02*
X807Y1000D01*
X1225Y1000D02*
X1248Y1000D01*
X781Y999D02*
X808Y999D01*
X1225Y999D02*
X1248Y999D01*
X781Y998D02*
X808Y998D01*
X1225Y998D02*
X1248Y998D01*
X782Y997D02*
X809Y997D01*
X1225Y997D02*
X1248Y997D01*
X783Y996D02*
X810Y996D01*
X1225Y996D02*
X1248Y996D01*
X783Y995D02*
X810Y995D01*
X1225Y995D02*
X1248Y995D01*
X784Y994D02*
X811Y994D01*
X1225Y994D02*
X1248Y994D01*
X784Y993D02*
X812Y993D01*
X1225Y993D02*
X1248Y993D01*
X785Y992D02*
X812Y992D01*
X1225Y992D02*
X1248Y992D01*
X786Y991D02*
X813Y991D01*
X1225Y991D02*
X1248Y991D01*
X786Y990D02*
X813Y990D01*
X1225Y990D02*
X1248Y990D01*
X787Y989D02*
X814Y989D01*
X1225Y989D02*
X1248Y989D01*
X787Y988D02*
X815Y988D01*
X1225Y988D02*
X1248Y988D01*
X788Y987D02*
X815Y987D01*
X1225Y987D02*
X1248Y987D01*
X789Y986D02*
X816Y986D01*
X1225Y986D02*
X1248Y986D01*
X789Y985D02*
X817Y985D01*
X1225Y985D02*
X1248Y985D01*
X790Y984D02*
X817Y984D01*
X1225Y984D02*
X1248Y984D01*
X791Y983D02*
X818Y983D01*
X1225Y983D02*
X1248Y983D01*
X791Y982D02*
X819Y982D01*
X1225Y982D02*
X1248Y982D01*
X792Y981D02*
X819Y981D01*
X1225Y981D02*
X1248Y981D01*
X792Y980D02*
X820Y980D01*
X1225Y980D02*
X1248Y980D01*
X793Y979D02*
X821Y979D01*
X1225Y979D02*
X1248Y979D01*
X794Y978D02*
X821Y978D01*
X1225Y978D02*
X1248Y978D01*
X794Y977D02*
X822Y977D01*
X1226Y977D02*
X1248Y977D01*
X795Y976D02*
X823Y976D01*
X1226Y976D02*
X1248Y976D01*
X796Y975D02*
X823Y975D01*
X1226Y975D02*
X1248Y975D01*
X796Y974D02*
X824Y974D01*
X1226Y974D02*
X1248Y974D01*
X797Y973D02*
X825Y973D01*
X1226Y973D02*
X1248Y973D01*
X798Y972D02*
X826Y972D01*
X1226Y972D02*
X1249Y972D01*
X798Y971D02*
X826Y971D01*
X1226Y971D02*
X1249Y971D01*
X799Y970D02*
X827Y970D01*
X1226Y970D02*
X1249Y970D01*
X800Y969D02*
X828Y969D01*
X1226Y969D02*
X1249Y969D01*
X800Y968D02*
X828Y968D01*
X1226Y968D02*
X1249Y968D01*
X801Y967D02*
X829Y967D01*
X1226Y967D02*
X1249Y967D01*
X802Y966D02*
X830Y966D01*
X1226Y966D02*
X1249Y966D01*
X802Y965D02*
X831Y965D01*
X1226Y965D02*
X1249Y965D01*
X803Y964D02*
X831Y964D01*
X1226Y964D02*
X1249Y964D01*
X804Y963D02*
X832Y963D01*
X1226Y963D02*
X1249Y963D01*
X804Y962D02*
X833Y962D01*
X1226Y962D02*
X1249Y962D01*
X805Y961D02*
X833Y961D01*
X1226Y961D02*
X1249Y961D01*
X806Y960D02*
X834Y960D01*
X1226Y960D02*
X1249Y960D01*
X806Y959D02*
X835Y959D01*
X1226Y959D02*
X1249Y959D01*
X807Y958D02*
X836Y958D01*
X1226Y958D02*
X1249Y958D01*
X808Y957D02*
X836Y957D01*
X1226Y957D02*
X1249Y957D01*
X809Y956D02*
X837Y956D01*
X1226Y956D02*
X1249Y956D01*
X809Y955D02*
X838Y955D01*
X1226Y955D02*
X1249Y955D01*
X810Y954D02*
X839Y954D01*
X1226Y954D02*
X1249Y954D01*
X811Y953D02*
X840Y953D01*
X1226Y953D02*
X1249Y953D01*
X811Y952D02*
X840Y952D01*
X1226Y952D02*
X1249Y952D01*
X812Y951D02*
X841Y951D01*
X1226Y951D02*
X1249Y951D01*
X813Y950D02*
X842Y950D01*
X1226Y950D02*
X1249Y950D01*
X814Y949D02*
X843Y949D01*
X1227Y949D02*
X1249Y949D01*
X814Y948D02*
X843Y948D01*
X1227Y948D02*
X1250Y948D01*
X815Y947D02*
X844Y947D01*
X1227Y947D02*
X1250Y947D01*
X816Y946D02*
X845Y946D01*
X1227Y946D02*
X1250Y946D01*
X817Y945D02*
X846Y945D01*
X1227Y945D02*
X1250Y945D01*
X817Y944D02*
X847Y944D01*
X1227Y944D02*
X1250Y944D01*
X818Y943D02*
X847Y943D01*
X1227Y943D02*
X1250Y943D01*
X819Y942D02*
X848Y942D01*
X1227Y942D02*
X1250Y942D01*
X820Y941D02*
X849Y941D01*
X1227Y941D02*
X1250Y941D01*
X820Y940D02*
X850Y940D01*
X1227Y940D02*
X1250Y940D01*
X821Y939D02*
X851Y939D01*
X1227Y939D02*
X1250Y939D01*
X822Y938D02*
X851Y938D01*
X1227Y938D02*
X1250Y938D01*
X823Y937D02*
X852Y937D01*
X1227Y937D02*
X1250Y937D01*
X823Y936D02*
X853Y936D01*
X1227Y936D02*
X1250Y936D01*
X824Y935D02*
X854Y935D01*
X1227Y935D02*
X1250Y935D01*
X825Y934D02*
X855Y934D01*
X1227Y934D02*
X1250Y934D01*
X826Y933D02*
X855Y933D01*
X1227Y933D02*
X1250Y933D01*
X827Y932D02*
X856Y932D01*
X1227Y932D02*
X1250Y932D01*
X827Y931D02*
X857Y931D01*
X1228Y931D02*
X1251Y931D01*
X828Y930D02*
X858Y930D01*
X1228Y930D02*
X1251Y930D01*
X829Y929D02*
X859Y929D01*
X1228Y929D02*
X1251Y929D01*
X830Y928D02*
X860Y928D01*
X1228Y928D02*
X1251Y928D01*
X831Y927D02*
X861Y927D01*
X1228Y927D02*
X1251Y927D01*
X831Y926D02*
X861Y926D01*
X1228Y926D02*
X1251Y926D01*
X832Y925D02*
X862Y925D01*
X1228Y925D02*
X1251Y925D01*
X833Y924D02*
X863Y924D01*
X1228Y924D02*
X1251Y924D01*
X834Y923D02*
X864Y923D01*
X1228Y923D02*
X1251Y923D01*
X835Y922D02*
X865Y922D01*
X1228Y922D02*
X1251Y922D01*
X835Y921D02*
X866Y921D01*
X1228Y921D02*
X1251Y921D01*
X836Y920D02*
X867Y920D01*
X1228Y920D02*
X1251Y920D01*
X837Y919D02*
X868Y919D01*
X1228Y919D02*
X1251Y919D01*
X838Y918D02*
X869Y918D01*
X1228Y918D02*
X1251Y918D01*
X839Y917D02*
X869Y917D01*
X1229Y917D02*
X1252Y917D01*
X840Y916D02*
X870Y916D01*
X1229Y916D02*
X1252Y916D01*
X840Y915D02*
X871Y915D01*
X1229Y915D02*
X1252Y915D01*
X841Y914D02*
X872Y914D01*
X1229Y914D02*
X1252Y914D01*
X842Y913D02*
X873Y913D01*
X1229Y913D02*
X1252Y913D01*
X843Y912D02*
X874Y912D01*
X1229Y912D02*
X1252Y912D01*
X844Y911D02*
X875Y911D01*
X1229Y911D02*
X1252Y911D01*
X845Y910D02*
X876Y910D01*
X1229Y910D02*
X1252Y910D01*
X846Y909D02*
X876Y909D01*
X1229Y909D02*
X1252Y909D01*
X846Y908D02*
X877Y908D01*
X1229Y908D02*
X1252Y908D01*
X847Y907D02*
X878Y907D01*
X1229Y907D02*
X1252Y907D01*
X848Y906D02*
X879Y906D01*
X1229Y906D02*
X1252Y906D01*
X849Y905D02*
X880Y905D01*
X1230Y905D02*
X1253Y905D01*
X850Y904D02*
X881Y904D01*
X1230Y904D02*
X1253Y904D01*
X851Y903D02*
X882Y903D01*
X1230Y903D02*
X1253Y903D01*
X852Y902D02*
X883Y902D01*
X1230Y902D02*
X1253Y902D01*
X853Y901D02*
X884Y901D01*
X1230Y901D02*
X1253Y901D01*
X853Y900D02*
X885Y900D01*
X1230Y900D02*
X1253Y900D01*
X854Y899D02*
X886Y899D01*
X1230Y899D02*
X1253Y899D01*
X855Y898D02*
X887Y898D01*
X1230Y898D02*
X1253Y898D01*
X856Y897D02*
X888Y897D01*
X1230Y897D02*
X1253Y897D01*
X857Y896D02*
X889Y896D01*
X1230Y896D02*
X1253Y896D01*
X858Y895D02*
X890Y895D01*
X1230Y895D02*
X1253Y895D01*
X859Y894D02*
X891Y894D01*
X1231Y894D02*
X1254Y894D01*
X860Y893D02*
X892Y893D01*
X1231Y893D02*
X1254Y893D01*
X861Y892D02*
X893Y892D01*
X1231Y892D02*
X1254Y892D01*
X862Y891D02*
X894Y891D01*
X1231Y891D02*
X1254Y891D01*
X863Y890D02*
X895Y890D01*
X1231Y890D02*
X1254Y890D01*
X864Y889D02*
X896Y889D01*
X1231Y889D02*
X1254Y889D01*
X864Y888D02*
X896Y888D01*
X1231Y888D02*
X1254Y888D01*
X865Y887D02*
X897Y887D01*
X1231Y887D02*
X1254Y887D01*
X866Y886D02*
X899Y886D01*
X1231Y886D02*
X1254Y886D01*
X867Y885D02*
X900Y885D01*
X1231Y885D02*
X1254Y885D01*
X868Y884D02*
X901Y884D01*
X1231Y884D02*
X1255Y884D01*
X869Y883D02*
X902Y883D01*
X1232Y883D02*
X1255Y883D01*
X870Y882D02*
X903Y882D01*
X1232Y882D02*
X1255Y882D01*
X871Y881D02*
X904Y881D01*
X1232Y881D02*
X1255Y881D01*
X872Y880D02*
X905Y880D01*
X1232Y880D02*
X1255Y880D01*
X873Y879D02*
X906Y879D01*
X1232Y879D02*
X1255Y879D01*
X874Y878D02*
X907Y878D01*
X1232Y878D02*
X1255Y878D01*
X875Y877D02*
X908Y877D01*
X1232Y877D02*
X1255Y877D01*
X876Y876D02*
X909Y876D01*
X1232Y876D02*
X1256Y876D01*
X877Y875D02*
X910Y875D01*
X1232Y875D02*
X1256Y875D01*
X878Y874D02*
X911Y874D01*
X1233Y874D02*
X1256Y874D01*
X879Y873D02*
X912Y873D01*
X1233Y873D02*
X1256Y873D01*
X880Y872D02*
X913Y872D01*
X1233Y872D02*
X1256Y872D01*
X881Y871D02*
X914Y871D01*
X1233Y871D02*
X1256Y871D01*
X882Y870D02*
X915Y870D01*
X1233Y870D02*
X1256Y870D01*
X883Y869D02*
X916Y869D01*
X1233Y869D02*
X1256Y869D01*
X884Y868D02*
X917Y868D01*
X1233Y868D02*
X1256Y868D01*
X885Y867D02*
X918Y867D01*
X1233Y867D02*
X1257Y867D01*
X886Y866D02*
X919Y866D01*
X1233Y866D02*
X1257Y866D01*
X887Y865D02*
X920Y865D01*
X1234Y865D02*
X1257Y865D01*
X888Y864D02*
X921Y864D01*
X1234Y864D02*
X1257Y864D01*
X889Y863D02*
X923Y863D01*
X1234Y863D02*
X1257Y863D01*
X890Y862D02*
X924Y862D01*
X1234Y862D02*
X1257Y862D01*
X891Y861D02*
X925Y861D01*
X1234Y861D02*
X1257Y861D01*
X892Y860D02*
X926Y860D01*
X1234Y860D02*
X1257Y860D01*
X893Y859D02*
X927Y859D01*
X1234Y859D02*
X1258Y859D01*
X894Y858D02*
X928Y858D01*
X1234Y858D02*
X1258Y858D01*
X895Y857D02*
X929Y857D01*
X1235Y857D02*
X1258Y857D01*
X896Y856D02*
X930Y856D01*
X1235Y856D02*
X1258Y856D01*
X897Y855D02*
X931Y855D01*
X1235Y855D02*
X1258Y855D01*
X898Y854D02*
X932Y854D01*
X1235Y854D02*
X1258Y854D01*
X899Y853D02*
X934Y853D01*
X1235Y853D02*
X1258Y853D01*
X900Y852D02*
X935Y852D01*
X1235Y852D02*
X1258Y852D01*
X901Y851D02*
X936Y851D01*
X1235Y851D02*
X1259Y851D01*
X902Y850D02*
X937Y850D01*
X1236Y850D02*
X1259Y850D01*
X904Y849D02*
X938Y849D01*
X1236Y849D02*
X1259Y849D01*
X905Y848D02*
X939Y848D01*
X1236Y848D02*
X1259Y848D01*
X906Y847D02*
X940Y847D01*
X1236Y847D02*
X1259Y847D01*
X907Y846D02*
X942Y846D01*
X1236Y846D02*
X1259Y846D01*
X908Y845D02*
X943Y845D01*
X1236Y845D02*
X1259Y845D01*
X909Y844D02*
X944Y844D01*
X1236Y844D02*
X1260Y844D01*
X910Y843D02*
X945Y843D01*
X1236Y843D02*
X1260Y843D01*
X911Y842D02*
X946Y842D01*
X1237Y842D02*
X1260Y842D01*
X912Y841D02*
X947Y841D01*
X1237Y841D02*
X1260Y841D01*
X913Y840D02*
X948Y840D01*
X1237Y840D02*
X1260Y840D01*
X914Y839D02*
X950Y839D01*
X1237Y839D02*
X1260Y839D01*
X916Y838D02*
X951Y838D01*
X1237Y838D02*
X1260Y838D01*
X917Y837D02*
X952Y837D01*
X1237Y837D02*
X1260Y837D01*
X918Y836D02*
X953Y836D01*
X1237Y836D02*
X1261Y836D01*
X919Y835D02*
X954Y835D01*
X1238Y835D02*
X1261Y835D01*
X920Y834D02*
X955Y834D01*
X1238Y834D02*
X1261Y834D01*
X921Y833D02*
X957Y833D01*
X1238Y833D02*
X1261Y833D01*
X922Y832D02*
X958Y832D01*
X1238Y832D02*
X1261Y832D01*
X923Y831D02*
X959Y831D01*
X1238Y831D02*
X1261Y831D01*
X925Y830D02*
X960Y830D01*
X1238Y830D02*
X1262Y830D01*
X926Y829D02*
X962Y829D01*
X1238Y829D02*
X1262Y829D01*
X927Y828D02*
X963Y828D01*
X1239Y828D02*
X1262Y828D01*
X928Y827D02*
X964Y827D01*
X1239Y827D02*
X1262Y827D01*
X929Y826D02*
X965Y826D01*
X1239Y826D02*
X1262Y826D01*
X930Y825D02*
X967Y825D01*
X1239Y825D02*
X1262Y825D01*
X932Y824D02*
X968Y824D01*
X1239Y824D02*
X1262Y824D01*
X933Y823D02*
X969Y823D01*
X1239Y823D02*
X1263Y823D01*
X934Y822D02*
X970Y822D01*
X1240Y822D02*
X1263Y822D01*
X935Y821D02*
X971Y821D01*
X1240Y821D02*
X1263Y821D01*
X936Y820D02*
X973Y820D01*
X1240Y820D02*
X1263Y820D01*
X937Y819D02*
X974Y819D01*
X1240Y819D02*
X1263Y819D01*
X938Y818D02*
X975Y818D01*
X1240Y818D02*
X1263Y818D01*
X940Y817D02*
X976Y817D01*
X1240Y817D02*
X1264Y817D01*
X941Y816D02*
X978Y816D01*
X1240Y816D02*
X1264Y816D01*
X942Y815D02*
X979Y815D01*
X1241Y815D02*
X1264Y815D01*
X943Y814D02*
X980Y814D01*
X1241Y814D02*
X1264Y814D01*
X944Y813D02*
X982Y813D01*
X1241Y813D02*
X1264Y813D01*
X946Y812D02*
X983Y812D01*
X1241Y812D02*
X1264Y812D01*
X947Y811D02*
X984Y811D01*
X1241Y811D02*
X1265Y811D01*
X948Y810D02*
X985Y810D01*
X1241Y810D02*
X1265Y810D01*
X949Y809D02*
X987Y809D01*
X1242Y809D02*
X1265Y809D01*
X951Y808D02*
X988Y808D01*
X1242Y808D02*
X1265Y808D01*
X952Y807D02*
X989Y807D01*
X1242Y807D02*
X1265Y807D01*
X953Y806D02*
X991Y806D01*
X1242Y806D02*
X1265Y806D01*
X954Y805D02*
X992Y805D01*
X1242Y805D02*
X1266Y805D01*
X956Y804D02*
X993Y804D01*
X1242Y804D02*
X1266Y804D01*
X957Y803D02*
X995Y803D01*
X1243Y803D02*
X1266Y803D01*
X958Y802D02*
X996Y802D01*
X1243Y802D02*
X1266Y802D01*
X959Y801D02*
X997Y801D01*
X1243Y801D02*
X1266Y801D01*
X960Y800D02*
X998Y800D01*
X1243Y800D02*
X1266Y800D01*
X962Y799D02*
X1000Y799D01*
X1243Y799D02*
X1267Y799D01*
X963Y798D02*
X1001Y798D01*
X1243Y798D02*
X1267Y798D01*
X964Y797D02*
X1003Y797D01*
X1244Y797D02*
X1267Y797D01*
X965Y796D02*
X1004Y796D01*
X1244Y796D02*
X1267Y796D01*
X967Y795D02*
X1005Y795D01*
X1244Y795D02*
X1267Y795D01*
X968Y794D02*
X1007Y794D01*
X1244Y794D02*
X1267Y794D01*
X969Y793D02*
X1008Y793D01*
X1244Y793D02*
X1268Y793D01*
X971Y792D02*
X1009Y792D01*
X1244Y792D02*
X1268Y792D01*
X972Y791D02*
X1011Y791D01*
X1245Y791D02*
X1268Y791D01*
X973Y790D02*
X1012Y790D01*
X1245Y790D02*
X1268Y790D01*
X975Y789D02*
X1013Y789D01*
X1245Y789D02*
X1268Y789D01*
X976Y788D02*
X1015Y788D01*
X1245Y788D02*
X1269Y788D01*
X977Y787D02*
X1016Y787D01*
X1245Y787D02*
X1269Y787D01*
X978Y786D02*
X1018Y786D01*
X1246Y786D02*
X1269Y786D01*
X980Y785D02*
X1019Y785D01*
X1246Y785D02*
X1269Y785D01*
X981Y784D02*
X1020Y784D01*
X1246Y784D02*
X1269Y784D01*
X982Y783D02*
X1022Y783D01*
X1246Y783D02*
X1270Y783D01*
X984Y782D02*
X1023Y782D01*
X1246Y782D02*
X1270Y782D01*
X985Y781D02*
X1025Y781D01*
X1246Y781D02*
X1270Y781D01*
X986Y780D02*
X1026Y780D01*
X1247Y780D02*
X1270Y780D01*
X988Y779D02*
X1028Y779D01*
X1247Y779D02*
X1270Y779D01*
X989Y778D02*
X1029Y778D01*
X1247Y778D02*
X1270Y778D01*
X990Y777D02*
X1030Y777D01*
X1247Y777D02*
X1271Y777D01*
X992Y776D02*
X1032Y776D01*
X1247Y776D02*
X1271Y776D01*
X993Y775D02*
X1033Y775D01*
X1248Y775D02*
X1271Y775D01*
X994Y774D02*
X1035Y774D01*
X1248Y774D02*
X1271Y774D01*
X996Y773D02*
X1036Y773D01*
X1248Y773D02*
X1271Y773D01*
X997Y772D02*
X1038Y772D01*
X1248Y772D02*
X1272Y772D01*
X999Y771D02*
X1039Y771D01*
X1248Y771D02*
X1272Y771D01*
X1000Y770D02*
X1040Y770D01*
X1249Y770D02*
X1272Y770D01*
X1001Y769D02*
X1042Y769D01*
X1249Y769D02*
X1272Y769D01*
X1003Y768D02*
X1043Y768D01*
X1249Y768D02*
X1272Y768D01*
X1004Y767D02*
X1045Y767D01*
X1249Y767D02*
X1273Y767D01*
X1005Y766D02*
X1046Y766D01*
X1249Y766D02*
X1273Y766D01*
X1007Y765D02*
X1048Y765D01*
X1250Y765D02*
X1273Y765D01*
X1008Y764D02*
X1049Y764D01*
X1250Y764D02*
X1273Y764D01*
X1010Y763D02*
X1051Y763D01*
X1250Y763D02*
X1273Y763D01*
X1011Y762D02*
X1052Y762D01*
X1250Y762D02*
X1274Y762D01*
X1012Y761D02*
X1054Y761D01*
X1250Y761D02*
X1274Y761D01*
X1014Y760D02*
X1055Y760D01*
X1251Y760D02*
X1274Y760D01*
X1015Y759D02*
X1057Y759D01*
X1251Y759D02*
X1274Y759D01*
X1017Y758D02*
X1058Y758D01*
X1251Y758D02*
X1274Y758D01*
X1018Y757D02*
X1060Y757D01*
X1251Y757D02*
X1275Y757D01*
X1020Y756D02*
X1061Y756D01*
X1251Y756D02*
X1275Y756D01*
X1021Y755D02*
X1063Y755D01*
X1252Y755D02*
X1275Y755D01*
X1022Y754D02*
X1064Y754D01*
X1252Y754D02*
X1275Y754D01*
X1024Y753D02*
X1066Y753D01*
X1252Y753D02*
X1276Y753D01*
X1025Y752D02*
X1068Y752D01*
X1252Y752D02*
X1276Y752D01*
X1027Y751D02*
X1069Y751D01*
X1252Y751D02*
X1276Y751D01*
X1028Y750D02*
X1071Y750D01*
X1253Y750D02*
X1276Y750D01*
X1030Y749D02*
X1072Y749D01*
X1253Y749D02*
X1276Y749D01*
X1031Y748D02*
X1074Y748D01*
X1253Y748D02*
X1277Y748D01*
X1033Y747D02*
X1075Y747D01*
X1253Y747D02*
X1277Y747D01*
X1034Y746D02*
X1077Y746D01*
X1253Y746D02*
X1277Y746D01*
X1036Y745D02*
X1079Y745D01*
X1254Y745D02*
X1277Y745D01*
X1037Y744D02*
X1080Y744D01*
X1254Y744D02*
X1277Y744D01*
X1039Y743D02*
X1082Y743D01*
X1254Y743D02*
X1278Y743D01*
X1040Y742D02*
X1083Y742D01*
X1254Y742D02*
X1278Y742D01*
X1042Y741D02*
X1085Y741D01*
X1255Y741D02*
X1278Y741D01*
X1043Y740D02*
X1086Y740D01*
X1255Y740D02*
X1278Y740D01*
X1045Y739D02*
X1088Y739D01*
X1255Y739D02*
X1279Y739D01*
X1046Y738D02*
X1090Y738D01*
X1255Y738D02*
X1279Y738D01*
X1048Y737D02*
X1091Y737D01*
X1255Y737D02*
X1279Y737D01*
X1049Y736D02*
X1093Y736D01*
X1256Y736D02*
X1279Y736D01*
X1051Y735D02*
X1095Y735D01*
X1256Y735D02*
X1280Y735D01*
X1052Y734D02*
X1096Y734D01*
X1256Y734D02*
X1280Y734D01*
X1054Y733D02*
X1098Y733D01*
X1256Y733D02*
X1280Y733D01*
X1055Y732D02*
X1099Y732D01*
X1257Y732D02*
X1280Y732D01*
X1057Y731D02*
X1101Y731D01*
X1257Y731D02*
X1280Y731D01*
X1058Y730D02*
X1103Y730D01*
X1257Y730D02*
X1281Y730D01*
X1060Y729D02*
X1104Y729D01*
X1257Y729D02*
X1281Y729D01*
X1062Y728D02*
X1106Y728D01*
X1257Y728D02*
X1281Y728D01*
X1063Y727D02*
X1108Y727D01*
X1258Y727D02*
X1281Y727D01*
X1065Y726D02*
X1109Y726D01*
X1258Y726D02*
X1282Y726D01*
X1066Y725D02*
X1111Y725D01*
X1258Y725D02*
X1282Y725D01*
X1068Y724D02*
X1113Y724D01*
X1258Y724D02*
X1282Y724D01*
X1069Y723D02*
X1115Y723D01*
X1259Y723D02*
X1282Y723D01*
X1071Y722D02*
X1116Y722D01*
X1259Y722D02*
X1283Y722D01*
X1073Y721D02*
X1118Y721D01*
X1259Y721D02*
X1283Y721D01*
X1074Y720D02*
X1120Y720D01*
X1259Y720D02*
X1283Y720D01*
X1076Y719D02*
X1121Y719D01*
X1260Y719D02*
X1283Y719D01*
X1077Y718D02*
X1123Y718D01*
X1260Y718D02*
X1284Y718D01*
X1079Y717D02*
X1125Y717D01*
X1260Y717D02*
X1284Y717D01*
X1081Y716D02*
X1126Y716D01*
X1260Y716D02*
X1284Y716D01*
X1082Y715D02*
X1128Y715D01*
X1261Y715D02*
X1284Y715D01*
X1084Y714D02*
X1130Y714D01*
X1261Y714D02*
X1284Y714D01*
X1086Y713D02*
X1132Y713D01*
X1261Y713D02*
X1285Y713D01*
X1087Y712D02*
X1133Y712D01*
X1261Y712D02*
X1285Y712D01*
X1089Y711D02*
X1135Y711D01*
X1262Y711D02*
X1285Y711D01*
X1090Y710D02*
X1137Y710D01*
X1262Y710D02*
X1285Y710D01*
X1092Y709D02*
X1139Y709D01*
X1262Y709D02*
X1286Y709D01*
X1094Y708D02*
X1140Y708D01*
X1262Y708D02*
X1286Y708D01*
X1095Y707D02*
X1142Y707D01*
X1262Y707D02*
X1286Y707D01*
X1097Y706D02*
X1144Y706D01*
X1263Y706D02*
X1287Y706D01*
X1099Y705D02*
X1146Y705D01*
X1263Y705D02*
X1287Y705D01*
X1101Y704D02*
X1148Y704D01*
X1263Y704D02*
X1287Y704D01*
X1102Y703D02*
X1149Y703D01*
X1264Y703D02*
X1287Y703D01*
X1104Y702D02*
X1151Y702D01*
X1264Y702D02*
X1288Y702D01*
X1106Y701D02*
X1153Y701D01*
X1264Y701D02*
X1288Y701D01*
X1107Y700D02*
X1155Y700D01*
X1264Y700D02*
X1288Y700D01*
X1109Y699D02*
X1157Y699D01*
X1265Y699D02*
X1288Y699D01*
X1111Y698D02*
X1159Y698D01*
X1265Y698D02*
X1289Y698D01*
X1112Y697D02*
X1160Y697D01*
X1265Y697D02*
X1289Y697D01*
X1114Y696D02*
X1162Y696D01*
X1265Y696D02*
X1289Y696D01*
X1116Y695D02*
X1164Y695D01*
X1266Y695D02*
X1289Y695D01*
X1118Y694D02*
X1166Y694D01*
X1266Y694D02*
X1290Y694D01*
X1119Y693D02*
X1168Y693D01*
X1266Y693D02*
X1290Y693D01*
X1121Y692D02*
X1170Y692D01*
X1266Y692D02*
X1290Y692D01*
X1123Y691D02*
X1172Y691D01*
X1267Y691D02*
X1290Y691D01*
X1125Y690D02*
X1173Y690D01*
X1267Y690D02*
X1291Y690D01*
X1126Y689D02*
X1175Y689D01*
X1267Y689D02*
X1291Y689D01*
X1128Y688D02*
X1177Y688D01*
X1267Y688D02*
X1291Y688D01*
X1130Y687D02*
X1179Y687D01*
X1268Y687D02*
X1292Y687D01*
X1132Y686D02*
X1181Y686D01*
X1268Y686D02*
X1292Y686D01*
X1133Y685D02*
X1183Y685D01*
X1268Y685D02*
X1292Y685D01*
X1135Y684D02*
X1185Y684D01*
X1268Y684D02*
X1292Y684D01*
X1137Y683D02*
X1187Y683D01*
X1269Y683D02*
X1293Y683D01*
X1139Y682D02*
X1189Y682D01*
X1269Y682D02*
X1293Y682D01*
X1141Y681D02*
X1191Y681D01*
X1269Y681D02*
X1293Y681D01*
X1142Y680D02*
X1193Y680D01*
X1270Y680D02*
X1293Y680D01*
X1144Y679D02*
X1195Y679D01*
X1270Y679D02*
X1294Y679D01*
X1146Y678D02*
X1197Y678D01*
X1270Y678D02*
X1294Y678D01*
X1148Y677D02*
X1199Y677D01*
X1270Y677D02*
X1294Y677D01*
X1150Y676D02*
X1201Y676D01*
X1271Y676D02*
X1295Y676D01*
X1152Y675D02*
X1203Y675D01*
X1271Y675D02*
X1295Y675D01*
X1153Y674D02*
X1205Y674D01*
X1271Y674D02*
X1295Y674D01*
X1155Y673D02*
X1206Y673D01*
X1271Y673D02*
X1295Y673D01*
X1157Y672D02*
X1208Y672D01*
X1272Y672D02*
X1296Y672D01*
X1159Y671D02*
X1210Y671D01*
X1272Y671D02*
X1296Y671D01*
X1161Y670D02*
X1212Y670D01*
X1272Y670D02*
X1296Y670D01*
X1163Y669D02*
X1214Y669D01*
X1273Y669D02*
X1297Y669D01*
X1165Y668D02*
X1216Y668D01*
X1273Y668D02*
X1297Y668D01*
X1167Y667D02*
X1219Y667D01*
X1273Y667D02*
X1297Y667D01*
X1168Y666D02*
X1221Y666D01*
X1273Y666D02*
X1297Y666D01*
X1170Y665D02*
X1223Y665D01*
X1274Y665D02*
X1298Y665D01*
X1172Y664D02*
X1225Y664D01*
X1274Y664D02*
X1298Y664D01*
X1174Y663D02*
X1227Y663D01*
X1274Y663D02*
X1298Y663D01*
X1176Y662D02*
X1229Y662D01*
X1275Y662D02*
X1299Y662D01*
X1178Y661D02*
X1231Y661D01*
X1275Y661D02*
X1299Y661D01*
X1180Y660D02*
X1233Y660D01*
X1275Y660D02*
X1299Y660D01*
X1182Y659D02*
X1235Y659D01*
X1275Y659D02*
X1299Y659D01*
X1184Y658D02*
X1237Y658D01*
X1276Y658D02*
X1300Y658D01*
X1186Y657D02*
X1239Y657D01*
X1276Y657D02*
X1300Y657D01*
X1188Y656D02*
X1241Y656D01*
X1276Y656D02*
X1300Y656D01*
X1190Y655D02*
X1244Y655D01*
X1277Y655D02*
X1301Y655D01*
X1192Y654D02*
X1246Y654D01*
X1277Y654D02*
X1301Y654D01*
X1194Y653D02*
X1248Y653D01*
X1277Y653D02*
X1301Y653D01*
X1196Y652D02*
X1250Y652D01*
X1277Y652D02*
X1302Y652D01*
X1198Y651D02*
X1252Y651D01*
X1278Y651D02*
X1302Y651D01*
X1200Y650D02*
X1255Y650D01*
X1278Y650D02*
X1302Y650D01*
X1202Y649D02*
X1257Y649D01*
X1278Y649D02*
X1302Y649D01*
X1204Y648D02*
X1259Y648D01*
X1279Y648D02*
X1303Y648D01*
X1206Y647D02*
X1261Y647D01*
X1279Y647D02*
X1303Y647D01*
X1208Y646D02*
X1263Y646D01*
X1279Y646D02*
X1303Y646D01*
X1210Y645D02*
X1266Y645D01*
X1280Y645D02*
X1304Y645D01*
X1212Y644D02*
X1268Y644D01*
X1280Y644D02*
X1304Y644D01*
X1214Y643D02*
X1270Y643D01*
X1280Y643D02*
X1304Y643D01*
X1216Y642D02*
X1272Y642D01*
X1281Y642D02*
X1305Y642D01*
X1218Y641D02*
X1275Y641D01*
X1281Y641D02*
X1305Y641D01*
X1220Y640D02*
X1277Y640D01*
X1281Y640D02*
X1305Y640D01*
X1222Y639D02*
X1279Y639D01*
X1281Y639D02*
X1306Y639D01*
X1225Y638D02*
X1306Y638D01*
X1227Y637D02*
X1306Y637D01*
X1229Y636D02*
X1307Y636D01*
X1231Y635D02*
X1307Y635D01*
X1233Y634D02*
X1307Y634D01*
X1235Y633D02*
X1308Y633D01*
X1237Y632D02*
X1308Y632D01*
X1239Y631D02*
X1308Y631D01*
X1242Y630D02*
X1309Y630D01*
X1244Y629D02*
X1309Y629D01*
X1246Y628D02*
X1309Y628D01*
X1248Y627D02*
X1310Y627D01*
X1250Y626D02*
X1310Y626D01*
X1253Y625D02*
X1310Y625D01*
X1255Y624D02*
X1311Y624D01*
X1257Y623D02*
X1311Y623D01*
X1259Y622D02*
X1311Y622D01*
X1261Y621D02*
X1312Y621D01*
X1264Y620D02*
X1312Y620D01*
X1266Y619D02*
X1312Y619D01*
X1268Y618D02*
X1312Y618D01*
X1271Y617D02*
X1312Y617D01*
X1273Y616D02*
X1312Y616D01*
X1275Y615D02*
X1312Y615D01*
X1278Y614D02*
X1312Y614D01*
X1280Y613D02*
X1311Y613D01*
X1283Y612D02*
X1311Y612D01*
X1285Y611D02*
X1310Y611D01*
X1287Y610D02*
X1310Y610D01*
X1290Y609D02*
X1309Y609D01*
X1292Y608D02*
X1308Y608D01*
X1295Y607D02*
X1306Y607D01*
X1297Y606D02*
X1304Y606D01*
D02*
G04 End of Copper1*
M02*