; NON-PLATED HOLES START AT T1
; THROUGH (PLATED) HOLES START AT T100
M48
INCH
T100C0.137795
T101C0.040000
T102C0.036111
T103C0.035000
T104C0.039370
%
T100
X029697Y027012
X006075Y027012
T101
X015903Y024324
X022463Y022579
X012852Y012968
X019413Y011222
T102
X032453Y018319
X023453Y021319
X023453Y018319
X032453Y019319
X023453Y019319
X032453Y014319
X023453Y014319
X032453Y015319
X023453Y015319
X032453Y016319
X032453Y020319
X023453Y016319
X032453Y017319
X023453Y020319
X032453Y021319
X023453Y017319
T103
X018216Y017716
X017216Y017716
T104
X013014Y006168
X016144Y029988
X025344Y007788
X022524Y029158
X007894Y010078
X019404Y005328
T00
M30
