G04 MADE WITH FRITZING*
G04 WWW.FRITZING.ORG*
G04 DOUBLE SIDED*
G04 HOLES PLATED*
G04 CONTOUR ON CENTER OF CONTOUR VECTOR*
%ASAXBY*%
%FSLAX23Y23*%
%MOIN*%
%OFA0B0*%
%SFA1.0B1.0*%
%ADD10C,0.085000*%
%ADD11C,0.078000*%
%ADD12C,0.080000*%
%ADD13C,0.087778*%
%ADD14C,0.187165*%
%ADD15R,0.065118X0.069055*%
%ADD16R,0.085000X0.085000*%
%LNMASK1*%
G90*
G70*
G54D10*
X1722Y1772D03*
X1822Y1772D03*
G54D11*
X1614Y2999D03*
X2252Y2916D03*
X1940Y533D03*
X1301Y617D03*
X2534Y779D03*
X789Y1008D03*
X1614Y2999D03*
X2252Y2916D03*
X1940Y533D03*
X1301Y617D03*
X2534Y779D03*
X789Y1008D03*
G54D12*
X1590Y2432D03*
X2246Y2258D03*
X1941Y1122D03*
X1285Y1297D03*
X1590Y2432D03*
X2246Y2258D03*
X1941Y1122D03*
X1285Y1297D03*
G54D13*
X2345Y2132D03*
X2345Y2032D03*
X2345Y1932D03*
X2345Y1832D03*
X2345Y1732D03*
X2345Y1632D03*
X2345Y1532D03*
X2345Y1432D03*
X3245Y1432D03*
X3245Y1532D03*
X3245Y1632D03*
X3245Y1732D03*
X3245Y1832D03*
X3245Y1932D03*
X3245Y2032D03*
X3245Y2132D03*
G54D14*
X2970Y2701D03*
X608Y2701D03*
G54D15*
X2143Y1756D03*
X2224Y1756D03*
G54D16*
X1722Y1772D03*
G04 End of Mask1*
M02*