G04 MADE WITH FRITZING*
G04 WWW.FRITZING.ORG*
G04 DOUBLE SIDED*
G04 HOLES PLATED*
G04 CONTOUR ON CENTER OF CONTOUR VECTOR*
%ASAXBY*%
%FSLAX23Y23*%
%MOIN*%
%OFA0B0*%
%SFA1.0B1.0*%
%ADD10C,0.049370*%
%ADD11C,0.061496*%
%ADD12C,0.088000*%
%ADD13C,0.076194*%
%ADD14C,0.076222*%
%ADD15C,0.085000*%
%ADD16C,0.072992*%
%ADD17R,0.085000X0.085000*%
%ADD18R,0.072992X0.072992*%
%ADD19R,0.001000X0.001000*%
%LNMASK0*%
G90*
G70*
G54D10*
X1040Y1926D03*
G54D11*
X480Y326D03*
X580Y326D03*
X680Y326D03*
X780Y326D03*
X880Y326D03*
X980Y326D03*
X1760Y326D03*
X1860Y326D03*
X1960Y326D03*
X2060Y326D03*
X2160Y326D03*
X2260Y326D03*
G54D12*
X2540Y1466D03*
X120Y1806D03*
G54D10*
X1679Y1587D03*
X1780Y1625D03*
X1880Y1667D03*
G54D13*
X2120Y106D03*
X2220Y106D03*
X2320Y106D03*
X2420Y106D03*
X2520Y106D03*
G54D14*
X1660Y2006D03*
X1560Y2006D03*
X1460Y2006D03*
X1360Y2006D03*
X1260Y2006D03*
X1160Y2006D03*
X1060Y2006D03*
X960Y2006D03*
X860Y2006D03*
X760Y2006D03*
X2520Y2006D03*
X2420Y2006D03*
X2320Y2006D03*
X2220Y2006D03*
X2120Y2006D03*
X2020Y2006D03*
X1920Y2006D03*
X1820Y2006D03*
G54D13*
X1220Y106D03*
X1120Y106D03*
X1320Y106D03*
X1420Y106D03*
X1520Y106D03*
X1620Y106D03*
X1720Y106D03*
X1820Y106D03*
X2020Y106D03*
G54D15*
X461Y1465D03*
X461Y1765D03*
X561Y1465D03*
X561Y1765D03*
X661Y1465D03*
X661Y1765D03*
X761Y1465D03*
X761Y1765D03*
X861Y1465D03*
X861Y1765D03*
X961Y1465D03*
X961Y1765D03*
X1061Y1465D03*
X1061Y1765D03*
X1161Y1465D03*
X1161Y1765D03*
G54D16*
X240Y964D03*
X240Y866D03*
X560Y964D03*
X560Y866D03*
X880Y964D03*
X880Y866D03*
X1200Y964D03*
X1200Y866D03*
X1520Y964D03*
X1520Y866D03*
X1840Y964D03*
X1840Y866D03*
X2160Y964D03*
X2160Y866D03*
X2480Y964D03*
X2480Y866D03*
G54D15*
X1482Y1467D03*
X1482Y1767D03*
X1582Y1467D03*
X1582Y1767D03*
X1682Y1467D03*
X1682Y1767D03*
X1782Y1467D03*
X1782Y1767D03*
X1882Y1467D03*
X1882Y1767D03*
X1982Y1467D03*
X1982Y1767D03*
X2082Y1467D03*
X2082Y1767D03*
X2182Y1467D03*
X2182Y1767D03*
X163Y470D03*
X163Y726D03*
X340Y470D03*
X340Y726D03*
X483Y470D03*
X483Y726D03*
X660Y470D03*
X660Y726D03*
X800Y466D03*
X800Y721D03*
X978Y466D03*
X978Y721D03*
X1123Y470D03*
X1123Y726D03*
X1300Y470D03*
X1300Y726D03*
X1443Y470D03*
X1443Y726D03*
X1620Y470D03*
X1620Y726D03*
X1763Y466D03*
X1763Y721D03*
X1940Y466D03*
X1940Y721D03*
X2083Y466D03*
X2083Y721D03*
X2260Y466D03*
X2260Y721D03*
X2403Y466D03*
X2403Y721D03*
X2580Y466D03*
X2580Y721D03*
X2520Y1186D03*
X2420Y1186D03*
X2200Y1186D03*
X2100Y1186D03*
X1880Y1186D03*
X1780Y1186D03*
X1560Y1186D03*
X1460Y1186D03*
X1240Y1186D03*
X1140Y1186D03*
X920Y1186D03*
X820Y1186D03*
X600Y1186D03*
X500Y1186D03*
X280Y1186D03*
X180Y1186D03*
G54D17*
X461Y1465D03*
G54D18*
X240Y964D03*
X560Y964D03*
X880Y964D03*
X1200Y964D03*
X1520Y964D03*
X1840Y964D03*
X2160Y964D03*
X2480Y964D03*
G54D17*
X1482Y1467D03*
G54D19*
X449Y356D02*
X510Y356D01*
X1729Y356D02*
X1790Y356D01*
X449Y355D02*
X510Y355D01*
X1729Y355D02*
X1790Y355D01*
X449Y354D02*
X510Y354D01*
X1729Y354D02*
X1790Y354D01*
X449Y353D02*
X510Y353D01*
X1729Y353D02*
X1790Y353D01*
X449Y352D02*
X510Y352D01*
X1729Y352D02*
X1790Y352D01*
X449Y351D02*
X510Y351D01*
X1729Y351D02*
X1790Y351D01*
X449Y350D02*
X510Y350D01*
X1729Y350D02*
X1790Y350D01*
X449Y349D02*
X510Y349D01*
X1729Y349D02*
X1790Y349D01*
X449Y348D02*
X510Y348D01*
X1729Y348D02*
X1790Y348D01*
X449Y347D02*
X510Y347D01*
X1729Y347D02*
X1790Y347D01*
X449Y346D02*
X510Y346D01*
X1729Y346D02*
X1790Y346D01*
X449Y345D02*
X510Y345D01*
X1729Y345D02*
X1790Y345D01*
X449Y344D02*
X510Y344D01*
X1729Y344D02*
X1790Y344D01*
X449Y343D02*
X510Y343D01*
X1729Y343D02*
X1790Y343D01*
X449Y342D02*
X510Y342D01*
X1729Y342D02*
X1790Y342D01*
X449Y341D02*
X510Y341D01*
X1729Y341D02*
X1790Y341D01*
X449Y340D02*
X510Y340D01*
X1729Y340D02*
X1790Y340D01*
X449Y339D02*
X510Y339D01*
X1729Y339D02*
X1790Y339D01*
X449Y338D02*
X510Y338D01*
X1729Y338D02*
X1790Y338D01*
X449Y337D02*
X510Y337D01*
X1729Y337D02*
X1790Y337D01*
X449Y336D02*
X475Y336D01*
X484Y336D02*
X510Y336D01*
X1729Y336D02*
X1755Y336D01*
X1764Y336D02*
X1790Y336D01*
X449Y335D02*
X473Y335D01*
X486Y335D02*
X510Y335D01*
X1729Y335D02*
X1753Y335D01*
X1766Y335D02*
X1790Y335D01*
X449Y334D02*
X472Y334D01*
X487Y334D02*
X510Y334D01*
X1729Y334D02*
X1752Y334D01*
X1767Y334D02*
X1790Y334D01*
X449Y333D02*
X471Y333D01*
X488Y333D02*
X510Y333D01*
X1729Y333D02*
X1751Y333D01*
X1768Y333D02*
X1790Y333D01*
X449Y332D02*
X470Y332D01*
X489Y332D02*
X510Y332D01*
X1729Y332D02*
X1750Y332D01*
X1769Y332D02*
X1790Y332D01*
X449Y331D02*
X470Y331D01*
X490Y331D02*
X510Y331D01*
X1729Y331D02*
X1749Y331D01*
X1769Y331D02*
X1790Y331D01*
X449Y330D02*
X469Y330D01*
X490Y330D02*
X510Y330D01*
X1729Y330D02*
X1749Y330D01*
X1770Y330D02*
X1790Y330D01*
X449Y329D02*
X469Y329D01*
X491Y329D02*
X510Y329D01*
X1729Y329D02*
X1748Y329D01*
X1770Y329D02*
X1790Y329D01*
X449Y328D02*
X469Y328D01*
X491Y328D02*
X510Y328D01*
X1729Y328D02*
X1748Y328D01*
X1770Y328D02*
X1790Y328D01*
X449Y327D02*
X469Y327D01*
X491Y327D02*
X510Y327D01*
X1729Y327D02*
X1748Y327D01*
X1770Y327D02*
X1790Y327D01*
X449Y326D02*
X468Y326D01*
X491Y326D02*
X510Y326D01*
X1729Y326D02*
X1748Y326D01*
X1770Y326D02*
X1790Y326D01*
X449Y325D02*
X469Y325D01*
X491Y325D02*
X510Y325D01*
X1729Y325D02*
X1748Y325D01*
X1770Y325D02*
X1790Y325D01*
X449Y324D02*
X469Y324D01*
X491Y324D02*
X510Y324D01*
X1729Y324D02*
X1748Y324D01*
X1770Y324D02*
X1790Y324D01*
X449Y323D02*
X469Y323D01*
X491Y323D02*
X510Y323D01*
X1729Y323D02*
X1748Y323D01*
X1770Y323D02*
X1790Y323D01*
X449Y322D02*
X469Y322D01*
X490Y322D02*
X510Y322D01*
X1729Y322D02*
X1749Y322D01*
X1770Y322D02*
X1790Y322D01*
X449Y321D02*
X470Y321D01*
X490Y321D02*
X510Y321D01*
X1729Y321D02*
X1749Y321D01*
X1769Y321D02*
X1790Y321D01*
X449Y320D02*
X470Y320D01*
X489Y320D02*
X510Y320D01*
X1729Y320D02*
X1750Y320D01*
X1769Y320D02*
X1790Y320D01*
X449Y319D02*
X471Y319D01*
X488Y319D02*
X510Y319D01*
X1729Y319D02*
X1751Y319D01*
X1768Y319D02*
X1790Y319D01*
X449Y318D02*
X472Y318D01*
X487Y318D02*
X510Y318D01*
X1729Y318D02*
X1752Y318D01*
X1767Y318D02*
X1790Y318D01*
X449Y317D02*
X473Y317D01*
X486Y317D02*
X510Y317D01*
X1729Y317D02*
X1753Y317D01*
X1766Y317D02*
X1790Y317D01*
X449Y316D02*
X475Y316D01*
X484Y316D02*
X510Y316D01*
X1729Y316D02*
X1755Y316D01*
X1764Y316D02*
X1790Y316D01*
X449Y315D02*
X510Y315D01*
X1729Y315D02*
X1790Y315D01*
X449Y314D02*
X510Y314D01*
X1729Y314D02*
X1790Y314D01*
X449Y313D02*
X510Y313D01*
X1729Y313D02*
X1790Y313D01*
X449Y312D02*
X510Y312D01*
X1729Y312D02*
X1790Y312D01*
X449Y311D02*
X510Y311D01*
X1729Y311D02*
X1790Y311D01*
X449Y310D02*
X510Y310D01*
X1729Y310D02*
X1790Y310D01*
X449Y309D02*
X510Y309D01*
X1729Y309D02*
X1790Y309D01*
X449Y308D02*
X510Y308D01*
X1729Y308D02*
X1790Y308D01*
X449Y307D02*
X510Y307D01*
X1729Y307D02*
X1790Y307D01*
X449Y306D02*
X510Y306D01*
X1729Y306D02*
X1790Y306D01*
X449Y305D02*
X510Y305D01*
X1729Y305D02*
X1790Y305D01*
X449Y304D02*
X510Y304D01*
X1729Y304D02*
X1790Y304D01*
X449Y303D02*
X510Y303D01*
X1729Y303D02*
X1790Y303D01*
X449Y302D02*
X510Y302D01*
X1729Y302D02*
X1790Y302D01*
X449Y301D02*
X510Y301D01*
X1729Y301D02*
X1790Y301D01*
X449Y300D02*
X510Y300D01*
X1729Y300D02*
X1790Y300D01*
X449Y299D02*
X510Y299D01*
X1729Y299D02*
X1790Y299D01*
X449Y298D02*
X510Y298D01*
X1729Y298D02*
X1790Y298D01*
X449Y297D02*
X510Y297D01*
X1729Y297D02*
X1790Y297D01*
X449Y296D02*
X510Y296D01*
X1729Y296D02*
X1790Y296D01*
D02*
G04 End of Mask0*
M02*