; NON-PLATED HOLES START AT T1
; THROUGH (PLATED) HOLES START AT T100
M48
INCH
T100C0.015748
T101C0.038417
T102C0.035000
T103C0.038445
T104C0.031496
T105C0.031497
T106C0.038000
%
T100
X010402Y019261
X017803Y016249
X018803Y016666
X016794Y015865
T101
X024203Y001055
X025203Y001055
X016203Y001055
X017203Y001055
X018203Y001055
X020203Y001055
X011203Y001055
X012203Y001055
X013203Y001055
X021203Y001055
X022203Y001055
X023203Y001055
X014203Y001055
X015203Y001055
T102
X006003Y011855
X017816Y014665
X016203Y007255
X015816Y017665
X007614Y014649
X005614Y017649
X024203Y011855
X017631Y004655
X004831Y004695
X015603Y011855
X009203Y011855
X018816Y017665
X009775Y004655
X008614Y017649
X022603Y004655
X021816Y014665
X018803Y011855
X020831Y007214
X011614Y014649
X003403Y004695
X001803Y011855
X001631Y007255
X015816Y014665
X024031Y004655
X005614Y014649
X011231Y004695
X022003Y011855
X025803Y004655
X019403Y004655
X006603Y004695
X017631Y007214
X018816Y014665
X004831Y007255
X016816Y017665
X008614Y014649
X006614Y017649
X014431Y004695
X025203Y011855
X009775Y007214
X022603Y007214
X019816Y017665
X009614Y017649
X008003Y004655
X003403Y007255
X013003Y004695
X020816Y017665
X011403Y011855
X024031Y007214
X010614Y017649
X011231Y007255
X002803Y011855
X025803Y007214
X005003Y011855
X016816Y014665
X019403Y007214
X014816Y017665
X006614Y014649
X006603Y007255
X004614Y017649
X016203Y004695
X014603Y011855
X014431Y007255
X019816Y014665
X008203Y011855
X017816Y017665
X009614Y014649
X007614Y017649
X020816Y014665
X017803Y011855
X008003Y007214
X010614Y014649
X013003Y007255
X020831Y004655
X014816Y014665
X004614Y014649
X021003Y011855
X021816Y017665
X001631Y004695
X012403Y011855
X011614Y017649
T103
X009603Y020055
X018203Y020055
X011603Y020055
X012603Y020055
X020203Y020055
X019203Y020055
X013603Y020055
X014603Y020055
X021203Y020055
X015603Y020055
X022203Y020055
X023203Y020055
X007603Y020055
X016603Y020055
X024203Y020055
X010603Y020055
X025203Y020055
X008603Y020055
T104
X004803Y003255
X017603Y003255
X005803Y003255
X020603Y003255
X006803Y003255
X018603Y003255
X007803Y003255
X019603Y003255
X021603Y003255
X022603Y003255
X008803Y003255
X009803Y003255
T105
X008803Y009639
X024803Y008655
X005603Y009639
X012003Y008655
X021603Y008655
X002403Y009639
X018403Y009639
X008803Y008655
X015203Y009639
X005603Y008655
X024803Y009639
X012003Y009639
X002403Y008655
X018403Y008655
X015203Y008655
X021603Y009639
T106
X025403Y014655
X001203Y018055
T00
M30
