G04 MADE WITH FRITZING*
G04 WWW.FRITZING.ORG*
G04 DOUBLE SIDED*
G04 HOLES PLATED*
G04 CONTOUR ON CENTER OF CONTOUR VECTOR*
%ASAXBY*%
%FSLAX23Y23*%
%MOIN*%
%OFA0B0*%
%SFA1.0B1.0*%
%ADD10C,0.039370*%
%ADD11C,0.051496*%
%ADD12C,0.078000*%
%ADD13C,0.066194*%
%ADD14C,0.066222*%
%ADD15C,0.075000*%
%ADD16C,0.062992*%
%ADD17R,0.075000X0.075000*%
%ADD18R,0.062992X0.062992*%
%ADD19C,0.016000*%
%ADD20C,0.024000*%
%ADD21R,0.001000X0.001000*%
%LNCOPPER0*%
G90*
G70*
G54D10*
X1040Y1926D03*
G54D11*
X480Y326D03*
X580Y326D03*
X680Y326D03*
X780Y326D03*
X880Y326D03*
X980Y326D03*
X1760Y326D03*
X1860Y326D03*
X1960Y326D03*
X2060Y326D03*
X2160Y326D03*
X2260Y326D03*
G54D12*
X2540Y1466D03*
X120Y1806D03*
G54D10*
X1679Y1587D03*
X1780Y1625D03*
X1880Y1667D03*
G54D13*
X2120Y106D03*
X2220Y106D03*
X2320Y106D03*
X2420Y106D03*
X2520Y106D03*
G54D14*
X1660Y2006D03*
X1560Y2006D03*
X1460Y2006D03*
X1360Y2006D03*
X1260Y2006D03*
X1160Y2006D03*
X1060Y2006D03*
X960Y2006D03*
X860Y2006D03*
X760Y2006D03*
X2520Y2006D03*
X2420Y2006D03*
X2320Y2006D03*
X2220Y2006D03*
X2120Y2006D03*
X2020Y2006D03*
X1920Y2006D03*
X1820Y2006D03*
G54D13*
X1220Y106D03*
X1120Y106D03*
X1320Y106D03*
X1420Y106D03*
X1520Y106D03*
X1620Y106D03*
X1720Y106D03*
X1820Y106D03*
X2020Y106D03*
G54D15*
X461Y1465D03*
X461Y1765D03*
X561Y1465D03*
X561Y1765D03*
X661Y1465D03*
X661Y1765D03*
X761Y1465D03*
X761Y1765D03*
X861Y1465D03*
X861Y1765D03*
X961Y1465D03*
X961Y1765D03*
X1061Y1465D03*
X1061Y1765D03*
X1161Y1465D03*
X1161Y1765D03*
G54D16*
X240Y964D03*
X240Y866D03*
X560Y964D03*
X560Y866D03*
X880Y964D03*
X880Y866D03*
X1200Y964D03*
X1200Y866D03*
X1520Y964D03*
X1520Y866D03*
X1840Y964D03*
X1840Y866D03*
X2160Y964D03*
X2160Y866D03*
X2480Y964D03*
X2480Y866D03*
G54D15*
X1482Y1467D03*
X1482Y1767D03*
X1582Y1467D03*
X1582Y1767D03*
X1682Y1467D03*
X1682Y1767D03*
X1782Y1467D03*
X1782Y1767D03*
X1882Y1467D03*
X1882Y1767D03*
X1982Y1467D03*
X1982Y1767D03*
X2082Y1467D03*
X2082Y1767D03*
X2182Y1467D03*
X2182Y1767D03*
X163Y470D03*
X163Y726D03*
X340Y470D03*
X340Y726D03*
X483Y470D03*
X483Y726D03*
X660Y470D03*
X660Y726D03*
X800Y466D03*
X800Y721D03*
X978Y466D03*
X978Y721D03*
X1123Y470D03*
X1123Y726D03*
X1300Y470D03*
X1300Y726D03*
X1443Y470D03*
X1443Y726D03*
X1620Y470D03*
X1620Y726D03*
X1763Y466D03*
X1763Y721D03*
X1940Y466D03*
X1940Y721D03*
X2083Y466D03*
X2083Y721D03*
X2260Y466D03*
X2260Y721D03*
X2403Y466D03*
X2403Y721D03*
X2580Y466D03*
X2580Y721D03*
X2520Y1186D03*
X2420Y1186D03*
X2200Y1186D03*
X2100Y1186D03*
X1880Y1186D03*
X1780Y1186D03*
X1560Y1186D03*
X1460Y1186D03*
X1240Y1186D03*
X1140Y1186D03*
X920Y1186D03*
X820Y1186D03*
X600Y1186D03*
X500Y1186D03*
X280Y1186D03*
X180Y1186D03*
G54D17*
X461Y1465D03*
G54D18*
X240Y964D03*
X560Y964D03*
X880Y964D03*
X1200Y964D03*
X1520Y964D03*
X1840Y964D03*
X2160Y964D03*
X2480Y964D03*
G54D17*
X1482Y1467D03*
G54D19*
X841Y1925D02*
X1027Y1926D01*
D02*
X679Y1780D02*
X841Y1925D01*
G54D20*
D02*
X481Y326D02*
X498Y346D01*
D02*
X80Y246D02*
X481Y246D01*
D02*
X481Y246D02*
X481Y326D01*
D02*
X80Y1687D02*
X80Y246D01*
D02*
X111Y1777D02*
X80Y1687D01*
G54D19*
D02*
X200Y386D02*
X521Y386D01*
D02*
X521Y386D02*
X565Y341D01*
D02*
X173Y449D02*
X200Y386D01*
D02*
X502Y456D02*
X663Y338D01*
D02*
X797Y443D02*
X783Y347D01*
D02*
X1103Y458D02*
X899Y336D01*
D02*
X1860Y424D02*
X1784Y456D01*
D02*
X1945Y340D02*
X1860Y424D01*
D02*
X2064Y347D02*
X2079Y443D01*
D02*
X2383Y454D02*
X2179Y336D01*
D02*
X1820Y387D02*
X1501Y387D01*
D02*
X1501Y387D02*
X1456Y451D01*
D02*
X1849Y343D02*
X1820Y387D01*
G54D20*
D02*
X480Y246D02*
X480Y299D01*
D02*
X1520Y246D02*
X480Y246D01*
D02*
X1520Y136D02*
X1520Y246D01*
D02*
X1601Y324D02*
X1520Y246D01*
D02*
X1520Y246D02*
X1520Y136D01*
D02*
X1733Y325D02*
X1601Y324D01*
D02*
X885Y990D02*
X915Y1157D01*
D02*
X1235Y1157D02*
X1205Y990D01*
D02*
X1555Y1157D02*
X1525Y990D01*
D02*
X1875Y1157D02*
X1845Y990D01*
D02*
X2195Y1157D02*
X2165Y990D01*
D02*
X2515Y1157D02*
X2485Y990D01*
D02*
X245Y990D02*
X275Y1157D01*
D02*
X565Y990D02*
X595Y1157D01*
D02*
X539Y1684D02*
X981Y1684D01*
D02*
X981Y1684D02*
X1041Y1745D01*
D02*
X481Y1744D02*
X539Y1684D01*
D02*
X221Y1767D02*
X433Y1765D01*
D02*
X148Y1795D02*
X221Y1767D01*
D02*
X1220Y1706D02*
X1360Y1765D01*
D02*
X1360Y1765D02*
X1453Y1766D01*
D02*
X1101Y1684D02*
X1220Y1706D01*
D02*
X1074Y1739D02*
X1101Y1684D01*
G54D19*
D02*
X2255Y1889D02*
X2221Y1925D01*
D02*
X2259Y1546D02*
X2255Y1889D01*
D02*
X2221Y1925D02*
X1561Y1925D01*
D02*
X1540Y1546D02*
X2259Y1546D01*
D02*
X1561Y1925D02*
X1561Y1981D01*
D02*
X1495Y1485D02*
X1540Y1546D01*
D02*
X1767Y1625D02*
X1360Y1625D01*
D02*
X1042Y824D02*
X822Y730D01*
D02*
X1042Y1265D02*
X1042Y824D01*
D02*
X1360Y1265D02*
X1042Y1265D01*
D02*
X1360Y1625D02*
X1360Y1265D01*
D02*
X1360Y1665D02*
X1867Y1667D01*
D02*
X1260Y1625D02*
X1360Y1665D01*
D02*
X1260Y1306D02*
X1260Y1625D01*
D02*
X701Y1306D02*
X1260Y1306D01*
D02*
X701Y824D02*
X701Y1306D01*
D02*
X504Y735D02*
X701Y824D01*
D02*
X1145Y1986D02*
X976Y1783D01*
D02*
X2171Y1787D02*
X2121Y1886D01*
D02*
X2121Y1886D02*
X1320Y1885D01*
D02*
X1320Y1885D02*
X1271Y1983D01*
D02*
X1342Y824D02*
X1144Y735D01*
D02*
X1401Y1265D02*
X1342Y1187D01*
D02*
X1342Y1187D02*
X1342Y824D01*
D02*
X1400Y1587D02*
X1401Y1265D01*
D02*
X1666Y1587D02*
X1400Y1587D01*
D02*
X1679Y846D02*
X1682Y1443D01*
D02*
X1464Y736D02*
X1679Y846D01*
D02*
X1979Y1187D02*
X1979Y824D01*
D02*
X1979Y824D02*
X1784Y731D01*
D02*
X1795Y1448D02*
X1979Y1187D01*
D02*
X2320Y1187D02*
X2320Y824D01*
D02*
X2320Y824D02*
X2389Y739D01*
D02*
X1999Y1452D02*
X2320Y1187D01*
D02*
X2020Y824D02*
X2071Y741D01*
D02*
X2020Y1187D02*
X2020Y824D01*
D02*
X1892Y1446D02*
X2020Y1187D01*
D02*
X1940Y1705D02*
X1969Y1747D01*
D02*
X1360Y1706D02*
X1940Y1705D01*
D02*
X1221Y1644D02*
X1360Y1706D01*
D02*
X1221Y1344D02*
X1221Y1644D01*
D02*
X379Y1344D02*
X1221Y1344D01*
D02*
X379Y824D02*
X379Y1344D01*
D02*
X184Y735D02*
X379Y824D01*
G54D21*
X454Y351D02*
X505Y351D01*
X1734Y351D02*
X1785Y351D01*
X454Y350D02*
X505Y350D01*
X1734Y350D02*
X1785Y350D01*
X454Y349D02*
X505Y349D01*
X1734Y349D02*
X1785Y349D01*
X454Y348D02*
X505Y348D01*
X1734Y348D02*
X1785Y348D01*
X454Y347D02*
X505Y347D01*
X1734Y347D02*
X1785Y347D01*
X454Y346D02*
X505Y346D01*
X1734Y346D02*
X1785Y346D01*
X454Y345D02*
X505Y345D01*
X1734Y345D02*
X1785Y345D01*
X454Y344D02*
X505Y344D01*
X1734Y344D02*
X1785Y344D01*
X454Y343D02*
X505Y343D01*
X1734Y343D02*
X1785Y343D01*
X454Y342D02*
X505Y342D01*
X1734Y342D02*
X1785Y342D01*
X454Y341D02*
X475Y341D01*
X485Y341D02*
X505Y341D01*
X1734Y341D02*
X1754Y341D01*
X1764Y341D02*
X1785Y341D01*
X454Y340D02*
X472Y340D01*
X487Y340D02*
X505Y340D01*
X1734Y340D02*
X1752Y340D01*
X1767Y340D02*
X1785Y340D01*
X454Y339D02*
X470Y339D01*
X489Y339D02*
X505Y339D01*
X1734Y339D02*
X1750Y339D01*
X1768Y339D02*
X1785Y339D01*
X454Y338D02*
X469Y338D01*
X490Y338D02*
X505Y338D01*
X1734Y338D02*
X1749Y338D01*
X1770Y338D02*
X1785Y338D01*
X454Y337D02*
X468Y337D01*
X491Y337D02*
X505Y337D01*
X1734Y337D02*
X1748Y337D01*
X1771Y337D02*
X1785Y337D01*
X454Y336D02*
X467Y336D01*
X492Y336D02*
X505Y336D01*
X1734Y336D02*
X1747Y336D01*
X1772Y336D02*
X1785Y336D01*
X454Y335D02*
X466Y335D01*
X493Y335D02*
X505Y335D01*
X1734Y335D02*
X1746Y335D01*
X1773Y335D02*
X1785Y335D01*
X454Y334D02*
X466Y334D01*
X494Y334D02*
X505Y334D01*
X1734Y334D02*
X1745Y334D01*
X1773Y334D02*
X1785Y334D01*
X454Y333D02*
X465Y333D01*
X494Y333D02*
X505Y333D01*
X1734Y333D02*
X1745Y333D01*
X1774Y333D02*
X1785Y333D01*
X454Y332D02*
X465Y332D01*
X495Y332D02*
X505Y332D01*
X1734Y332D02*
X1744Y332D01*
X1774Y332D02*
X1785Y332D01*
X454Y331D02*
X464Y331D01*
X495Y331D02*
X505Y331D01*
X1734Y331D02*
X1744Y331D01*
X1775Y331D02*
X1785Y331D01*
X454Y330D02*
X464Y330D01*
X495Y330D02*
X505Y330D01*
X1734Y330D02*
X1744Y330D01*
X1775Y330D02*
X1785Y330D01*
X454Y329D02*
X464Y329D01*
X496Y329D02*
X505Y329D01*
X1734Y329D02*
X1743Y329D01*
X1775Y329D02*
X1785Y329D01*
X454Y328D02*
X464Y328D01*
X496Y328D02*
X505Y328D01*
X1734Y328D02*
X1743Y328D01*
X1775Y328D02*
X1785Y328D01*
X454Y327D02*
X464Y327D01*
X496Y327D02*
X505Y327D01*
X1734Y327D02*
X1743Y327D01*
X1775Y327D02*
X1785Y327D01*
X454Y326D02*
X463Y326D01*
X496Y326D02*
X505Y326D01*
X1734Y326D02*
X1743Y326D01*
X1775Y326D02*
X1785Y326D01*
X454Y325D02*
X464Y325D01*
X496Y325D02*
X505Y325D01*
X1734Y325D02*
X1743Y325D01*
X1775Y325D02*
X1785Y325D01*
X454Y324D02*
X464Y324D01*
X496Y324D02*
X505Y324D01*
X1734Y324D02*
X1743Y324D01*
X1775Y324D02*
X1785Y324D01*
X454Y323D02*
X464Y323D01*
X496Y323D02*
X505Y323D01*
X1734Y323D02*
X1743Y323D01*
X1775Y323D02*
X1785Y323D01*
X454Y322D02*
X464Y322D01*
X495Y322D02*
X505Y322D01*
X1734Y322D02*
X1744Y322D01*
X1775Y322D02*
X1785Y322D01*
X454Y321D02*
X464Y321D01*
X495Y321D02*
X505Y321D01*
X1734Y321D02*
X1744Y321D01*
X1775Y321D02*
X1785Y321D01*
X454Y320D02*
X465Y320D01*
X495Y320D02*
X505Y320D01*
X1734Y320D02*
X1744Y320D01*
X1774Y320D02*
X1785Y320D01*
X454Y319D02*
X465Y319D01*
X494Y319D02*
X505Y319D01*
X1734Y319D02*
X1745Y319D01*
X1774Y319D02*
X1785Y319D01*
X454Y318D02*
X466Y318D01*
X494Y318D02*
X505Y318D01*
X1734Y318D02*
X1745Y318D01*
X1773Y318D02*
X1785Y318D01*
X454Y317D02*
X466Y317D01*
X493Y317D02*
X505Y317D01*
X1734Y317D02*
X1746Y317D01*
X1773Y317D02*
X1785Y317D01*
X454Y316D02*
X467Y316D01*
X492Y316D02*
X505Y316D01*
X1734Y316D02*
X1747Y316D01*
X1772Y316D02*
X1785Y316D01*
X454Y315D02*
X468Y315D01*
X491Y315D02*
X505Y315D01*
X1734Y315D02*
X1747Y315D01*
X1771Y315D02*
X1785Y315D01*
X454Y314D02*
X469Y314D01*
X490Y314D02*
X505Y314D01*
X1734Y314D02*
X1749Y314D01*
X1770Y314D02*
X1785Y314D01*
X454Y313D02*
X470Y313D01*
X489Y313D02*
X505Y313D01*
X1734Y313D02*
X1750Y313D01*
X1769Y313D02*
X1785Y313D01*
X454Y312D02*
X472Y312D01*
X487Y312D02*
X505Y312D01*
X1734Y312D02*
X1752Y312D01*
X1767Y312D02*
X1785Y312D01*
X454Y311D02*
X474Y311D01*
X485Y311D02*
X505Y311D01*
X1734Y311D02*
X1754Y311D01*
X1765Y311D02*
X1785Y311D01*
X454Y310D02*
X505Y310D01*
X1734Y310D02*
X1785Y310D01*
X454Y309D02*
X505Y309D01*
X1734Y309D02*
X1785Y309D01*
X454Y308D02*
X505Y308D01*
X1734Y308D02*
X1785Y308D01*
X454Y307D02*
X505Y307D01*
X1734Y307D02*
X1785Y307D01*
X454Y306D02*
X505Y306D01*
X1734Y306D02*
X1785Y306D01*
X454Y305D02*
X505Y305D01*
X1734Y305D02*
X1785Y305D01*
X454Y304D02*
X505Y304D01*
X1734Y304D02*
X1785Y304D01*
X454Y303D02*
X505Y303D01*
X1734Y303D02*
X1785Y303D01*
X454Y302D02*
X505Y302D01*
X1734Y302D02*
X1785Y302D01*
X454Y301D02*
X505Y301D01*
X1734Y301D02*
X1785Y301D01*
D02*
G04 End of Copper0*
M02*